<?xml version="1.0" standalone="no"?>
<!DOCTYPE svg PUBLIC "-//W3C//DTD SVG 1.1//EN" "http://www.w3.org/Graphics/SVG/1.1/DTD/svg11.dtd" >
<svg xmlns="http://www.w3.org/2000/svg" xmlns:xlink="http://www.w3.org/1999/xlink" version="1.1">
<metadata></metadata>
<defs>
<font id="mitrextralight" horiz-adv-x="0" >
<font-face units-per-em="2048" ascent="1536" descent="-512" />
<missing-glyph horiz-adv-x="921" />
<glyph unicode="fi" horiz-adv-x="1038" d="M72 928v14q0 23 11 32t36 9h121v92q0 152 95 250t257 98q80 0 151.5 -17t122.5 -52q10 -8 13.5 -15.5t-2.5 -17.5l-29 -45q-6 -12 -14 -12q-6 0 -15 6q-90 59 -227 59q-113 0 -177.5 -69.5t-64.5 -190.5v-86h488q47 0 47 -47v-889q0 -47 -47 -47h-17q-47 0 -47 47v836 h-424v-836q0 -47 -47 -47h-16q-47 0 -47 47v836h-121q-47 0 -47 45z" />
<glyph unicode="fl" horiz-adv-x="1079" d="M72 928v14q0 23 11 32t36 9h121v92q0 152 98 250t266 98q86 0 171 -22.5t132 -59.5q12 -10 15.5 -20t3.5 -29v-1245q0 -47 -47 -47h-17q-47 0 -47 47v836h-465v-836q0 -47 -47 -47h-16q-47 0 -47 47v836h-121q-47 0 -47 45zM350 983h465v301q-45 25 -93 35t-118 10 q-125 0 -189.5 -68.5t-64.5 -191.5v-86z" />
<glyph unicode="&#xe24;&#xe45;" horiz-adv-x="1751" d="M113 879q0 20 8 26q197 201 506 201q193 0 307 -74q61 37 148 55.5t163 18.5q352 0 352 -350v-1028q0 -47 -47 -47h-16q-47 0 -47 47v1042q0 121 -54.5 181.5t-187.5 60.5q-127 0 -233 -47q92 -111 92 -285v-952q0 -47 -47 -47h-17q-47 0 -47 47v958q0 166 -87 246 t-281 80q-121 0 -225.5 -37t-176.5 -101l41 -90q18 -41 25.5 -69.5t7.5 -75.5v-479q0 -33 9 -43.5t42 -10.5h103q20 0 30.5 -9t10.5 -31v-27q0 -39 -39 -39h-134q-82 0 -107.5 30.5t-25.5 110.5v557l-59 136q-14 29 -14 45z" />
<glyph unicode="&#xe26;&#xe45;" horiz-adv-x="1810" d="M113 39v27q0 23 10 31.5t31 8.5h71q33 0 42 10.5t9 43.5v538l-90 136q-16 25 -16 43q0 23 14 32q106 90 221 143.5t281 53.5q193 0 307 -74q66 35 150 54.5t162 19.5q352 0 352 -350v-1028q0 -47 -47 -47h-17q-47 0 -47 47v1042q0 121 -54 181.5t-187 60.5 q-135 0 -234 -47q92 -111 92 -285v-952q0 -47 -47 -47h-16q-47 0 -47 47v958q0 170 -89.5 248t-279.5 78q-121 0 -222.5 -38t-172.5 -102l61 -92q23 -33 30 -61.5t7 -79.5v-498q0 -80 -25.5 -110.5t-107.5 -30.5h-102q-39 0 -39 39z" />
<glyph unicode=" "  horiz-adv-x="921" />
<glyph unicode="&#x09;" horiz-adv-x="921" />
<glyph unicode="&#xa0;" horiz-adv-x="921" />
<glyph unicode="!" horiz-adv-x="380" d="M113 68v36q0 29 18.5 48.5t44.5 19.5h29q29 0 46 -19.5t17 -48.5v-36q0 -29 -18.5 -48.5t-44.5 -19.5h-29q-26 0 -44.5 19.5t-18.5 48.5zM135 1346q0 47 47 47h17q47 0 47 -47l-13 -891q0 -25 -9 -35t-34 -10q-24 0 -33.5 10t-9.5 35z" />
<glyph unicode="&#x22;" horiz-adv-x="649" d="M113 1376q0 47 47 47h16q47 0 47 -47l-6 -307q0 -47 -45 -47h-8q-45 0 -45 47zM426 1376q0 47 47 47h16q47 0 48 -47l-7 -307q0 -47 -45 -47h-8q-45 0 -45 47z" />
<glyph unicode="#" horiz-adv-x="1585" d="M113 434v15q0 45 47 45h207l161 391h-286q-25 0 -36 9t-11 32v14q0 45 47 45h327l160 387q8 20 31 21h67q27 0 15 -27l-158 -381h467l160 387q8 20 30 21h68q27 0 14 -27l-157 -381h159q47 0 48 -45v-14q0 -23 -11.5 -32t-36.5 -9h-200l-160 -391h278q47 0 48 -45v-15 q0 -23 -11.5 -32t-36.5 -9h-319l-154 -373q-8 -20 -30 -20h-68q-27 0 -14 27l149 366h-465l-153 -373q-8 -20 -31 -20h-68q-26 0 -14 27l150 366h-166q-25 0 -36 9.5t-11 31.5zM483 494h465l162 391h-467z" />
<glyph unicode="$" horiz-adv-x="1171" d="M115 82q-2 6 4 18l26 45q6 12 15 13q4 0 14 -6q66 -39 179.5 -64t226.5 -25q182 0 277 62.5t95 204.5q0 96 -41 152.5t-118.5 94t-231.5 87.5q-127 41 -212 82.5t-142 118.5t-57 196q0 172 110.5 263t298.5 97v119q0 47 47 47h17q47 0 47 -47v-119q104 -8 193 -32.5 t143 -61.5q12 -8 14 -14t-4 -19l-27 -45q-6 -12 -14 -12q-6 0 -14 6q-66 41 -153 63.5t-218 22.5q-334 0 -334 -268q0 -90 38 -143.5t105.5 -86t208.5 -81.5q16 -4 49 -17q147 -51 227.5 -94t127.5 -116.5t47 -194.5q0 -154 -99.5 -245t-289.5 -110v-116q0 -47 -47 -47h-17 q-47 0 -47 47v112q-119 4 -239.5 27.5t-190.5 71.5q-12 8 -14 14z" />
<glyph unicode="%" horiz-adv-x="1497" d="M113 1130q0 84 38.5 151t106.5 104.5t148 37.5t147.5 -37.5t106 -104.5t38.5 -151t-38.5 -150.5t-106.5 -104t-147 -37.5q-80 0 -148 37.5t-106.5 104.5t-38.5 150zM211 1130q0 -84 56.5 -139t138.5 -55q81 0 137.5 55.5t56.5 138.5q0 84 -56.5 139.5t-137.5 55.5 q-82 0 -138.5 -55.5t-56.5 -139.5zM222 8q-3 8 3 19l922 1345q8 10 14 15.5t17 5.5h77q14 0 17.5 -8.5t-2.5 -18.5l-922 -1346q-8 -10 -14 -15t-17 -5h-77q-15 0 -18 8zM799 262q0 84 39 150.5t106.5 104.5t147.5 38t147.5 -38t106 -104.5t38.5 -150.5t-38.5 -150.5 t-106.5 -104.5t-147 -38q-80 0 -147.5 38t-106.5 104.5t-39 150.5zM897 262q0 -84 56.5 -139t138.5 -55t138 55t56 139t-56 139.5t-138 55.5t-138.5 -55.5t-56.5 -139.5z" />
<glyph unicode="&#x26;" horiz-adv-x="1492" d="M113 385q0 127 63.5 228.5t173.5 131.5q-90 47 -134 127t-44 181q0 109 57.5 192.5t168 130.5t264.5 47q147 0 246.5 -32.5t168.5 -90.5q12 -8 15.5 -15t-5.5 -17l-34 -45q-10 -10 -14.5 -12.5t-14.5 6.5q-63 51 -149.5 78.5t-210.5 27.5q-178 0 -281.5 -65.5 t-103.5 -204.5q0 -127 72.5 -192.5t195.5 -65.5h807q47 0 47 -45v-15q0 -23 -11.5 -32t-35.5 -9h-117v-123q0 -272 -133 -437t-436 -165q-287 0 -421 114t-134 302zM219 385q0 -322 449 -322q243 0 352.5 126t109.5 372v133h-575q-162 0 -249 -76.5t-87 -232.5z" />
<glyph unicode="'" horiz-adv-x="335" d="M113 1376q0 47 47 47h16q47 0 47 -47l-6 -307q0 -47 -45 -47h-8q-45 0 -45 47z" />
<glyph unicode="(" horiz-adv-x="679" d="M113 647q0 317 113.5 564t316.5 345q16 8 32 9q33 0 33 -37q0 -27 -10 -39t-37 -29q-166 -102 -254 -321t-88 -492q0 -272 88 -491t254 -322q27 -16 37 -28.5t10 -38.5q0 -37 -33 -37q-16 0 -32 8q-203 98 -316.5 345t-113.5 564z" />
<glyph unicode=")" horiz-adv-x="679" d="M72 -233q0 27 10 39t37 28q166 102 254 321.5t88 491.5t-88 491.5t-254 321.5q-27 16 -37 28.5t-10 39.5q0 37 32 37q16 0 33 -9q203 -98 316.5 -344.5t113.5 -564.5q0 -317 -113.5 -564t-316.5 -345q-17 -8 -33 -8q-33 0 -32 37z" />
<glyph unicode="*" horiz-adv-x="843" d="M114 1202q-3 8 3 19l26 45q6 10 12.5 12t18.5 -4l193 -88v205q0 47 47 47h16q47 0 47 -47v-207l193 88q6 4 14 4q10 0 16 -12l27 -45q4 -8 4 -13q0 -12 -16 -18l-219 -96l182 -197q10 -10 10 -21q0 -10 -10 -18l-37 -31q-10 -8 -18 -8q-10 0 -23 14l-178 197l-178 -194 q-12 -14 -23 -15q-8 0 -18 8l-37 31q-10 8 -10 19q0 10 10 20l182 197l-219 96q-12 4 -15 12z" />
<glyph unicode="+" horiz-adv-x="970" d="M113 594v14q0 45 47 45h270v246q0 47 47 47h17q47 0 47 -47v-246h270q47 0 47 -45v-14q0 -23 -11 -32t-36 -9h-270v-246q0 -47 -47 -47h-17q-47 0 -47 47v246h-270q-25 0 -36 9t-11 32z" />
<glyph unicode="," horiz-adv-x="462" d="M115 -227q0 10 2 16l114 340q6 16 15.5 22.5t29.5 6.5h50q25 0 24 -17l-4 -16l-147 -346q-6 -12 -15.5 -17.5t-25.5 -5.5h-25q-18 1 -18 17z" />
<glyph unicode="-" horiz-adv-x="970" d="M113 594v14q0 45 47 45h651q47 0 47 -45v-14q0 -23 -11 -32t-36 -9h-651q-25 0 -36 9t-11 32z" />
<glyph unicode="." horiz-adv-x="380" d="M113 68v26q0 29 18.5 48.5t44.5 19.5h29q27 0 45 -19.5t18 -48.5v-26q0 -29 -17.5 -48.5t-45.5 -19.5h-29q-26 0 -44.5 19.5t-18.5 48.5z" />
<glyph unicode="/" horiz-adv-x="899" d="M117 27l553 1345q8 20 30 21h68q27 0 14 -27l-553 -1346q-8 -20 -30 -20h-68q-26 0 -14 27z" />
<glyph unicode="0" horiz-adv-x="1511" d="M113 696q0 348 163.5 537.5t479.5 189.5q315 0 479 -189.5t164 -537.5t-164 -537.5t-479 -189.5q-316 0 -479.5 189.5t-163.5 537.5zM219 696q0 -319 141 -479l723 1020q-127 92 -327 92q-264 0 -400.5 -160.5t-136.5 -472.5zM436 150q123 -86 320 -87q264 0 400 161 t136 472q0 307 -135 471z" />
<glyph unicode="1" horiz-adv-x="909" d="M115 1163q0 23 24 37l303 182q16 10 39 11h13q47 0 47 -47v-1246h250q47 0 47 -45v-14q0 -23 -11.5 -32t-35.5 -9h-611q-24 0 -35.5 9t-11.5 32v14q0 45 47 45h250v1157l-237 -143q-18 -12 -33 -12q-16 0 -29 22l-8 13q-8 14 -8 26z" />
<glyph unicode="2" horiz-adv-x="1171" d="M113 47v66q0 133 112.5 266t317.5 235q158 78 243.5 138.5t125.5 130t40 170.5q0 137 -103.5 206.5t-260.5 69.5q-236 0 -371 -86q-10 -6 -14 -6q-8 0 -15 12l-26 45q-4 6 -4 15q0 10 14 18q61 43 173 69.5t243 26.5q133 0 239.5 -43t169 -127t62.5 -200 q0 -121 -51.5 -209t-143.5 -155.5t-239 -139.5q-199 -98 -300.5 -212t-101.5 -237h772q47 0 47 -45v-14q0 -23 -11 -32t-36 -9h-835q-47 0 -47 47z" />
<glyph unicode="3" horiz-adv-x="1198" d="M115 80q-2 6 4 18l26 45q6 12 15 13q4 0 14 -6q147 -86 399 -87q203 0 304.5 88.5t101.5 233.5q0 147 -86 218t-258 71h-178q-47 0 -47 45v14q0 23 11 32t36 9h192q139 0 212 81t73 196q0 139 -96.5 208.5t-274.5 69.5q-111 0 -203 -23.5t-153 -62.5q-8 -6 -14 -6 q-8 0 -15 12l-26 45q-4 6 -5 15q0 10 15 18q61 43 171.5 69.5t237.5 26.5q217 0 343 -102t126 -270q0 -104 -55 -194.5t-156 -131.5q135 -41 195.5 -125t60.5 -215q0 -121 -58 -215t-172 -147.5t-275 -53.5q-148 0 -262.5 24.5t-188.5 72.5q-12 8 -14 14z" />
<glyph unicode="4" horiz-adv-x="1282" d="M72 365v14q0 29 18 49l778 944q16 20 41 21h19q47 0 47 -47v-918h188q47 0 47 -45v-14q0 -23 -11 -32t-36 -9h-188v-281q0 -47 -47 -47h-17q-47 0 -47 47v281h-751q-41 0 -41 37zM211 428h653v791z" />
<glyph unicode="5" horiz-adv-x="1232" d="M115 80q-2 6 4 18l26 45q6 12 15 13q4 0 14 -6q61 -39 166.5 -63t228.5 -24q207 0 326 94.5t119 276.5q0 207 -104.5 293t-315.5 86q-195 0 -334 -68q-16 -8 -35 -8q-29 0 -48 20.5t-17 53.5l35 535q0 47 47 47h770q25 0 36 -9.5t11 -31.5v-15q0 -45 -47 -45h-711 l-29 -440q74 29 153 42t191 13q233 0 368.5 -116.5t135.5 -356.5q0 -219 -151.5 -342t-399.5 -123q-133 0 -256 27t-184 70q-12 8 -14 14z" />
<glyph unicode="6" horiz-adv-x="1304" d="M113 594q0 311 84 496.5t213 259t278 73.5q115 0 208 -24.5t157 -67.5q12 -8 14 -14t-4 -19l-27 -45q-6 -12 -14 -12q-4 0 -14 6q-129 82 -322 82t-310.5 -142.5t-146.5 -406.5q70 98 180.5 145.5t266.5 47.5q150 0 266.5 -55.5t183 -163t66.5 -256.5 q0 -260 -144.5 -394.5t-402.5 -134.5q-239 0 -385.5 147.5t-146.5 477.5zM223 516q0 -227 119 -340t303 -113q440 1 440 435q0 190 -111.5 284.5t-316.5 94.5q-96 0 -197.5 -42t-169 -124t-67.5 -195z" />
<glyph unicode="7" horiz-adv-x="1202" d="M92 1337v15q0 23 11.5 32t35.5 9h926q45 0 45 -41q0 -14 -9 -34t-22 -42l-676 -1264q-4 -8 -9 -10t-15 -2h-82q-14 0 -14 12q0 10 8 25l674 1255h-826q-47 0 -47 45z" />
<glyph unicode="8" horiz-adv-x="1290" d="M113 367q0 135 74.5 230t199.5 128q-231 84 -231 315q0 184 126 283.5t363 99.5q238 0 364 -99t126 -284q0 -231 -232 -315q125 -33 200 -128t75 -230q0 -188 -141.5 -293t-391.5 -105t-391 104.5t-141 293.5zM219 367q0 -154 105.5 -229t320.5 -75t320.5 75t105.5 229 q0 309 -426 309t-426 -309zM262 1040q0 -145 97.5 -206.5t285.5 -61.5q189 0 286 61.5t97 206.5q0 154 -94 221.5t-289 67.5t-289 -67.5t-94 -221.5z" />
<glyph unicode="9" horiz-adv-x="1288" d="M113 891q0 262 149.5 397t407.5 135q233 0 369.5 -150.5t136.5 -473.5q0 -455 -168 -642.5t-408 -187.5q-115 0 -208 24.5t-156 67.5q-12 8 -14.5 14.5t3.5 18.5l27 45q6 12 14 13q4 0 15 -7q129 -82 321 -82q199 0 320.5 144.5t138.5 406.5q-160 -195 -428 -194 q-152 0 -269.5 56t-184 161.5t-66.5 253.5zM219 891q0 -184 112.5 -279.5t319.5 -95.5q97 0 193 42t158.5 123t62.5 196q0 225 -104.5 338.5t-290.5 113.5q-451 0 -451 -438z" />
<glyph unicode=":" horiz-adv-x="380" d="M113 68v36q0 29 18.5 48.5t44.5 19.5h29q29 0 46 -19.5t17 -48.5v-36q0 -29 -18.5 -48.5t-44.5 -19.5h-29q-26 0 -44.5 19.5t-18.5 48.5zM113 905v37q0 29 18.5 48.5t44.5 19.5h29q29 0 46 -19.5t17 -48.5v-37q0 -29 -18.5 -48t-44.5 -19h-29q-26 0 -44.5 19.5 t-18.5 47.5z" />
<glyph unicode=";" horiz-adv-x="473" d="M115 -227q0 10 2 16l114 340q6 16 15.5 22.5t29.5 6.5h50q25 0 24 -17l-4 -16l-147 -346q-6 -12 -15.5 -17.5t-25.5 -5.5h-25q-18 1 -18 17zM205 905v37q0 29 18.5 48.5t44.5 19.5h29q29 0 46 -19.5t17 -48.5v-37q0 -29 -18 -48t-45 -19h-29q-26 0 -44.5 19.5t-18.5 47.5 z" />
<glyph unicode="&#x3c;" horiz-adv-x="1208" d="M113 549v24q0 18 8 27.5t26 20.5l912 428q8 4 12 4q10 0 17.5 -8.5t7.5 -20.5v-39q0 -23 -8.5 -33t-26.5 -18l-809 -373l809 -373q18 -8 26.5 -18t8.5 -33v-39q0 -16 -11.5 -24t-25.5 0l-912 428q-18 10 -26 19t-8 28z" />
<glyph unicode="=" horiz-adv-x="937" d="M113 434v15q0 45 47 45h618q47 0 47 -45v-15q0 -23 -11 -32t-36 -9h-618q-25 0 -36 9.5t-11 31.5zM113 741v15q0 45 47 45h618q47 0 47 -45v-15q0 -23 -11 -32t-36 -9h-618q-25 0 -36 9.5t-11 31.5z" />
<glyph unicode="&#x3e;" horiz-adv-x="1208" d="M113 98v39q0 23 8 33t26 18l809 373l-809 373q-18 8 -26 18.5t-8 32.5v39q0 16 11 24.5t26 0.5l911 -428q18 -10 26.5 -19.5t8.5 -28.5v-24q0 -18 -8.5 -27.5t-26.5 -19.5l-911 -428q-9 -4 -13 -4q-10 0 -17 8t-7 20z" />
<glyph unicode="?" horiz-adv-x="1097" d="M115 1309q0 10 14 18q61 43 173 69.5t243 26.5q199 0 319.5 -96t120.5 -266q0 -129 -59.5 -208t-200.5 -153q-92 -49 -138 -91t-63.5 -95t-17.5 -139v-41q0 -47 -47 -47h-17q-47 0 -47 47v47q0 139 56.5 230t179.5 155q106 55 157.5 94t71 84t19.5 117q0 129 -95.5 198.5 t-238.5 69.5q-131 0 -218 -22.5t-153 -63.5q-10 -6 -14 -6q-8 0 -15 12l-26 45q-4 6 -4 15zM373 68v32q0 29 18.5 48.5t44.5 19.5h29q29 0 46 -19.5t17 -48.5v-32q0 -29 -18 -48.5t-45 -19.5h-29q-26 0 -44.5 19.5t-18.5 48.5z" />
<glyph unicode="@" horiz-adv-x="1871" d="M113 618q0 418 229 631t637 213q385 0 582.5 -198.5t197.5 -548.5q0 -229 -94 -360.5t-250 -131.5q-80 0 -130 42t-68 116q-61 -76 -151.5 -116t-203.5 -40q-170 0 -273.5 99.5t-103.5 279.5q0 221 128 354.5t358 133.5q92 0 182 -28t150 -67v-534q0 -76 26.5 -111 t87.5 -35q111 0 173.5 105.5t62.5 294.5q0 313 -169 482t-505 169q-354 0 -557 -183.5t-203 -566.5q0 -233 94.5 -391.5t255 -236.5t359.5 -78q106 0 205.5 24.5t156.5 65.5q10 6 15 6q8 0 14 -12l27 -45q4 -12 4 -14q0 -10 -15 -19q-74 -49 -182.5 -74.5t-224.5 -25.5 q-238 0 -423.5 94t-288.5 275.5t-103 430.5zM592 616q0 -152 72.5 -222t232.5 -70q74 0 142.5 29.5t111.5 86t43 129.5v371q-92 53 -227 53q-174 0 -274.5 -99t-100.5 -278z" />
<glyph unicode="A" horiz-adv-x="1474" d="M117 37l561 1321q8 20 15 27.5t26 7.5h37q18 0 25 -7.5t16 -27.5l561 -1321q2 -4 2 -12q0 -10 -7 -17.5t-20 -7.5h-39q-23 0 -33 8t-18 27l-156 368h-700l-156 -368q-8 -18 -18 -26.5t-33 -8.5h-39q-16 0 -23 11.5t-1 25.5zM428 504h616l-307 727z" />
<glyph unicode="B" horiz-adv-x="1325" d="M154 47v1299q0 47 47 47h585q186 0 283.5 -97.5t97.5 -261.5q0 -102 -55 -184t-156 -125q256 -76 256 -340q0 -166 -105.5 -275.5t-305.5 -109.5h-600q-47 0 -47 47zM264 100h539q158 0 230.5 80t72.5 205q0 145 -90 217t-254 72h-498v-574zM264 774h512q135 0 210 75 t75 185q0 127 -73 192.5t-214 65.5h-510v-518z" />
<glyph unicode="C" horiz-adv-x="1382" d="M113 696q0 344 180 535.5t512 191.5q123 0 233.5 -24.5t186.5 -73.5q12 -8 14 -14t-4 -19l-27 -45q-6 -12 -14 -12q-4 0 -14 6q-61 41 -157.5 64.5t-215.5 23.5q-272 0 -430 -155.5t-158 -477.5q0 -319 161 -476t427 -157q133 0 229.5 23t171.5 70q10 6 15 6q8 0 14 -12 l27 -46q4 -12 4 -14q0 -10 -15 -18q-84 -53 -193.5 -78t-254.5 -25q-332 0 -512 191.5t-180 535.5z" />
<glyph unicode="D" horiz-adv-x="1386" d="M154 47v1299q0 47 47 47h368q338 0 521.5 -163t183.5 -534t-183.5 -533.5t-521.5 -162.5h-368q-47 0 -47 47zM264 100h318q287 0 436 136.5t149 459.5q0 324 -149.5 460t-435.5 136h-318v-1192z" />
<glyph unicode="E" horiz-adv-x="1191" d="M154 47v1299q0 47 47 47h852q25 0 36 -9.5t11 -31.5v-15q0 -45 -47 -45h-789v-544h610q25 0 36.5 -9.5t11.5 -31.5v-15q0 -45 -48 -45h-610v-547h789q47 0 47 -45v-14q0 -23 -11.5 -32t-35.5 -9h-852q-47 0 -47 47z" />
<glyph unicode="F" horiz-adv-x="1171" d="M154 47v1299q0 47 47 47h852q25 0 36 -9.5t11 -31.5v-15q0 -45 -47 -45h-789v-544h610q25 0 36.5 -9.5t11.5 -31.5v-15q0 -45 -48 -45h-610v-600q0 -47 -47 -47h-16q-47 0 -47 47z" />
<glyph unicode="G" horiz-adv-x="1425" d="M113 696q0 344 180 535.5t512 191.5q123 0 233.5 -24.5t186.5 -73.5q12 -8 14 -14t-4 -19l-27 -45q-6 -12 -14 -12q-4 0 -14 6q-61 41 -157.5 64.5t-215.5 23.5q-272 0 -430 -155.5t-158 -477.5q0 -319 161 -476t427 -157q115 0 220.5 19.5t174.5 54.5v510h-364 q-47 0 -47 45v15q0 23 11 32t36 9h428q47 0 47 -48v-579q0 -18 -3 -29.5t-16 -17.5q-203 -104 -489 -105q-332 0 -512 191.5t-180 535.5z" />
<glyph unicode="H" horiz-adv-x="1404" d="M154 47v1299q0 47 47 47h16q47 0 47 -47v-590h877v590q0 47 47 47h16q47 0 47 -47v-1299q0 -47 -47 -47h-16q-47 0 -47 47v608h-877v-608q0 -47 -47 -47h-16q-47 0 -47 47z" />
<glyph unicode="I" horiz-adv-x="417" d="M154 47v1299q0 47 47 47h16q47 0 47 -47v-1299q0 -47 -47 -47h-16q-47 0 -47 47z" />
<glyph unicode="J" horiz-adv-x="948" d="M78 80l28 45q6 12 15 12q6 0 14 -6q49 -33 120 -50.5t146 -17.5q147 0 220 72t73 217v994q0 47 47 47h17q47 0 47 -47v-990q0 -174 -99.5 -280.5t-287.5 -106.5q-203 0 -330 78q-23 12 -10 33z" />
<glyph unicode="K" horiz-adv-x="1247" d="M154 47v1299q0 47 47 47h16q47 0 47 -47v-1299q0 -47 -47 -47h-16q-47 0 -47 47zM371 696q0 16 6 26.5t14 20t12 13.5l590 624q8 8 13.5 10.5t19.5 2.5h78q20 0 20 -15q0 -8 -14 -22l-623 -660l633 -659q14 -14 15 -23q0 -14 -21 -14h-78q-14 0 -19 2t-13 10l-601 625 q-4 4 -14 15.5t-14 20.5t-4 23z" />
<glyph unicode="L" horiz-adv-x="1110" d="M154 47v1299q0 47 47 47h16q47 0 47 -47v-1246h727q47 0 47 -45v-14q0 -23 -11 -32t-36 -9h-790q-47 0 -47 47z" />
<glyph unicode="M" horiz-adv-x="1626" d="M154 47v1299q0 47 47 47h28q23 0 34 -5.5t20 -25.5l530 -1190l530 1190q8 20 19.5 25.5t34.5 5.5h28q47 0 48 -47v-1299q0 -47 -48 -47h-16q-47 0 -47 47v1102l-504 -1120q-12 -29 -45 -29t-45 29l-504 1120v-1102q0 -47 -47 -47h-16q-47 0 -47 47z" />
<glyph unicode="N" horiz-adv-x="1425" d="M154 47v1299q0 47 47 47h28q18 0 28.5 -6.5t25.5 -24.5l878 -1196v1180q0 47 47 47h17q47 0 47 -47v-1299q0 -47 -47 -47h-29q-18 0 -28.5 6t-24.5 25l-879 1192v-1176q0 -47 -47 -47h-16q-47 0 -47 47z" />
<glyph unicode="O" horiz-adv-x="1572" d="M113 696q0 227 79.5 391t231 250t362.5 86t362.5 -86t231.5 -249.5t80 -391.5q0 -227 -80 -391t-231.5 -250t-362.5 -86t-362.5 86t-231 250t-79.5 391zM219 696q0 -307 149.5 -470t417.5 -163q269 0 418.5 163t149.5 470t-149.5 470t-418.5 163q-268 0 -417.5 -162.5 t-149.5 -470.5z" />
<glyph unicode="P" horiz-adv-x="1253" d="M154 47v1299q0 47 47 47h547q213 0 323.5 -118t110.5 -325t-110.5 -324.5t-326.5 -117.5h-481v-461q0 -47 -47 -47h-16q-47 0 -47 47zM264 608h492q164 0 241.5 85t77.5 257t-77.5 257t-241.5 85h-492v-684z" />
<glyph unicode="Q" horiz-adv-x="1572" d="M113 696q0 227 79.5 391t231 250t362.5 86t362.5 -86t231.5 -249.5t80 -391.5q0 -334 -168 -524t-469 -203q0 -123 77 -184t206 -61q133 0 231 65q8 6 15 6q8 0 14 -12l29 -45q4 -6 4 -14q0 -12 -15 -19q-72 -41 -140 -58.5t-154 -17.5q-175 0 -276 94.5t-101 249.5 q-285 23 -442.5 211.5t-157.5 511.5zM219 696q0 -307 149.5 -470t417.5 -163q269 0 418.5 163t149.5 470t-149.5 470t-418.5 163q-268 0 -417.5 -162.5t-149.5 -470.5z" />
<glyph unicode="R" horiz-adv-x="1294" d="M154 47v1299q0 47 47 47h547q213 0 323.5 -105.5t110.5 -296.5q0 -160 -77 -260t-228 -131l251 -567l5 -17q0 -16 -25 -16h-49q-20 0 -28.5 6t-18.5 29l-246 555h-502v-543q0 -47 -47 -47h-16q-47 0 -47 47zM264 690h492q164 0 241.5 73t77.5 228q0 156 -77.5 228.5 t-241.5 72.5h-492v-602z" />
<glyph unicode="S" horiz-adv-x="1171" d="M115 82q-2 6 4 18l26 45q6 12 15 13q4 0 14 -6q66 -39 179.5 -64t226.5 -25q182 0 277 62.5t95 204.5q0 96 -41 152.5t-118.5 94t-231.5 87.5q-127 41 -212 82.5t-142 118.5t-57 196q0 178 120.5 270t319.5 92q131 0 242.5 -26.5t173.5 -69.5q12 -8 14 -14t-4 -19 l-27 -45q-6 -12 -14 -12q-6 0 -14 6q-66 41 -153 63.5t-218 22.5q-334 0 -334 -268q0 -90 38 -143.5t105.5 -86t208.5 -81.5q16 -4 49 -17q147 -51 227.5 -94t127.5 -116.5t47 -194.5q0 -172 -123 -265.5t-356 -93.5q-115 0 -245 25.5t-206 73.5q-12 8 -14 14z" />
<glyph unicode="T" horiz-adv-x="1146" d="M72 1333v15q0 45 47 45h909q47 0 47 -45v-15q0 -23 -11 -32t-36 -9h-399v-1245q0 -47 -47 -47h-17q-47 0 -47 47v1245h-399q-25 0 -36 9.5t-11 31.5z" />
<glyph unicode="U" horiz-adv-x="1466" d="M143 481v865q0 47 47 47h17q47 0 47 -47v-873q0 -197 134 -303.5t345 -106.5t345 106.5t134 303.5v873q0 47 48 47h16q47 0 47 -47v-865q0 -156 -74.5 -271.5t-209 -178t-306.5 -62.5t-306 62.5t-209 178.5t-75 271z" />
<glyph unicode="V" horiz-adv-x="1474" d="M115 1368q0 10 7 17.5t19 7.5h39q23 0 33 -8.5t18 -26.5l506 -1192l506 1192q8 18 18.5 26.5t32.5 8.5h39q16 0 23.5 -11.5t1.5 -25.5l-561 -1321q-8 -20 -15.5 -27.5t-25.5 -7.5h-37q-19 0 -26 7t-15 28l-561 1321q-2 4 -2 12z" />
<glyph unicode="W" horiz-adv-x="1814" d="M115 1370q0 23 26 23h45q23 0 32 -7.5t13 -27.5l287 -1176l326 1069q6 18 13 26.5t26 8.5h51q18 0 24.5 -8t12.5 -27l325 -1069l287 1176q4 20 13.5 27.5t31.5 7.5h45q18 0 23.5 -10.5t1.5 -26.5l-336 -1321q-6 -20 -14.5 -27.5t-26.5 -7.5h-37q-18 0 -26.5 7t-14.5 28 l-336 1102l-336 -1102q-8 -20 -15 -27.5t-26 -7.5h-36q-19 0 -27 7t-14 28l-336 1321q-2 4 -2 14z" />
<glyph unicode="X" horiz-adv-x="1386" d="M113 16q0 10 8 21l508 672l-490 647q-8 10 -8 20q0 16 19 17h59q20 0 27.5 -4.5t17.5 -16.5l438 -579l441 579q10 12 17 16.5t28 4.5h59q18 0 18 -17q0 -10 -8 -20l-491 -647l510 -672q8 -10 8 -21q0 -16 -19 -16h-59q-20 0 -27.5 4t-17.5 16l-459 605l-456 -605 q-10 -12 -17.5 -16t-28.5 -4h-59q-18 0 -18 16z" />
<glyph unicode="Y" horiz-adv-x="1392" d="M113 1368q0 10 8 17.5t20 7.5h39q23 0 32 -7.5t19 -27.5l465 -799l465 799q10 20 19.5 27.5t31.5 7.5h39q16 0 24.5 -11.5t0.5 -25.5l-524 -901v-408q0 -47 -47 -47h-17q-47 0 -47 47v410l-524 899q-4 8 -4 12z" />
<glyph unicode="Z" horiz-adv-x="1288" d="M113 43q0 16 8 32.5t26 41.5l875 1175h-825q-47 0 -47 45v15q0 23 11 32t36 9h929q45 0 45 -43q0 -16 -8 -33t-26 -41l-873 -1176h864q47 0 48 -45v-14q0 -23 -11.5 -32t-36.5 -9h-970q-45 0 -45 43z" />
<glyph unicode="[" horiz-adv-x="536" d="M113 -96v1585q0 47 47 47h237q25 0 36 -9t11 -32v-14q0 -45 -47 -45h-174v-1479h174q47 0 47 -45v-14q0 -23 -11 -32t-36 -9h-237q-47 0 -47 47z" />
<glyph unicode="\" horiz-adv-x="911" d="M113 1411q0 12 18 12h68q23 0 30 -20l566 -1376q4 -8 4 -15q0 -12 -19 -12h-67q-23 0 -31 20l-565 1377q-4 8 -4 14z" />
<glyph unicode="]" horiz-adv-x="536" d="M92 -88q0 45 47 45h174v1479h-174q-47 0 -47 45v14q0 23 11.5 32t35.5 9h238q47 0 47 -47v-1585q0 -47 -47 -47h-238q-24 0 -35.5 9t-11.5 32v14z" />
<glyph unicode="^" horiz-adv-x="1212" d="M119 705.5q-8 11.5 0 25.5l428 707q12 20 21.5 27.5t25.5 7.5h24q16 0 25.5 -7.5t22.5 -27.5l428 -707q4 -8 4 -14q0 -10 -8.5 -16.5t-20.5 -6.5h-41q-23 0 -32 8.5t-21 26.5l-369 623l-368 -623q-12 -18 -21.5 -26.5t-32.5 -8.5h-41q-16 0 -24 11.5z" />
<glyph unicode="_" horiz-adv-x="1150" d="M113 -76q0 45 47 45h831q47 0 47 -45v-14q0 -23 -11 -32t-36 -9h-831q-25 0 -36 9t-11 32v14z" />
<glyph unicode="`" horiz-adv-x="460" d="M115 1511q0 16 24 17h56q20 0 29 -6t16 -23l104 -289l4 -16q0 -16 -20 -16h-31q-16 0 -25.5 5t-15.5 17l-137 295q-4 6 -4 16z" />
<glyph unicode="a" horiz-adv-x="1253" d="M113 426q0 176 68.5 308t200.5 206t314 74q113 0 222.5 -33t181.5 -82v-852q0 -47 -47 -47h-15q-23 0 -32 11.5t-11 35.5l-6 98q-139 -176 -422 -176q-209 0 -331.5 119t-122.5 338zM219 438q0 -193 95.5 -284t293.5 -91q94 0 182.5 38t143.5 110t55 166v473 q-53 31 -132 50.5t-161 19.5q-221 0 -349 -127t-128 -355z" />
<glyph unicode="b" horiz-adv-x="1253" d="M154 92v1254q0 47 47 47h16q47 0 47 -47v-467q137 135 412 135q219 0 342 -126t123 -356q0 -270 -137.5 -416.5t-415.5 -146.5q-125 0 -246 35t-188 88zM264 141q51 -35 141.5 -56.5t182.5 -21.5q227 0 336.5 114t109.5 343q0 203 -94 300.5t-305 97.5q-88 0 -173 -29 t-141.5 -90.5t-56.5 -151.5v-506z" />
<glyph unicode="c" horiz-adv-x="1165" d="M113 485q0 154 66.5 275t186 187.5t275.5 66.5q123 0 214 -22.5t167 -76.5q12 -8 14 -14t-4 -18l-26 -45q-6 -12 -15 -13q-4 0 -14 6q-61 43 -138 66t-190 23q-199 0 -314.5 -117t-115.5 -318q0 -213 118 -317.5t335 -104.5q193 0 319 91q8 6 15 6q8 0 14 -13l27 -45 q4 -12 4 -14q0 -10 -15 -18q-154 -100 -370 -101q-260 0 -406.5 133.5t-146.5 382.5z" />
<glyph unicode="d" horiz-adv-x="1253" d="M113 492q0 154 61.5 272.5t171 184t252.5 65.5q141 0 237.5 -33t153.5 -102v467q0 47 47 47h17q47 0 47 -47v-1254q-68 -53 -188.5 -88t-245.5 -35q-281 0 -417 129t-136 394zM219 479q0 -219 110.5 -317.5t336.5 -98.5q92 0 182 21.5t141 56.5v506q0 131 -103.5 201 t-252.5 70q-207 0 -310.5 -116t-103.5 -323z" />
<glyph unicode="e" horiz-adv-x="1232" d="M113 471q0 266 135 404.5t381 138.5q491 0 491 -529q0 -20 -10 -31.5t-31 -11.5h-858q0 -186 118 -282.5t327 -96.5q96 0 181 23t144 64q8 6 15 6q8 0 14 -13l27 -45q4 -6 4 -14t-15 -18q-76 -49 -179 -73t-208 -24q-233 0 -384.5 123t-151.5 379zM221 543h793 q0 180 -96.5 278.5t-288.5 98.5q-195 0 -301.5 -102.5t-106.5 -274.5z" />
<glyph unicode="f" horiz-adv-x="837" d="M72 928v14q0 23 11 32t36 9h121v121q0 147 76.5 233t230.5 86q141 0 244 -69q10 -8 13 -15.5t-3 -17.5l-29 -45q-6 -12 -14 -12q-4 0 -15 6q-47 31 -90 45t-102 14q-111 0 -156 -56t-45 -175v-115h332q25 0 36 -9t11 -32v-14q0 -45 -47 -45h-332v-836q0 -47 -47 -47h-16 q-47 0 -47 47v836h-121q-47 0 -47 45z" />
<glyph unicode="g" horiz-adv-x="1253" d="M113 453q0 264 150.5 412.5t420.5 148.5q115 0 231.5 -30t184.5 -75v-764q0 -244 -104.5 -368.5t-333.5 -124.5q-230 0 -388 76q-23 12 -10 32l31 54q6 12 14 12q6 0 15 -6q61 -33 148 -53.5t183 -20.5q176 0 255 90t79 309q-74 -92 -171 -134t-232 -42q-215 0 -344 128 t-129 356zM219 465q0 -399 402 -399q94 0 178 37.5t137 108.5t53 165v483q-51 27 -134 43.5t-171 16.5q-221 0 -343 -116t-122 -339z" />
<glyph unicode="h" horiz-adv-x="1204" d="M154 47v1299q0 25 8 36t31 11h32q23 0 31 -11.5t8 -35.5v-508q162 176 430 176q168 0 267.5 -85t99.5 -259v-623q0 -47 -47 -47h-17q-47 0 -47 47v617q0 139 -70.5 197.5t-211.5 58.5q-94 0 -187.5 -38t-155 -106.5t-61.5 -152.5v-576q0 -47 -47 -47h-16q-47 0 -47 47z " />
<glyph unicode="i" horiz-adv-x="462" d="M154 1288v37q0 29 18 48.5t45 19.5h29q27 0 45 -19.5t18 -48.5v-37q0 -29 -17.5 -48t-45.5 -19h-29q-27 0 -45 19.5t-18 47.5zM176 47v889q0 47 47 47h17q47 0 47 -47v-889q0 -47 -47 -47h-17q-47 0 -47 47z" />
<glyph unicode="j" horiz-adv-x="528" d="M-212 -263.5q-3 7.5 3 17.5l29 45q6 12 14 13q6 0 14 -7q47 -31 94.5 -45t106.5 -14q111 0 152 50t41 169v971q0 47 47 47h16q47 0 47 -47v-977q0 -307 -299 -307q-67 0 -133.5 17.5t-118.5 51.5q-10 8 -13 15.5zM219 1288v37q0 29 18.5 48.5t45.5 19.5h28 q27 0 45.5 -19.5t18.5 -48.5v-37q0 -29 -17.5 -48t-46.5 -19h-28q-27 0 -45.5 19.5t-18.5 47.5z" />
<glyph unicode="k" horiz-adv-x="1079" d="M154 47v1299q0 47 47 47h16q47 0 47 -47v-1299q0 -47 -47 -47h-16q-47 0 -47 47zM356 522q0 16 6.5 26.5t14.5 20t12 13.5l430 389q8 8 13.5 10t19.5 2h74q20 0 20 -14q0 -8 -14 -23l-463 -424l483 -485q14 -14 15 -23q0 -14 -21 -14h-74q-14 0 -19 2t-13 10l-451 451 q-4 4 -14 15t-14.5 20.5t-4.5 23.5z" />
<glyph unicode="l" horiz-adv-x="417" d="M154 47v1299q0 47 47 47h16q47 0 47 -47v-1299q0 -47 -47 -47h-16q-47 0 -47 47z" />
<glyph unicode="m" horiz-adv-x="1640" d="M154 47v889q0 25 8 36t31 11h20q23 0 31 -11t8 -36v-109q59 90 141 138.5t201 48.5q94 0 164.5 -49.5t91.5 -141.5q53 90 142 140.5t206 50.5q135 0 217 -83t82 -249v-635q0 -47 -47 -47h-16q-47 0 -48 47v631q0 131 -54 186.5t-161 55.5q-123 0 -206.5 -81t-83.5 -208 v-584q0 -47 -47 -47h-17q-47 0 -47 47v647q0 117 -50 171.5t-153 54.5q-82 0 -151.5 -38t-110.5 -107.5t-41 -156.5v-571q0 -47 -47 -47h-16q-47 0 -47 47z" />
<glyph unicode="n" horiz-adv-x="1204" d="M154 47v889q0 25 8 36t31 11h20q23 0 31 -11t8 -36v-105q76 84 189.5 133.5t252.5 49.5q168 0 267.5 -85t99.5 -259v-623q0 -47 -47 -47h-17q-47 0 -47 47v617q0 139 -70.5 197.5t-211.5 58.5q-94 0 -187.5 -38t-155 -106.5t-61.5 -152.5v-576q0 -47 -47 -47h-16 q-47 0 -47 47z" />
<glyph unicode="o" horiz-adv-x="1265" d="M113 492q0 242 134 382t386 140t386 -140.5t134 -381.5q0 -242 -134 -382.5t-386 -140.5t-386 140.5t-134 382.5zM219 492q0 -205 106.5 -317t307.5 -112t307.5 112t106.5 317t-106.5 316.5t-307.5 111.5t-307.5 -112t-106.5 -316z" />
<glyph unicode="p" horiz-adv-x="1253" d="M154 -367v1276q68 45 184.5 75t230.5 30q571 0 572 -522q0 -246 -129 -384.5t-344 -138.5q-135 0 -232.5 42t-171.5 134v-512q0 -47 -47 -47h-16q-47 0 -47 47zM264 377q0 -94 53.5 -165t137.5 -108.5t178 -37.5q401 0 401 438q0 221 -114.5 318.5t-350.5 97.5 q-88 0 -171 -16.5t-134 -43.5v-483z" />
<glyph unicode="q" horiz-adv-x="1253" d="M113 463q0 262 149.5 406.5t421.5 144.5q115 0 231.5 -30t184.5 -75v-1276q0 -47 -47 -47h-17q-47 0 -47 47v512q-74 -92 -171 -134t-232 -42q-141 0 -248 59.5t-166 171t-59 263.5zM219 475q0 -409 400 -409h2q94 0 178 37.5t137 108.5t53 165v483q-51 27 -134 43.5 t-171 16.5q-223 0 -344 -111t-121 -334z" />
<glyph unicode="r" horiz-adv-x="761" d="M154 47v889q0 25 8 36t31 11h20q23 0 31 -11t8 -36v-88q55 78 140 122t200 44q25 0 49.5 -4t34.5 -11q16 -10 12 -22l-8 -59q-2 -18 -23 -11q-41 12 -92 13q-129 0 -215 -73t-86 -204v-596q0 -47 -47 -47h-16q-47 0 -47 47z" />
<glyph unicode="s" horiz-adv-x="1036" d="M115 82q-2 6 4 18l26 45q6 12 15 13q4 0 14 -6q63 -41 163.5 -65t192.5 -24q141 0 214 44.5t73 121.5q0 59 -25.5 94t-90 64t-201.5 70q-121 37 -189.5 67.5t-110.5 86t-42 143.5q0 129 102 194.5t268 65.5q106 0 203.5 -25.5t159.5 -70.5q12 -8 14 -14.5t-4 -18.5 l-27 -45q-6 -12 -14 -13q-6 0 -14 7q-125 86 -318 86q-264 0 -264 -166q0 -61 27.5 -96t80 -56.5t169.5 -58.5q18 -4 55 -17q129 -39 197.5 -76.5t99.5 -89t31 -133.5q0 -119 -99.5 -188.5t-294.5 -69.5q-106 0 -217.5 24.5t-183.5 74.5q-12 8 -14 14z" />
<glyph unicode="t" horiz-adv-x="886" d="M72 924v14q0 45 47 45h141v174q0 35 8 61.5t31 71.5q6 12 11 16.5t16 4.5h14q31 0 31 -37v-291h311q47 0 47 -45v-14q0 -23 -11 -32t-36 -9h-311v-588q0 -119 43 -175.5t145 -56.5q59 0 102.5 14.5t90.5 45.5q10 6 14 6q8 0 14 -12l29 -45q4 -8 4 -13q0 -10 -14 -20 q-102 -70 -244 -70q-154 0 -224.5 85t-70.5 235v594h-141q-25 0 -36 9t-11 32z" />
<glyph unicode="u" horiz-adv-x="1183" d="M143 332v604q0 47 47 47h17q47 0 47 -47v-606q0 -139 74.5 -203t218.5 -64q98 0 184 39t137.5 108t51.5 155v571q0 47 47 47h16q47 0 47 -47v-889q0 -25 -8 -36t-31 -11h-20q-23 0 -31 11.5t-8 35.5v109q-74 -90 -171 -138.5t-241 -48.5q-168 0 -272.5 93.5t-104.5 269.5 z" />
<glyph unicode="v" horiz-adv-x="1208" d="M113 958q0 10 8 17.5t20 7.5h39q23 0 33 -8t18 -27l373 -809l373 809q8 18 18.5 26.5t32.5 8.5h39q16 0 24.5 -11t0.5 -26l-428 -911q-10 -18 -19.5 -26.5t-28.5 -8.5h-24q-19 0 -28 8t-19 27l-428 911q-4 8 -4 12z" />
<glyph unicode="w" horiz-adv-x="1609" d="M115 961q0 23 26 22h45q23 0 31 -7t14 -28l246 -786l264 700q6 18 14.5 26.5t26.5 8.5h47q18 0 25.5 -8t13.5 -27l265 -700l245 786q6 20 14.5 27.5t30.5 7.5h45q18 0 23.5 -10t1.5 -27l-295 -911q-6 -20 -14 -27.5t-27 -7.5h-37q-18 0 -25.5 7t-15.5 28l-274 733 l-275 -733q-8 -20 -15 -27.5t-26 -7.5h-36q-19 0 -27 7t-14 28l-295 911q-2 4 -2 15z" />
<glyph unicode="x" horiz-adv-x="1181" d="M113 16q0 10 8 21l405 465l-387 444q-8 10 -8 21q0 16 19 16h59q20 0 27.5 -4t17.5 -16l336 -388l338 388q10 12 17 16t28 4h59q18 0 19 -16q0 -10 -9 -21l-387 -444l406 -465q8 -10 8 -21q0 -16 -18 -16h-60q-20 0 -27.5 4t-17.5 16l-356 408l-354 -408 q-10 -12 -17.5 -16t-28.5 -4h-59q-18 0 -18 16z" />
<glyph unicode="y" horiz-adv-x="1193" d="M116 -243q-3 7 3 18l28 45q6 12 15 12q6 0 14 -6q39 -27 79 -39t91 -12q74 0 117 43t86 147l24 62l-430 919q-4 8 -4 12q0 10 8.5 17.5t20.5 7.5h39q23 0 33 -8t18 -27l373 -809l373 809q8 18 18 26.5t33 8.5h39q16 0 24 -11t0 -26l-454 -971q-51 -111 -92.5 -171 t-95.5 -91.5t-134 -31.5q-123 0 -213 61q-10 8 -13 15z" />
<glyph unicode="z" horiz-adv-x="1144" d="M113 47q0 33 34 70l717 766h-667q-47 0 -47 45v14q0 23 11 32t36 9h782q23 0 34 -13.5t11 -33.5q0 -33 -35 -70l-715 -766h711q47 0 47 -45v-14q0 -23 -11 -32t-36 -9h-827q-23 0 -34 13.5t-11 33.5z" />
<glyph unicode="{" horiz-adv-x="737" d="M72 688v14q0 45 47 46h194v741q0 47 47 47h238q25 0 36 -9t11 -32v-14q0 -45 -47 -45h-174v-1479h174q47 0 47 -45v-14q0 -23 -11 -32t-36 -9h-238q-47 0 -47 47v743h-194q-25 0 -36 9.5t-11 31.5z" />
<glyph unicode="|" horiz-adv-x="335" d="M113 -137v1667q0 47 47 47h16q47 0 47 -47v-1667q0 -47 -47 -47h-16q-47 0 -47 47z" />
<glyph unicode="}" horiz-adv-x="737" d="M92 -88q0 45 47 45h174v1479h-174q-47 0 -47 45v14q0 23 11.5 32t35.5 9h238q47 0 47 -47v-741h194q47 0 48 -46v-14q0 -23 -11.5 -32t-36.5 -9h-194v-743q0 -47 -47 -47h-238q-24 0 -35.5 9t-11.5 32v14z" />
<glyph unicode="~" horiz-adv-x="1165" d="M115 594q0 20 22 45q45 57 99.5 88t130.5 31q63 0 115.5 -21.5t127.5 -66.5q57 -37 99.5 -55.5t85.5 -18.5q47 0 79.5 18.5t65.5 55.5q31 37 61 37q20 0 37 -17q12 -12 13 -24q0 -20 -23 -45q-45 -57 -99.5 -88t-129.5 -31q-62 0 -115 22.5t-125 65.5q-63 37 -104 55.5 t-84 18.5q-47 0 -80 -18.5t-66 -55.5q-31 -37 -61 -37q-20 0 -37 16q-12 12 -12 25z" />
<glyph unicode="&#xa1;" horiz-adv-x="380" d="M113 1288v37q0 29 18.5 48.5t44.5 19.5h29q27 0 45 -19.5t18 -48.5v-37q0 -29 -17.5 -48t-45.5 -19h-29q-26 0 -44.5 19.5t-18.5 47.5zM135 47l12 891q0 25 9.5 35t33.5 10q25 0 34 -10t9 -35l13 -891q0 -47 -47 -47h-17q-47 0 -47 47z" />
<glyph unicode="&#xa2;" horiz-adv-x="1165" d="M113 485q0 150 62.5 267.5t176 186.5t262.5 75v133q0 47 48 47h16q47 0 47 -47v-135q176 -12 297 -97q12 -8 14 -14t-4 -18l-26 -45q-6 -12 -15 -13q-4 0 -14 6q-61 43 -138 66t-190 23q-199 0 -314.5 -117t-115.5 -318q0 -213 118 -317.5t335 -104.5q193 0 319 91 q8 6 15 6q8 0 14 -13l27 -45q4 -12 4 -14q0 -10 -15 -18q-133 -86 -311 -99v-135q0 -47 -47 -47h-16q-48 0 -48 47v135q-238 12 -369.5 145.5t-131.5 368.5z" />
<glyph unicode="&#xa3;" horiz-adv-x="1169" d="M113 45v14q0 23 11 32t36 9q61 0 101 63.5t40 168.5v387h-121q-47 0 -47 45v14q0 23 11.5 32t35.5 9h121v256q0 96 50 176t137 126t192 46q72 0 153.5 -18.5t131.5 -50.5q10 -8 13 -15.5t-3 -17.5l-29 -45q-6 -12 -14 -12q-6 0 -14 6q-43 29 -106.5 44t-127.5 15 q-117 0 -194.5 -70.5t-77.5 -189.5v-250h393q25 0 36 -9t11 -32v-14q0 -45 -47 -45h-393v-367q0 -90 -17.5 -148.5t-62.5 -103.5h678q25 0 36 -9t11 -32v-14q0 -45 -47 -45h-850q-47 0 -47 45z" />
<glyph unicode="&#xa4;" horiz-adv-x="1056" d="M113 264q0 16 20 37l88 86q-82 104 -82 240q0 131 82 239l-88 86q-20 20 -20 37q0 12 14 27l10 10q16 14 31 14q14 0 35 -16l90 -88q104 82 237 82q131 0 236 -82l88 86q16 18 33 18q12 0 33 -16l10 -10q14 -14 14 -27q0 -16 -20 -37l-86 -84q84 -102 84 -239 q0 -135 -84 -242l86 -84q20 -20 20 -37q0 -12 -14 -26l-10 -11q-16 -14 -31 -14q-14 0 -35 16l-88 86q-102 -80 -236 -79q-133 0 -237 81l-90 -88q-20 -16 -35 -16q-14 0 -31 14l-10 11q-14 14 -14 26zM233 627q0 -80 40 -148.5t109 -108.5t148 -40q80 0 149 40t108.5 108.5 t39.5 148.5t-39.5 148.5t-108.5 108.5t-149 40t-148.5 -40t-108.5 -108.5t-40 -148.5z" />
<glyph unicode="&#xa5;" horiz-adv-x="1392" d="M113 1368q0 10 8 17.5t20 7.5h39q23 0 32 -7.5t19 -27.5l465 -799l465 799q10 20 19.5 27.5t31.5 7.5h39q16 0 24.5 -11.5t0.5 -25.5l-465 -797h211q47 0 47 -45v-14q0 -23 -11 -32t-36 -9h-268l-2 -4v-140h270q47 0 47 -45v-14q0 -23 -11 -32t-36 -9h-270v-168 q0 -47 -47 -47h-17q-47 0 -47 47v168h-270q-25 0 -36 9t-11 32v14q0 45 47 45h270v142l-2 2h-268q-25 0 -36 9t-11 32v14q0 45 47 45h211l-465 797q-4 8 -4 12z" />
<glyph unicode="&#xa6;" horiz-adv-x="335" d="M113 283q0 47 47 47h16q47 0 47 -47v-684q0 -47 -47 -48h-16q-47 1 -47 48v684zM113 764v684q0 47 47 47h16q47 0 47 -47v-684q0 -47 -47 -47h-16q-47 0 -47 47z" />
<glyph unicode="&#xa7;" horiz-adv-x="1171" d="M115 -207q-2 6 4 19l26 45q6 12 15 12q6 0 14 -6q66 -39 179.5 -63.5t226.5 -24.5q182 0 277 62.5t95 203.5q0 96 -41 152.5t-118.5 94.5t-231.5 87q-137 45 -222 88t-137 113.5t-52 181.5q0 35 10 75.5t28 67.5q-39 72 -38 160q0 178 120.5 270t319.5 92 q131 0 242.5 -26.5t173.5 -69.5q12 -8 14 -14t-4 -19l-27 -45q-6 -12 -14 -12q-6 0 -14 6q-66 41 -153 63.5t-218 22.5q-334 0 -334 -268q0 -96 42 -150.5t112.5 -86t246.5 -91.5q143 -49 225.5 -92t129.5 -117.5t47 -195.5q0 -63 -29 -131q29 -68 29 -158q0 -172 -123 -265 t-356 -93q-115 0 -245 25.5t-206 72.5q-12 8 -14 14zM252 760q0 -84 37 -134.5t102.5 -81t208.5 -81.5l57 -19q102 -35 173 -67.5t120 -73.5q6 12 6 37q0 94 -39.5 149.5t-116.5 89t-239 85.5q-106 35 -178 65.5t-125 77.5q-6 -18 -6 -47z" />
<glyph unicode="&#xa8;" horiz-adv-x="778" d="M113 1243v27q0 29 19.5 50t47.5 21h29q29 0 48 -21.5t19 -49.5v-27q0 -31 -18 -51.5t-49 -20.5h-29q-28 0 -47.5 21.5t-19.5 50.5zM502 1243v27q0 29 19.5 50t47.5 21h29q29 0 48.5 -21.5t19.5 -49.5v-27q0 -31 -18.5 -51.5t-49.5 -20.5h-29q-28 0 -47.5 21.5t-19.5 50.5 z" />
<glyph unicode="&#xa9;" horiz-adv-x="1679" d="M113 696q0 197 98 364t265 265t364 98t363.5 -98t265 -265t98.5 -364t-98.5 -363.5t-265.5 -265t-363 -98.5q-197 0 -364 98.5t-265 265.5t-98 363zM207 696q0 -174 84 -319.5t229.5 -229.5t319.5 -84t319.5 84t229.5 229.5t84 319.5t-84 319.5t-229.5 229.5t-319.5 84 t-319.5 -84t-229.5 -229.5t-84 -319.5zM326 692q0 154 62.5 272.5t173 184t253.5 65.5q123 0 214 -22.5t167 -75.5q12 -8 14 -14t-4 -19l-26 -45q-6 -12 -15 -12q-4 0 -14 6q-61 43 -138 65.5t-190 22.5q-184 0 -287.5 -113.5t-103.5 -314.5q0 -416 414 -416q193 0 319 91 q10 6 15 6q8 0 14 -13l27 -45q4 -12 4 -14q0 -10 -15 -18q-154 -100 -370 -101q-242 0 -378 131t-136 379z" />
<glyph unicode="&#xaa;" horiz-adv-x="786" d="M113 940q0 92 64.5 141t178.5 49h224v35q0 98 -40 141.5t-134 43.5q-57 0 -99.5 -10.5t-83.5 -32.5l-10 -4q-6 0 -14 14l-23 35q-2 2 -2 8q0 10 21 20q92 43 211 43q141 0 204.5 -65.5t63.5 -202.5v-356q0 -27 -31 -27h-25q-25 0 -28 27l-10 63q-37 -51 -100.5 -79.5 t-137.5 -28.5q-104 0 -166.5 48t-62.5 138zM195 940q0 -113 153 -113q96 0 164 53.5t68 139.5v37h-220q-166 0 -165 -117z" />
<glyph unicode="&#xab;" horiz-adv-x="1193" d="M113 553v16q0 12 7 22.5t13 17.5t10 12l377 403q16 16 31 16q12 0 24 -12l25 -22q14 -12 14 -25q0 -14 -16 -31l-365 -389l365 -389q16 -16 16 -31q0 -12 -14 -24l-25 -23q-12 -12 -24 -12q-14 0 -31 16l-377 404q-4 4 -13 14t-13 18.5t-4 18.5zM580 553v16q0 12 7 22.5 t13 17.5t10 12l377 403q16 16 31 16q12 0 24 -12l25 -22q14 -12 14 -25q0 -14 -16 -31l-365 -389l365 -389q16 -16 16 -31q0 -12 -14 -24l-25 -23q-12 -12 -24 -12q-14 0 -31 16l-377 404q-4 4 -13 14t-13 18.5t-4 18.5z" />
<glyph unicode="&#xac;" horiz-adv-x="970" d="M113 594v14q0 45 47 45h651q47 0 47 -45v-301q0 -47 -47 -47h-16q-47 0 -47 47v246h-588q-25 0 -36 9t-11 32z" />
<glyph unicode="&#xad;" horiz-adv-x="970" d="M113 594v14q0 45 47 45h651q47 0 47 -45v-14q0 -23 -11 -32t-36 -9h-651q-25 0 -36 9t-11 32z" />
<glyph unicode="&#xae;" horiz-adv-x="1679" d="M113 696q0 197 98 364t265 265t364 98t363.5 -98t265 -265t98.5 -364t-98.5 -363.5t-265.5 -265t-363 -98.5q-197 0 -364 98.5t-265 265.5t-98 363zM207 696q0 -174 84 -319.5t229.5 -229.5t319.5 -84t319.5 84t229.5 229.5t84 319.5t-84 319.5t-229.5 229.5t-319.5 84 t-319.5 -84t-229.5 -229.5t-84 -319.5zM512 248v901q0 45 47 45h399q143 0 219 -76t76 -219q0 -242 -256 -287l179 -376q6 -12 6 -19q0 -14 -21 -14h-61q-14 0 -19.5 4t-13.5 18l-178 379h-268v-356q0 -45 -46 -45h-16q-47 0 -47 45zM621 702h307q127 0 174 47.5t47 149.5 q0 111 -44 154t-165 43h-319v-394z" />
<glyph unicode="&#xaf;" horiz-adv-x="888" d="M113 1292v15q0 45 47 45h569q47 0 47 -45v-15q0 -23 -11 -32t-36 -9h-569q-25 0 -36 9.5t-11 31.5z" />
<glyph unicode="&#xb0;" horiz-adv-x="675" d="M113 1200q0 106 60 164.5t165 58.5q104 0 164.5 -58t60.5 -165q0 -106 -60.5 -164.5t-164.5 -58.5q-105 0 -165 58.5t-60 164.5zM195 1200q0 -72 38.5 -110.5t104.5 -38.5q65 0 104 38.5t39 110.5t-39 111t-104 39q-66 0 -104.5 -39t-38.5 -111z" />
<glyph unicode="&#xb1;" horiz-adv-x="929" d="M113 41v14q0 45 47 45h610q47 0 47 -45v-14q0 -23 -11 -32t-36 -9h-610q-25 0 -36 9t-11 32zM113 676v14q0 45 47 45h250v226q0 47 47 47h16q47 0 47 -47v-226h250q47 0 47 -45v-14q0 -23 -11 -32t-36 -9h-250v-225q0 -47 -47 -48h-16q-47 1 -47 48v225h-250q-25 0 -36 9 t-11 32z" />
<glyph unicode="&#xb2;" horiz-adv-x="802" d="M113 612v74q0 76 67.5 140.5t196.5 131.5q88 45 131 80t56.5 69t13.5 85q0 61 -48.5 99t-136.5 38q-113 0 -207 -53q-14 -6 -16 2l-29 61q-2 8 -1 11.5t7 7.5q37 27 110 46t136 19q135 0 213 -65.5t78 -165.5q0 -96 -53 -159.5t-187 -139.5q-127 -72 -176 -113t-49 -94 h445q27 0 26 -29v-47q0 -14 -6 -19t-20 -5h-525q-26 -1 -26 26z" />
<glyph unicode="&#xb3;" horiz-adv-x="804" d="M114 644q-1 3 1 11l28 62q2 8 17 2q94 -53 211 -53t166 36.5t49 114.5q0 76 -40 112t-128 36h-101q-29 0 -28 26v49q0 25 28 25h109q133 0 133 139q0 63 -42 94t-136 31q-113 0 -207 -53q-14 -6 -16 2l-29 61q-2 8 -1 11.5t7 7.5q39 27 108.5 46t137.5 19q141 0 213 -59 t72 -160q0 -70 -28 -115t-91 -73q78 -25 111.5 -73t33.5 -126q0 -113 -77.5 -179.5t-243.5 -66.5q-64 0 -138.5 19.5t-111.5 46.5q-6 4 -7 7z" />
<glyph unicode="&#xb4;" horiz-adv-x="460" d="M113 1194l4 16l104 289q6 16 15.5 22.5t29.5 6.5h56q25 0 24 -17q0 -10 -4 -16l-137 -295q-6 -12 -15.5 -17t-25.5 -5h-31q-20 0 -20 16z" />
<glyph unicode="&#xb5;" horiz-adv-x="1112" d="M113 -313v1249q0 47 47 47h16q47 0 47 -47v-606q0 -139 75 -203t218 -64q98 0 184 39t137.5 108t51.5 155v571q0 47 47 47h16q47 0 47 -47v-889q0 -25 -8 -36t-30 -11h-21q-23 0 -31 11.5t-8 35.5v109q-74 -90 -171 -138.5t-241 -48.5q-174 0 -266 99v-381q0 -47 -47 -47 h-16q-47 0 -47 47z" />
<glyph unicode="&#xb6;" horiz-adv-x="1474" d="M113 977q0 205 126 310.5t367 105.5h709q47 0 47 -45v-15q0 -23 -11.5 -32t-35.5 -9h-178v-1450q0 -47 -47 -47h-17q-47 0 -47 47v1450h-309v-1450q0 -47 -47 -47h-17q-47 0 -47 47v750q-223 0 -358 97t-135 288z" />
<glyph unicode="&#xb7;" horiz-adv-x="380" d="M113 641v27q0 29 18.5 48t44.5 19h29q27 0 45 -19.5t18 -47.5v-27q0 -29 -17.5 -48.5t-45.5 -19.5h-29q-26 0 -44.5 19.5t-18.5 48.5z" />
<glyph unicode="&#xb8;" horiz-adv-x="573" d="M115 -427q-4 5 2 19l16 35q6 16 19 17q2 0 18 -9q41 -25 100 -24q51 0 71.5 17.5t20.5 58.5q0 51 -32.5 66.5t-108.5 15.5h-26q-16 0 -21.5 9t0.5 23l55 140q6 16 15.5 22t29.5 6h54q25 0 24 -16q0 -10 -4 -16l-47 -103q74 0 117 -39t43 -112q0 -78 -51.5 -119 t-139.5 -41q-80 0 -133 33q-18 12 -22 17z" />
<glyph unicode="&#xb9;" horiz-adv-x="792" d="M113 1194q0 18 26 35l254 153q16 10 39 11h12q47 0 48 -47v-660h182q47 0 47 -45v-14q0 -23 -11.5 -32t-35.5 -9h-481q-25 0 -36.5 9t-11.5 32v14q0 45 48 45h188v571l-188 -114q-16 -10 -29 -10q-20 0 -35 24l-8 12q-8 10 -8 25z" />
<glyph unicode="&#xba;" horiz-adv-x="845" d="M113 1087q0 160 81.5 248t229.5 88q145 0 227 -88t82 -248q0 -158 -82 -245.5t-227 -87.5q-148 0 -229.5 88t-81.5 245zM195 1087q0 -127 59 -194.5t170 -67.5q108 0 167.5 68t59.5 194q0 127 -59.5 195t-167.5 68q-111 0 -170 -66.5t-59 -196.5z" />
<glyph unicode="&#xbb;" horiz-adv-x="1193" d="M113 141q0 14 16 31l365 389l-365 389q-16 16 -16 31q0 12 14 25l25 22q12 12 24 12q14 0 31 -16l377 -403q4 -4 13 -14.5t13 -18.5t4 -19v-16q0 -12 -7 -22.5t-13 -17.5t-10 -11l-377 -404q-16 -16 -31 -16q-12 0 -24 12l-25 23q-14 12 -14 24zM580 141q0 14 16 31 l365 389l-365 389q-16 16 -16 31q0 12 14 25l24 22q12 12 25 12q14 0 31 -16l377 -403q4 -4 13 -14.5t13 -18.5t4 -19v-16q0 -12 -7 -22.5t-13 -17.5t-10 -11l-377 -404q-16 -16 -31 -16q-12 0 -25 12l-24 23q-14 12 -14 24z" />
<glyph unicode="&#xbc;" horiz-adv-x="1601" d="M113 1194q0 18 26 35l254 153q16 10 39 11h12q47 0 48 -47v-660h161q47 0 47 -45v-14q0 -23 -11 -32t-36 -9h-460q-25 0 -36.5 9t-11.5 32v14q0 45 48 45h188v571l-188 -114q-16 -10 -29 -10q-20 0 -35 24l-8 12q-8 10 -8 25zM361.5 8q-3.5 8 3.5 19l921 1345 q8 10 14.5 15.5t16.5 5.5h78q14 0 17 -8.5t-3 -18.5l-922 -1346q-8 -10 -14 -15t-16 -5h-78q-14 0 -17.5 8zM823 211v29q0 12 6.5 24t16.5 27l383 491q10 14 17 19.5t20 5.5h55q27 0 27 -27v-489h94q47 0 47 -45v-15q0 -23 -11.5 -32t-35.5 -9h-94v-143q0 -47 -48 -47h-14 q-47 0 -47 47v143h-391q-25 0 -25 21zM969 291h272v350z" />
<glyph unicode="&#xbd;" horiz-adv-x="1777" d="M113 1194q0 18 26 35l254 153q16 10 39 11h12q47 0 48 -47v-660h161q47 0 47 -45v-14q0 -23 -11 -32t-36 -9h-460q-25 0 -36.5 9t-11.5 32v14q0 45 48 45h188v571l-188 -114q-16 -10 -29 -10q-20 0 -35 24l-8 12q-8 10 -8 25zM361.5 8q-3.5 8 3.5 19l921 1345 q8 10 14.5 15.5t16.5 5.5h78q14 0 17 -8.5t-3 -18.5l-922 -1346q-8 -10 -14 -15t-16 -5h-78q-14 0 -17.5 8zM1087 27v73q0 76 68 140.5t197 132.5q88 45 131 79.5t56 68.5t13 85q0 61 -48 99t-136 38q-113 0 -207 -53q-14 -6 -16 2l-29 62q-2 8 -1 11t7 7q37 27 110 46.5 t136 19.5q135 0 213 -65.5t78 -166.5q0 -96 -53.5 -159.5t-186.5 -139.5q-127 -72 -176 -112.5t-49 -94.5h444q27 0 27 -28v-47q0 -14 -6 -19.5t-21 -5.5h-524q-27 0 -27 27z" />
<glyph unicode="&#xbe;" horiz-adv-x="1576" d="M114 642q-1 3 1 11l28 62q2 8 17 2q94 -53 211 -53t166 36.5t49 114.5q0 76 -40 113t-128 37h-101q-29 0 -28 26v49q0 25 28 25h109q133 0 133 139q0 63 -42 94t-136 31q-113 0 -207 -53q-14 -6 -16 2l-29 61q-2 8 -1 11.5t7 7.5q39 27 108.5 46t137.5 19q141 0 213 -59 t72 -160q0 -70 -28 -115t-91 -73q78 -25 111.5 -74t33.5 -127q0 -113 -77.5 -179.5t-243.5 -66.5q-64 0 -138.5 19.5t-111.5 46.5q-6 4 -7 7zM337 8q-3 8 3 19l922 1345q8 10 14 15.5t16 5.5h78q14 0 17.5 -8.5t-3.5 -18.5l-921 -1346q-8 -10 -14.5 -15t-16.5 -5h-78 q-14 0 -17 8zM799 211v29q0 12 6 24t16 27l383 491q10 14 17.5 19.5t19.5 5.5h55q27 0 27 -27v-489h94q47 0 47 -45v-15q0 -23 -11 -32t-36 -9h-94v-143q0 -47 -47 -47h-14q-48 0 -48 47v143h-391q-25 0 -24 21zM944 291h273v350z" />
<glyph unicode="&#xbf;" horiz-adv-x="1097" d="M113 332q0 129 59 207.5t201 152.5q92 49 138 91t63.5 95.5t17.5 139.5v41q0 47 47 47h16q47 0 47 -47v-47q0 -139 -56 -230.5t-179 -154.5q-106 -55 -157.5 -94t-71 -84.5t-19.5 -116.5q0 -129 95.5 -199t238.5 -70q131 0 218 23t153 64q8 6 14 6q8 0 14 -13l27 -45 q4 -6 4 -14q0 -10 -14 -18q-61 -43 -173 -70t-243 -27q-199 0 -319.5 96.5t-120.5 266.5zM569 1292v33q0 29 18.5 48.5t45.5 19.5h29q27 0 45 -19.5t18 -48.5v-33q0 -29 -18.5 -48t-44.5 -19h-29q-29 0 -46.5 19.5t-17.5 47.5z" />
<glyph unicode="&#xc0;" horiz-adv-x="1474" d="M117 37l561 1321q8 20 15 27.5t26 7.5h37q18 0 25 -7.5t16 -27.5l561 -1321q2 -4 2 -12q0 -10 -7 -17.5t-20 -7.5h-39q-23 0 -33 8t-18 27l-156 368h-700l-156 -368q-8 -18 -18 -26.5t-33 -8.5h-39q-16 0 -23 11.5t-1 25.5zM428 504h616l-307 727zM559 1851q0 16 25 17 h55q20 0 29.5 -6.5t15.5 -22.5l104 -289l5 -16q0 -16 -21 -16h-31q-16 0 -25 5t-16 17l-137 295q-4 6 -4 16z" />
<glyph unicode="&#xc1;" horiz-adv-x="1474" d="M117 37l561 1321q8 20 15 27.5t26 7.5h37q18 0 25 -7.5t16 -27.5l561 -1321q2 -4 2 -12q0 -10 -7 -17.5t-20 -7.5h-39q-23 0 -33 8t-18 27l-156 368h-700l-156 -368q-8 -18 -18 -26.5t-33 -8.5h-39q-16 0 -23 11.5t-1 25.5zM428 504h616l-307 727zM715 1534l4 16l104 289 q6 16 15.5 22.5t29.5 6.5h56q25 0 24 -17q0 -10 -4 -16l-137 -295q-6 -12 -15.5 -17t-25.5 -5h-31q-20 0 -20 16z" />
<glyph unicode="&#xc2;" horiz-adv-x="1474" d="M117 37l561 1321q8 20 15 27.5t26 7.5h37q18 0 25 -7.5t16 -27.5l561 -1321q2 -4 2 -12q0 -10 -7 -17.5t-20 -7.5h-39q-23 0 -33 8t-18 27l-156 368h-700l-156 -368q-8 -18 -18 -26.5t-33 -8.5h-39q-16 0 -23 11.5t-1 25.5zM428 504h616l-307 727zM447.5 1515.5 q-9.5 12.5 1.5 24.5l229 320q16 23 23.5 28.5t23.5 5.5h25q16 0 23 -6t24 -28l229 -320q4 -4 4 -14t-8 -16.5t-21 -6.5h-38q-23 0 -31 7.5t-23 27.5l-172 250l-172 -250q-14 -20 -22 -27.5t-31 -7.5h-39q-16 0 -25.5 12.5z" />
<glyph unicode="&#xc3;" horiz-adv-x="1474" d="M117 37l561 1321q8 20 15 27.5t26 7.5h37q18 0 25 -7.5t16 -27.5l561 -1321q2 -4 2 -12q0 -10 -7 -17.5t-20 -7.5h-39q-23 0 -33 8t-18 27l-156 368h-700l-156 -368q-8 -18 -18 -26.5t-33 -8.5h-39q-16 0 -23 11.5t-1 25.5zM350 1581q0 16 21 43q80 98 213 98 q59 0 97 -16t81 -49q37 -27 62.5 -39t64.5 -12q47 0 79.5 15t59.5 48q27 31 47 31q18 0 37 -19q14 -14 14 -28q0 -16 -20 -43q-80 -98 -213 -99q-55 0 -93 16.5t-83 49.5q-39 27 -65.5 39t-63.5 12q-47 0 -80 -15.5t-59 -47.5q-27 -31 -48 -31q-18 0 -36 18q-14 14 -15 29z M428 504h616l-307 727z" />
<glyph unicode="&#xc4;" horiz-adv-x="1474" d="M117 37l561 1321q8 20 15 27.5t26 7.5h37q18 0 25 -7.5t16 -27.5l561 -1321q2 -4 2 -12q0 -10 -7 -17.5t-20 -7.5h-39q-23 0 -33 8t-18 27l-156 368h-700l-156 -368q-8 -18 -18 -26.5t-33 -8.5h-39q-16 0 -23 11.5t-1 25.5zM428 504h616l-307 727zM471 1583v27 q0 29 19.5 50t48.5 21h28q29 0 48.5 -21.5t19.5 -49.5v-27q0 -31 -18.5 -51.5t-49.5 -20.5h-28q-29 0 -48.5 21.5t-19.5 50.5zM840 1583v27q0 29 19.5 50t47.5 21h29q29 0 48.5 -21.5t19.5 -49.5v-27q0 -31 -18.5 -51.5t-49.5 -20.5h-29q-28 0 -47.5 21.5t-19.5 50.5z" />
<glyph unicode="&#xc5;" horiz-adv-x="1474" d="M117 37l547 1286q-68 23 -109 80t-41 131q0 94 64.5 159.5t158.5 65.5t160 -65.5t66 -159.5q0 -72 -42 -130t-110 -81l547 -1286q2 -4 2 -12q0 -10 -7 -17.5t-20 -7.5h-39q-23 0 -33 8t-18 27l-156 368h-700l-156 -368q-8 -18 -18 -26.5t-33 -8.5h-39q-16 0 -23 11.5 t-1 25.5zM428 504h616l-307 727zM596 1534q0 -57 42 -99t99 -42q59 0 100.5 42t41.5 99q0 59 -41 100t-101 41q-57 0 -99 -41t-42 -100z" />
<glyph unicode="&#xc6;" horiz-adv-x="1857" d="M117 37l561 1321q8 20 15 27.5t26 7.5h979q25 0 36 -9.5t11 -31.5v-15q0 -45 -47 -45h-697v-544h519q25 0 36 -9.5t11 -31.5v-15q0 -45 -47 -45h-519v-547h697q47 0 47 -45v-14q0 -23 -11.5 -32t-35.5 -9h-760q-47 0 -47 47v356h-504l-156 -368q-8 -18 -18 -26.5 t-33 -8.5h-39q-16 0 -23 11.5t-1 25.5zM428 504h463v788h-135z" />
<glyph unicode="&#xc7;" horiz-adv-x="1382" d="M113 696q0 344 180 535.5t512 191.5q123 0 233.5 -24.5t186.5 -73.5q12 -8 14 -14t-4 -19l-27 -45q-6 -12 -14 -12q-4 0 -14 6q-61 41 -157.5 64.5t-215.5 23.5q-272 0 -430 -155.5t-158 -477.5q0 -319 161 -476t427 -157q133 0 229.5 23t171.5 70q10 6 15 6q8 0 14 -12 l27 -46q4 -12 4 -14q0 -10 -15 -18q-145 -92 -395 -103l-4 -12l-47 -102q74 0 117 -39t43 -113q0 -78 -51.5 -119t-139.5 -41q-80 0 -133 33q-18 12 -22.5 17.5t2.5 19.5l16 35q6 16 18 16q2 0 19 -8q41 -25 100 -25q51 0 71.5 17.5t20.5 58.5q0 51 -32.5 66.5t-108.5 15.5 h-27q-16 0 -21 9t1 24l55 139q2 2 2 5t2 5q-301 20 -463.5 210t-162.5 515z" />
<glyph unicode="&#xc8;" horiz-adv-x="1191" d="M154 47v1299q0 47 47 47h852q25 0 36 -9.5t11 -31.5v-15q0 -45 -47 -45h-789v-544h610q25 0 36.5 -9.5t11.5 -31.5v-15q0 -45 -48 -45h-610v-547h789q47 0 47 -45v-14q0 -23 -11.5 -32t-35.5 -9h-852q-47 0 -47 47zM455 1901q0 16 24 16h56q20 0 29 -6t16 -23l104 -289 l4 -16q0 -16 -20 -16h-31q-16 0 -25.5 5t-15.5 17l-137 295q-4 6 -4 17z" />
<glyph unicode="&#xc9;" horiz-adv-x="1191" d="M154 47v1299q0 47 47 47h852q25 0 36 -9.5t11 -31.5v-15q0 -45 -47 -45h-789v-544h610q25 0 36.5 -9.5t11.5 -31.5v-15q0 -45 -48 -45h-610v-547h789q47 0 47 -45v-14q0 -23 -11.5 -32t-35.5 -9h-852q-47 0 -47 47zM565 1583l4 16l105 289q6 16 15 22.5t30 6.5h55 q25 0 25 -16q0 -10 -4 -17l-138 -295q-6 -12 -15 -17t-26 -5h-30q-21 0 -21 16z" />
<glyph unicode="&#xca;" horiz-adv-x="1191" d="M154 47v1299q0 47 47 47h852q25 0 36 -9.5t11 -31.5v-15q0 -45 -47 -45h-789v-544h610q25 0 36.5 -9.5t11.5 -31.5v-15q0 -45 -48 -45h-610v-547h789q47 0 47 -45v-14q0 -23 -11.5 -32t-35.5 -9h-852q-47 0 -47 47zM326.5 1564.5q-9.5 12.5 1.5 24.5l229 320 q16 23 23.5 29t23.5 6h25q16 0 23 -6.5t24 -28.5l229 -320q4 -4 4 -14t-8 -16.5t-20 -6.5h-39q-23 0 -31 7.5t-23 27.5l-172 250l-172 -250q-14 -20 -22 -27.5t-31 -7.5h-39q-16 0 -25.5 12.5z" />
<glyph unicode="&#xcb;" horiz-adv-x="1191" d="M154 47v1299q0 47 47 47h852q25 0 36 -9.5t11 -31.5v-15q0 -45 -47 -45h-789v-544h610q25 0 36.5 -9.5t11.5 -31.5v-15q0 -45 -48 -45h-610v-547h789q47 0 47 -45v-14q0 -23 -11.5 -32t-35.5 -9h-852q-47 0 -47 47zM352 1632v27q0 29 19.5 50.5t48.5 21.5h29 q29 0 48 -21.5t19 -50.5v-27q0 -31 -18.5 -51t-48.5 -20h-29q-29 0 -48.5 21.5t-19.5 49.5zM721 1632v27q0 29 19.5 50.5t47.5 21.5h29q29 0 48.5 -21.5t19.5 -50.5v-27q0 -31 -18.5 -51t-49.5 -20h-29q-28 0 -47.5 21.5t-19.5 49.5z" />
<glyph unicode="&#xcc;" horiz-adv-x="417" d="M12 1901q0 16 25 16h55q20 0 29.5 -6t15.5 -23l105 -289l4 -16q0 -16 -21 -16h-30q-17 0 -26 5t-15 17l-138 295q-4 6 -4 17zM154 47v1299q0 47 47 47h16q47 0 47 -47v-1299q0 -47 -47 -47h-16q-47 0 -47 47z" />
<glyph unicode="&#xcd;" horiz-adv-x="417" d="M154 47v1299q0 47 47 47h16q47 0 47 -47v-1299q0 -47 -47 -47h-16q-47 0 -47 47zM168 1583l4 16l104 289q6 16 15.5 22.5t30.5 6.5h55q25 0 24 -16q0 -10 -4 -17l-137 -295q-6 -12 -15 -17t-26 -5h-31q-20 0 -20 16z" />
<glyph unicode="&#xce;" horiz-adv-x="417" d="M-81 1579q-9 12 1 25l230 319q16 23 23 29t24 6h24q16 0 23.5 -6t23.5 -29l230 -319q4 -4 4 -15q0 -10 -8.5 -16t-20.5 -6h-39q-23 0 -31 7t-22 28l-172 249l-172 -249q-14 -20 -22.5 -27.5t-30.5 -7.5h-39q-17 0 -26 12zM154 47v1299q0 47 47 47h16q47 0 47 -47v-1299 q0 -47 -47 -47h-16q-47 0 -47 47z" />
<glyph unicode="&#xcf;" horiz-adv-x="417" d="M-57 1577v27q0 29 19.5 50t47.5 21h29q29 0 48 -21.5t19 -49.5v-27q0 -31 -18 -51.5t-49 -20.5h-29q-28 0 -47.5 21.5t-19.5 50.5zM154 47v1299q0 47 47 47h16q47 0 47 -47v-1299q0 -47 -47 -47h-16q-47 0 -47 47zM311 1577v27q0 29 19.5 50t48.5 21h29q29 0 48 -21.5 t19 -49.5v-27q0 -31 -18.5 -51.5t-48.5 -20.5h-29q-29 0 -48.5 21.5t-19.5 50.5z" />
<glyph unicode="&#xd0;" horiz-adv-x="1488" d="M72 688v14q0 45 47 46h137v598q0 47 47 47h369q338 0 521 -163t183 -534t-183 -533.5t-521 -162.5h-369q-47 0 -47 47v600h-137q-25 0 -36 9.5t-11 31.5zM367 100h317q287 0 436.5 136.5t149.5 459.5q0 324 -149.5 460t-436.5 136h-317v-544h403q47 0 47 -46v-14 q0 -23 -11 -32t-36 -9h-403v-547z" />
<glyph unicode="&#xd1;" horiz-adv-x="1425" d="M154 47v1299q0 47 47 47h28q18 0 28.5 -6.5t25.5 -24.5l878 -1196v1180q0 47 47 47h17q47 0 47 -47v-1299q0 -47 -47 -47h-29q-18 0 -28.5 6t-24.5 25l-879 1192v-1176q0 -47 -47 -47h-16q-47 0 -47 47zM313 1630q0 16 21 43q80 98 213 99q59 0 97 -16.5t81 -49.5 q37 -27 62.5 -39t64.5 -12q47 0 80 15.5t59 47.5q27 31 47 31q18 0 37 -18q14 -14 15 -29q0 -16 -21 -43q-80 -98 -213 -98q-55 0 -93 16t-83 49q-39 27 -65.5 39t-63.5 12q-47 0 -80 -15t-59 -48q-27 -31 -47 -31q-18 0 -37 19q-14 14 -15 28z" />
<glyph unicode="&#xd2;" horiz-adv-x="1572" d="M113 696q0 227 79.5 391t231 250t362.5 86t362.5 -86t231.5 -249.5t80 -391.5q0 -227 -80 -391t-231.5 -250t-362.5 -86t-362.5 86t-231 250t-79.5 391zM219 696q0 -307 149.5 -470t417.5 -163q269 0 418.5 163t149.5 470t-149.5 470t-418.5 163q-268 0 -417.5 -162.5 t-149.5 -470.5zM627 1901q0 16 24 16h56q20 0 29 -6t16 -23l104 -289l4 -16q0 -16 -20 -16h-31q-16 0 -25.5 5t-15.5 17l-137 295q-4 6 -4 17z" />
<glyph unicode="&#xd3;" horiz-adv-x="1572" d="M113 696q0 227 79.5 391t231 250t362.5 86t362.5 -86t231.5 -249.5t80 -391.5q0 -227 -80 -391t-231.5 -250t-362.5 -86t-362.5 86t-231 250t-79.5 391zM219 696q0 -307 149.5 -470t417.5 -163q269 0 418.5 163t149.5 470t-149.5 470t-418.5 163q-268 0 -417.5 -162.5 t-149.5 -470.5zM739 1583l4 16l105 289q6 16 15 22.5t30 6.5h55q25 0 25 -16q0 -10 -4 -17l-138 -295q-6 -12 -15 -17t-25 -5h-31q-21 0 -21 16z" />
<glyph unicode="&#xd4;" horiz-adv-x="1572" d="M113 696q0 227 79.5 391t231 250t362.5 86t362.5 -86t231.5 -249.5t80 -391.5q0 -227 -80 -391t-231.5 -250t-362.5 -86t-362.5 86t-231 250t-79.5 391zM219 696q0 -307 149.5 -470t417.5 -163q269 0 418.5 163t149.5 470t-149.5 470t-418.5 163q-268 0 -417.5 -162.5 t-149.5 -470.5zM496.5 1564.5q-9.5 12.5 1.5 24.5l229 320q16 23 23.5 29t23.5 6h25q16 0 23 -6.5t24 -28.5l229 -320q4 -4 4 -14t-8 -16.5t-20 -6.5h-39q-23 0 -31 7.5t-23 27.5l-172 250l-172 -250q-14 -20 -22 -27.5t-31 -7.5h-39q-16 0 -25.5 12.5z" />
<glyph unicode="&#xd5;" horiz-adv-x="1572" d="M113 696q0 227 79.5 391t231 250t362.5 86t362.5 -86t231.5 -249.5t80 -391.5q0 -227 -80 -391t-231.5 -250t-362.5 -86t-362.5 86t-231 250t-79.5 391zM219 696q0 -307 149.5 -470t417.5 -163q269 0 418.5 163t149.5 470t-149.5 470t-418.5 163q-268 0 -417.5 -162.5 t-149.5 -470.5zM399 1630q0 16 21 43q80 98 213 99q59 0 97 -16.5t81 -49.5q37 -27 62.5 -39t64.5 -12q47 0 80 15.5t59 47.5q27 31 47 31q18 0 37 -18q14 -14 15 -29q0 -16 -21 -43q-80 -98 -213 -98q-55 0 -93 16t-83 49q-39 27 -65.5 39t-63.5 12q-47 0 -80 -15t-59 -48 q-27 -31 -47 -31q-18 0 -37 19q-14 14 -15 28z" />
<glyph unicode="&#xd6;" horiz-adv-x="1572" d="M113 696q0 227 79.5 391t231 250t362.5 86t362.5 -86t231.5 -249.5t80 -391.5q0 -227 -80 -391t-231.5 -250t-362.5 -86t-362.5 86t-231 250t-79.5 391zM219 696q0 -307 149.5 -470t417.5 -163q269 0 418.5 163t149.5 470t-149.5 470t-418.5 163q-268 0 -417.5 -162.5 t-149.5 -470.5zM520 1632v27q0 29 19.5 50.5t48.5 21.5h28q29 0 48.5 -21.5t19.5 -50.5v-27q0 -31 -18.5 -51t-49.5 -20h-28q-29 0 -48.5 21.5t-19.5 49.5zM889 1632v27q0 29 19.5 50.5t47.5 21.5h29q29 0 48.5 -21.5t19.5 -50.5v-27q0 -31 -18.5 -51t-49.5 -20h-29 q-28 0 -47.5 21.5t-19.5 49.5z" />
<glyph unicode="&#xd7;" horiz-adv-x="786" d="M113 821q0 16 16 33l12 12q16 16 33 17q16 0 33 -17l186 -186l187 186q16 16 32 17q16 0 33 -17l12 -12q16 -16 17 -33q0 -16 -17 -33l-186 -186l184 -184q16 -14 17 -33q0 -16 -17 -33l-12 -12q-16 -16 -33 -16q-16 0 -32 16l-185 184l-184 -184q-16 -16 -33 -16 q-12 0 -33 16l-12 12q-16 20 -16 33q0 16 16 33l184 184l-186 186q-16 16 -16 33z" />
<glyph unicode="&#xd8;" horiz-adv-x="1572" d="M113 696q0 227 79.5 391t231 250t362.5 86q123 0 228 -30l51 125q8 20 31 20h67q27 0 15 -27l-64 -155q168 -80 257 -249t89 -411q0 -227 -80 -391t-231.5 -250t-362.5 -86q-125 0 -229 31l-63 -156q-8 -20 -31 -20h-68q-27 0 -14 26l78 187q-168 82 -257 250t-89 409z M219 696q0 -211 71.5 -354t205.5 -213l481 1176q-86 25 -191 24q-268 0 -417.5 -162.5t-149.5 -470.5zM594 88q90 -25 192 -25q269 0 418.5 163t149.5 470q0 211 -72 354.5t-205 215.5z" />
<glyph unicode="&#xd9;" horiz-adv-x="1466" d="M143 481v865q0 47 47 47h17q47 0 47 -47v-873q0 -197 134 -303.5t345 -106.5t345 106.5t134 303.5v873q0 47 48 47h16q47 0 47 -47v-865q0 -156 -74.5 -271.5t-209 -178t-306.5 -62.5t-306 62.5t-209 178.5t-75 271zM563 1901q0 16 25 16h55q20 0 29.5 -6t15.5 -23 l105 -289l4 -16q0 -16 -21 -16h-31q-16 0 -25 5t-15 17l-138 295q-4 6 -4 17z" />
<glyph unicode="&#xda;" horiz-adv-x="1466" d="M143 481v865q0 47 47 47h17q47 0 47 -47v-873q0 -197 134 -303.5t345 -106.5t345 106.5t134 303.5v873q0 47 48 47h16q47 0 47 -47v-865q0 -156 -74.5 -271.5t-209 -178t-306.5 -62.5t-306 62.5t-209 178.5t-75 271zM696 1583l4 16l105 289q6 16 15 22.5t30 6.5h55 q25 0 25 -16q0 -10 -4 -17l-138 -295q-6 -12 -15 -17t-25 -5h-31q-21 0 -21 16z" />
<glyph unicode="&#xdb;" horiz-adv-x="1466" d="M143 481v865q0 47 47 47h17q47 0 47 -47v-873q0 -197 134 -303.5t345 -106.5t345 106.5t134 303.5v873q0 47 48 47h16q47 0 47 -47v-865q0 -156 -74.5 -271.5t-209 -178t-306.5 -62.5t-306 62.5t-209 178.5t-75 271zM443.5 1564.5q-9.5 12.5 0.5 24.5l230 320 q16 23 23.5 29t23.5 6h24q16 0 23.5 -6.5t24.5 -28.5l229 -320q4 -4 4 -14t-8 -16.5t-21 -6.5h-39q-23 0 -30.5 7.5t-22.5 27.5l-172 250l-172 -250q-14 -20 -22.5 -27.5t-30.5 -7.5h-39q-16 0 -25.5 12.5z" />
<glyph unicode="&#xdc;" horiz-adv-x="1466" d="M143 481v865q0 47 47 47h17q47 0 47 -47v-873q0 -197 134 -303.5t345 -106.5t345 106.5t134 303.5v873q0 47 48 47h16q47 0 47 -47v-865q0 -156 -74.5 -271.5t-209 -178t-306.5 -62.5t-306 62.5t-209 178.5t-75 271zM467 1632v27q0 29 19.5 50.5t48.5 21.5h28 q29 0 48.5 -21.5t19.5 -50.5v-27q0 -31 -18.5 -51t-49.5 -20h-28q-29 0 -48.5 21.5t-19.5 49.5zM836 1632v27q0 29 19 50.5t48 21.5h29q29 0 48 -21.5t19 -50.5v-27q0 -31 -18 -51t-49 -20h-29q-29 0 -48 21.5t-19 49.5z" />
<glyph unicode="&#xdd;" horiz-adv-x="1392" d="M113 1368q0 10 8 17.5t20 7.5h39q23 0 32 -7.5t19 -27.5l465 -799l465 799q10 20 19.5 27.5t31.5 7.5h39q16 0 24.5 -11.5t0.5 -25.5l-524 -901v-408q0 -47 -47 -47h-17q-47 0 -47 47v410l-524 899q-4 8 -4 12zM627 1583l4 16l104 289q6 16 15.5 22.5t29.5 6.5h56 q25 0 24 -16q0 -10 -4 -17l-137 -295q-6 -12 -15.5 -17t-25.5 -5h-31q-20 0 -20 16z" />
<glyph unicode="&#xde;" horiz-adv-x="1294" d="M154 47v1299q0 47 47 47h16q47 0 47 -47v-207h484q213 0 323.5 -118t110.5 -325t-110.5 -324.5t-326.5 -117.5h-481v-207q0 -47 -47 -47h-16q-47 0 -47 47zM264 354h492q164 0 241.5 85t77.5 257t-77.5 257t-241.5 85h-492v-684z" />
<glyph unicode="&#xdf;" horiz-adv-x="1314" d="M143 47v936q0 219 121 355.5t385 136.5t386 -112t122 -286q0 -104 -56.5 -196.5t-154.5 -132.5q131 -39 193.5 -141.5t62.5 -231.5q0 -106 -50 -199.5t-148.5 -150t-233.5 -56.5q-226 1 -373 97q-12 8 -14 15t4 17l27 45q6 10 12 12.5t16 -5.5q57 -41 142.5 -64 t179.5 -23q162 0 247 88.5t85 223.5q0 158 -88 239.5t-256 81.5h-199q-47 0 -47 45v15q0 23 11 32t36 9h213q90 0 154.5 40t97.5 104.5t33 135.5q0 141 -98.5 219t-307.5 78q-205 0 -298 -102.5t-93 -298.5v-926q0 -47 -47 -47h-17q-47 0 -47 47z" />
<glyph unicode="&#xe0;" horiz-adv-x="1253" d="M113 426q0 176 68.5 308t200.5 206t314 74q113 0 222.5 -33t181.5 -82v-852q0 -47 -47 -47h-15q-23 0 -32 11.5t-11 35.5l-6 98q-139 -176 -422 -176q-209 0 -331.5 119t-122.5 338zM219 438q0 -193 95.5 -284t293.5 -91q94 0 182.5 38t143.5 110t55 166v473 q-53 31 -132 50.5t-161 19.5q-221 0 -349 -127t-128 -355zM555 1450q0 16 25 16h55q20 0 29.5 -6t15.5 -22l104 -289l4 -16q0 -16 -20 -17h-31q-16 0 -25.5 5t-15.5 18l-137 295q-4 6 -4 16z" />
<glyph unicode="&#xe1;" horiz-adv-x="1253" d="M113 426q0 176 68.5 308t200.5 206t314 74q113 0 222.5 -33t181.5 -82v-852q0 -47 -47 -47h-15q-23 0 -32 11.5t-11 35.5l-6 98q-139 -176 -422 -176q-209 0 -331.5 119t-122.5 338zM219 438q0 -193 95.5 -284t293.5 -91q94 0 182.5 38t143.5 110t55 166v473 q-53 31 -132 50.5t-161 19.5q-221 0 -349 -127t-128 -355zM612 1133l4 16l105 289q6 16 15 22t30 6h55q25 0 25 -16q0 -10 -4 -16l-137 -295q-6 -12 -15.5 -17.5t-25.5 -5.5h-31q-21 1 -21 17z" />
<glyph unicode="&#xe2;" horiz-adv-x="1253" d="M113 426q0 176 68.5 308t200.5 206t314 74q113 0 222.5 -33t181.5 -82v-852q0 -47 -47 -47h-15q-23 0 -32 11.5t-11 35.5l-6 98q-139 -176 -422 -176q-209 0 -331.5 119t-122.5 338zM219 438q0 -193 95.5 -284t293.5 -91q94 0 182.5 38t143.5 110t55 166v473 q-53 31 -132 50.5t-161 19.5q-221 0 -349 -127t-128 -355zM369.5 1114q-9.5 12 1.5 25l229 319q16 23 23.5 29t23.5 6h25q16 0 23 -6t24 -29l229 -319q4 -4 4 -15q0 -10 -8 -16t-20 -6h-39q-23 0 -31 7t-23 28l-172 249l-172 -249q-14 -20 -22 -27.5t-31 -7.5h-39 q-16 0 -25.5 12z" />
<glyph unicode="&#xe3;" horiz-adv-x="1253" d="M113 426q0 176 68.5 308t200.5 206t314 74q113 0 222.5 -33t181.5 -82v-852q0 -47 -47 -47h-15q-23 0 -32 11.5t-11 35.5l-6 98q-139 -176 -422 -176q-209 0 -331.5 119t-122.5 338zM219 438q0 -193 95.5 -284t293.5 -91q94 0 182.5 38t143.5 110t55 166v473 q-53 31 -132 50.5t-161 19.5q-221 0 -349 -127t-128 -355zM291 1221q0 16 20 43q80 98 213 98q59 0 97 -16.5t81 -49.5q37 -27 63 -39t64 -12q47 0 80 15.5t60 48.5q27 31 47 30q18 0 37 -18q14 -14 14 -29q0 -16 -20 -43q-80 -98 -213 -98q-56 0 -94 16.5t-83 49.5 q-39 27 -65.5 39t-63.5 12q-47 0 -79.5 -15.5t-59.5 -48.5q-27 -31 -47 -30q-18 0 -37 18q-14 14 -14 29z" />
<glyph unicode="&#xe4;" horiz-adv-x="1253" d="M113 426q0 176 68.5 308t200.5 206t314 74q113 0 222.5 -33t181.5 -82v-852q0 -47 -47 -47h-15q-23 0 -32 11.5t-11 35.5l-6 98q-139 -176 -422 -176q-209 0 -331.5 119t-122.5 338zM219 438q0 -193 95.5 -284t293.5 -91q94 0 182.5 38t143.5 110t55 166v473 q-53 31 -132 50.5t-161 19.5q-221 0 -349 -127t-128 -355zM430 1223v26q0 29 19.5 50.5t48.5 21.5h28q29 0 48.5 -21.5t19.5 -50.5v-26q0 -31 -18.5 -51.5t-49.5 -20.5h-28q-29 0 -48.5 21.5t-19.5 50.5zM799 1223v26q0 29 19.5 50.5t47.5 21.5h29q29 0 48.5 -21.5 t19.5 -50.5v-26q0 -31 -18.5 -51.5t-49.5 -20.5h-29q-28 0 -47.5 21.5t-19.5 50.5z" />
<glyph unicode="&#xe5;" horiz-adv-x="1253" d="M113 426q0 176 68.5 308t200.5 206t314 74q113 0 222.5 -33t181.5 -82v-852q0 -47 -47 -47h-15q-23 0 -32 11.5t-11 35.5l-6 98q-139 -176 -422 -176q-209 0 -331.5 119t-122.5 338zM219 438q0 -193 95.5 -284t293.5 -91q94 0 182.5 38t143.5 110t55 166v473 q-53 31 -132 50.5t-161 19.5q-221 0 -349 -127t-128 -355zM440 1307q0 94 64.5 159.5t159.5 65.5q94 0 159.5 -65.5t65.5 -159.5t-65.5 -159t-159.5 -65q-95 0 -159.5 64.5t-64.5 159.5zM522 1307q0 -57 42 -99.5t100 -42.5q59 0 100 42t41 100q0 59 -41 100t-100 41 q-57 0 -99.5 -41t-42.5 -100z" />
<glyph unicode="&#xe6;" horiz-adv-x="1990" d="M113 256q0 158 102 233.5t287 75.5h387v47q0 111 -25.5 177.5t-94.5 99.5t-196 33q-98 0 -160.5 -15.5t-146.5 -46.5l-16 -4q-16 0 -25 23l-14 34q-2 4 -2 13q0 18 31 28q168 61 333 62q168 0 257.5 -54.5t136.5 -166.5q57 106 164.5 162.5t254.5 56.5q492 0 492 -531 q0 -18 -10 -29.5t-31 -11.5h-838q0 -182 111 -280.5t313 -98.5q96 0 181.5 23t144.5 64q8 6 14 6q8 0 15 -13l26 -45q4 -6 4 -14t-14 -18q-76 -49 -179.5 -73t-207.5 -24q-319 0 -453 236q-61 -117 -189 -176.5t-290 -59.5t-262 71t-100 216zM219 256q0 -98 63.5 -145.5 t200.5 -47.5q176 0 291 71t115 208v123h-404q-131 0 -198.5 -50t-67.5 -159zM999 543h773q0 184 -95.5 280.5t-290.5 96.5q-387 0 -387 -377z" />
<glyph unicode="&#xe7;" horiz-adv-x="1165" d="M113 485q0 154 66.5 275t186 187.5t275.5 66.5q123 0 214 -22.5t167 -76.5q12 -8 14 -14t-4 -18l-26 -45q-6 -12 -15 -13q-4 0 -14 6q-61 43 -138 66t-190 23q-199 0 -314.5 -117t-115.5 -318q0 -213 118 -317.5t335 -104.5q193 0 319 91q8 6 15 6q8 0 14 -13l27 -45 q4 -12 4 -14q0 -10 -15 -18q-127 -84 -299 -99q0 -2 -4 -14l-47 -102q74 0 117 -39t43 -113q0 -78 -51.5 -119t-139.5 -41q-80 0 -133 33q-18 12 -22 17.5t2 19.5l16 35q6 16 19 16q2 0 18 -8q41 -25 100 -25q51 0 72 17.5t21 58.5q0 51 -33 66.5t-109 15.5h-26 q-16 0 -21.5 9t0.5 24l55 139l4 10q-238 10 -371.5 143.5t-133.5 370.5z" />
<glyph unicode="&#xe8;" horiz-adv-x="1232" d="M113 471q0 266 135 404.5t381 138.5q492 0 491 -531q0 -18 -10 -29.5t-31 -11.5h-858q0 -186 118 -282.5t327 -96.5q96 0 181 23t144 64q8 6 15 6q8 0 14 -13l27 -45q4 -6 4 -14t-15 -18q-76 -49 -179 -73t-208 -24q-233 0 -384.5 123t-151.5 379zM221 543h793 q0 180 -96.5 278.5t-288.5 98.5q-195 0 -301.5 -102.5t-106.5 -274.5zM481 1450q0 16 25 16h55q20 0 29.5 -6t15.5 -22l105 -289l4 -16q0 -16 -21 -17h-30q-17 0 -26 5t-15 18l-138 295q-4 6 -4 16z" />
<glyph unicode="&#xe9;" horiz-adv-x="1232" d="M113 471q0 266 135 404.5t381 138.5q492 0 491 -531q0 -18 -10 -29.5t-31 -11.5h-858q0 -186 118 -282.5t327 -96.5q96 0 181 23t144 64q8 6 15 6q8 0 14 -13l27 -45q4 -6 4 -14t-15 -18q-76 -49 -179 -73t-208 -24q-233 0 -384.5 123t-151.5 379zM221 543h793 q0 180 -96.5 278.5t-288.5 98.5q-195 0 -301.5 -102.5t-106.5 -274.5zM553 1133l4 16l105 289q6 16 15 22t30 6h55q25 0 24 -16q0 -10 -4 -16l-137 -295q-6 -12 -15 -17.5t-26 -5.5h-31q-20 1 -20 17z" />
<glyph unicode="&#xea;" horiz-adv-x="1232" d="M113 471q0 266 135 404.5t381 138.5q492 0 491 -531q0 -18 -10 -29.5t-31 -11.5h-858q0 -186 118 -282.5t327 -96.5q96 0 181 23t144 64q8 6 15 6q8 0 14 -13l27 -45q4 -6 4 -14t-15 -18q-76 -49 -179 -73t-208 -24q-233 0 -384.5 123t-151.5 379zM221 543h793 q0 180 -96.5 278.5t-288.5 98.5q-195 0 -301.5 -102.5t-106.5 -274.5zM347 1114q-9 12 1 25l230 319q16 23 23 29t24 6h24q16 0 23.5 -6t23.5 -29l230 -319q4 -4 4 -15q0 -10 -8.5 -16t-20.5 -6h-39q-23 0 -31 7t-22 28l-172 249l-172 -249q-14 -20 -22.5 -27.5t-30.5 -7.5 h-39q-17 0 -26 12z" />
<glyph unicode="&#xeb;" horiz-adv-x="1232" d="M113 471q0 266 135 404.5t381 138.5q492 0 491 -531q0 -18 -10 -29.5t-31 -11.5h-858q0 -186 118 -282.5t327 -96.5q96 0 181 23t144 64q8 6 15 6q8 0 14 -13l27 -45q4 -6 4 -14t-15 -18q-76 -49 -179 -73t-208 -24q-233 0 -384.5 123t-151.5 379zM221 543h793 q0 180 -96.5 278.5t-288.5 98.5q-195 0 -301.5 -102.5t-106.5 -274.5zM367 1182v26q0 29 19.5 50.5t47.5 21.5h29q29 0 48 -21.5t19 -50.5v-26q0 -31 -18 -51.5t-49 -20.5h-29q-28 0 -47.5 21.5t-19.5 50.5zM735 1182v26q0 29 19.5 50.5t48.5 21.5h28q29 0 48.5 -21.5 t19.5 -50.5v-26q0 -31 -18.5 -51.5t-49.5 -20.5h-28q-29 0 -48.5 21.5t-19.5 50.5z" />
<glyph unicode="&#xec;" horiz-adv-x="417" d="M27 1511q0 16 24 17h55q20 0 29.5 -6t16.5 -23l104 -289l4 -16q0 -16 -20 -16h-31q-16 0 -25.5 5t-15.5 17l-137 295q-4 6 -4 16zM154 47v889q0 47 47 47h16q47 0 47 -47v-889q0 -47 -47 -47h-16q-47 0 -47 47z" />
<glyph unicode="&#xed;" horiz-adv-x="417" d="M154 47v889q0 47 47 47h16q47 0 47 -47v-889q0 -47 -47 -47h-16q-47 0 -47 47zM164 1194l4 16l104 289q6 16 15.5 22.5t29.5 6.5h56q25 0 24 -17q0 -10 -4 -16l-137 -295q-6 -12 -15.5 -17t-25.5 -5h-31q-20 0 -20 16z" />
<glyph unicode="&#xee;" horiz-adv-x="417" d="M-81 1175.5q-9 12.5 1 24.5l230 320q16 23 23 28.5t24 5.5h24q16 0 23.5 -6t23.5 -28l230 -320q4 -4 4 -14t-8.5 -16.5t-20.5 -6.5h-39q-23 0 -31 7.5t-22 27.5l-172 250l-172 -250q-14 -20 -22.5 -27.5t-30.5 -7.5h-39q-17 0 -26 12.5zM154 47v889q0 47 47 47h16 q47 0 47 -47v-889q0 -47 -47 -47h-16q-47 0 -47 47z" />
<glyph unicode="&#xef;" horiz-adv-x="417" d="M-57 1243v27q0 29 19.5 50t47.5 21h29q29 0 48 -21.5t19 -49.5v-27q0 -31 -18 -51.5t-49 -20.5h-29q-28 0 -47.5 21.5t-19.5 50.5zM154 47v889q0 47 47 47h16q47 0 47 -47v-889q0 -47 -47 -47h-16q-47 0 -47 47zM311 1243v27q0 29 19.5 50t48.5 21h29q29 0 48 -21.5 t19 -49.5v-27q0 -31 -18.5 -51.5t-48.5 -20.5h-29q-29 0 -48.5 21.5t-19.5 50.5z" />
<glyph unicode="&#xf0;" horiz-adv-x="1390" d="M113 354q0 190 73.5 329.5t212 214.5t328.5 75q141 0 241.5 -50.5t164.5 -156.5q8 74 8 152q0 193 -70 292l-104 -145q-8 -10 -14.5 -15.5t-16.5 -5.5h-68q-14 0 -17 8.5t3 18.5l147 207q-84 51 -208 51q-86 0 -148.5 -16.5t-130.5 -52.5q-10 -6 -14 -7q-6 0 -13 13 l-22 49q-2 4 -2 10q0 8 9 14.5t11 8.5q127 76 328 75q145 0 248 -65l100 141q8 10 14.5 15.5t16.5 5.5h67q14 0 17.5 -8.5t-2.5 -18.5l-139 -197q115 -129 114 -381q0 -152 -37 -321q-70 -330 -248 -477.5t-417 -147.5q-201 0 -316.5 101.5t-115.5 283.5zM221 354 q0 -147 89 -219t255 -72q117 0 222.5 52.5t184.5 155t111 245.5q8 33 9 72q0 92 -54.5 156.5t-139.5 98.5t-173 34q-240 0 -372 -134.5t-132 -388.5z" />
<glyph unicode="&#xf1;" horiz-adv-x="1204" d="M154 47v889q0 25 8 36t31 11h20q23 0 31 -11t8 -36v-105q76 84 189.5 133.5t252.5 49.5q168 0 267.5 -85t99.5 -259v-623q0 -47 -47 -47h-17q-47 0 -47 47v617q0 139 -70.5 197.5t-211.5 58.5q-94 0 -187.5 -38t-155 -106.5t-61.5 -152.5v-576q0 -47 -47 -47h-16 q-47 0 -47 47zM217 1221q0 16 21 43q80 98 213 98q59 0 97 -16.5t81 -49.5q37 -27 62.5 -39t64.5 -12q47 0 79.5 15.5t59.5 48.5q27 31 47 30q18 0 37 -18q14 -14 14 -29q0 -16 -20 -43q-80 -98 -213 -98q-55 0 -93 16.5t-83 49.5q-39 27 -65.5 39t-63.5 12q-47 0 -80 -15.5 t-60 -48.5q-27 -31 -47 -30q-18 0 -37 18q-14 14 -14 29z" />
<glyph unicode="&#xf2;" horiz-adv-x="1265" d="M113 492q0 242 134 382t386 140t386 -140.5t134 -381.5q0 -242 -134 -382.5t-386 -140.5t-386 140.5t-134 382.5zM219 492q0 -205 106.5 -317t307.5 -112t307.5 112t106.5 317t-106.5 316.5t-307.5 111.5t-307.5 -112t-106.5 -316zM494 1511q0 16 24 17h55q20 0 29.5 -6 t15.5 -23l105 -289l4 -16q0 -16 -20 -16h-31q-17 0 -26 5t-15 17l-137 295q-4 6 -4 16z" />
<glyph unicode="&#xf3;" horiz-adv-x="1265" d="M113 492q0 242 134 382t386 140t386 -140.5t134 -381.5q0 -242 -134 -382.5t-386 -140.5t-386 140.5t-134 382.5zM219 492q0 -205 106.5 -317t307.5 -112t307.5 112t106.5 317t-106.5 316.5t-307.5 111.5t-307.5 -112t-106.5 -316zM561 1133l4 16l105 289q6 16 15 22 t30 6h55q25 0 25 -16q0 -10 -4 -16l-138 -295q-6 -12 -15 -17.5t-26 -5.5h-30q-21 1 -21 17z" />
<glyph unicode="&#xf4;" horiz-adv-x="1265" d="M113 492q0 242 134 382t386 140t386 -140.5t134 -381.5q0 -242 -134 -382.5t-386 -140.5t-386 140.5t-134 382.5zM219 492q0 -205 106.5 -317t307.5 -112t307.5 112t106.5 317t-106.5 316.5t-307.5 111.5t-307.5 -112t-106.5 -316zM343 1114q-9 12 1 25l229 319 q16 23 23.5 29t24.5 6h24q16 0 23.5 -6t23.5 -29l230 -319q4 -4 4 -15q0 -10 -8.5 -16t-20.5 -6h-39q-23 0 -31 7t-22 28l-172 249l-172 -249q-14 -20 -22.5 -27.5t-30.5 -7.5h-39q-17 0 -26 12z" />
<glyph unicode="&#xf5;" horiz-adv-x="1265" d="M113 492q0 242 134 382t386 140t386 -140.5t134 -381.5q0 -242 -134 -382.5t-386 -140.5t-386 140.5t-134 382.5zM219 492q0 -205 106.5 -317t307.5 -112t307.5 112t106.5 317t-106.5 316.5t-307.5 111.5t-307.5 -112t-106.5 -316zM246 1221q0 16 20 43q80 98 213 98 q59 0 97 -16.5t81 -49.5q37 -27 62.5 -39t64.5 -12q47 0 80 15.5t60 48.5q27 31 47 30q18 0 37 -18q14 -14 14 -29q0 -16 -21 -43q-80 -98 -213 -98q-55 0 -93 16.5t-83 49.5q-39 27 -65.5 39t-63.5 12q-47 0 -79.5 -15.5t-59.5 -48.5q-27 -31 -47 -30q-18 0 -37 18 q-14 14 -14 29z" />
<glyph unicode="&#xf6;" horiz-adv-x="1265" d="M113 492q0 242 134 382t386 140t386 -140.5t134 -381.5q0 -242 -134 -382.5t-386 -140.5t-386 140.5t-134 382.5zM219 492q0 -205 106.5 -317t307.5 -112t307.5 112t106.5 317t-106.5 316.5t-307.5 111.5t-307.5 -112t-106.5 -316zM367 1202v27q0 29 19.5 50t47.5 21h29 q29 0 48 -21.5t19 -49.5v-27q0 -31 -18 -51.5t-49 -20.5h-29q-28 0 -47.5 22t-19.5 50zM735 1202v27q0 29 19.5 50t48.5 21h28q29 0 48.5 -21.5t19.5 -49.5v-27q0 -31 -18.5 -51.5t-49.5 -20.5h-28q-29 0 -48.5 22t-19.5 50z" />
<glyph unicode="&#xf7;" horiz-adv-x="970" d="M113 594v14q0 45 47 45h651q47 0 47 -45v-14q0 -23 -11 -32t-36 -9h-651q-25 0 -36 9t-11 32zM408 350v27q0 29 18 48t45 19h29q27 0 45 -19t18 -48v-27q0 -29 -17.5 -48t-45.5 -19h-29q-27 0 -45 19.5t-18 47.5zM408 829v27q0 29 18 48.5t45 19.5h29q27 0 45 -19.5 t18 -48.5v-27q0 -29 -17.5 -48t-45.5 -19h-29q-27 0 -45 19.5t-18 47.5z" />
<glyph unicode="&#xf8;" horiz-adv-x="1265" d="M113 492q0 242 134 382t386 140q78 0 141 -15l64 154q8 20 30 21h68q27 0 14 -27l-73 -178q135 -57 205.5 -181t70.5 -296q0 -242 -134 -382.5t-386 -140.5q-88 0 -160 19l-59 -146q-8 -20 -31 -20h-68q-26 -1 -14 26l70 172q-127 59 -192.5 181.5t-65.5 290.5zM219 492 q0 -139 47 -235.5t142 -145.5l329 798q-55 10 -104 11q-201 0 -307.5 -112t-106.5 -316zM510 76q55 -12 123 -13q201 0 307.5 112t106.5 317q0 143 -53.5 242.5t-153.5 144.5z" />
<glyph unicode="&#xf9;" horiz-adv-x="1183" d="M143 332v604q0 47 47 47h17q47 0 47 -47v-606q0 -139 74.5 -203t218.5 -64q98 0 184 39t137.5 108t51.5 155v571q0 47 47 47h16q47 0 47 -47v-889q0 -25 -8 -36t-31 -11h-20q-23 0 -31 11.5t-8 35.5v109q-74 -90 -171 -138.5t-241 -48.5q-168 0 -272.5 93.5t-104.5 269.5 zM414 1450q0 16 24 16h56q20 0 29 -6t16 -22l104 -289l4 -16q0 -16 -20 -17h-31q-16 0 -25.5 5t-15.5 18l-137 295q-4 6 -4 16z" />
<glyph unicode="&#xfa;" horiz-adv-x="1183" d="M143 332v604q0 47 47 47h17q47 0 47 -47v-606q0 -139 74.5 -203t218.5 -64q98 0 184 39t137.5 108t51.5 155v571q0 47 47 47h16q47 0 47 -47v-889q0 -25 -8 -36t-31 -11h-20q-23 0 -31 11.5t-8 35.5v109q-74 -90 -171 -138.5t-241 -48.5q-168 0 -272.5 93.5t-104.5 269.5 zM520 1133l4 16l105 289q6 16 15 22t30 6h55q25 0 25 -16q0 -10 -4 -16l-138 -295q-6 -12 -15 -17.5t-26 -5.5h-30q-21 1 -21 17z" />
<glyph unicode="&#xfb;" horiz-adv-x="1183" d="M143 332v604q0 47 47 47h17q47 0 47 -47v-606q0 -139 74.5 -203t218.5 -64q98 0 184 39t137.5 108t51.5 155v571q0 47 47 47h16q47 0 47 -47v-889q0 -25 -8 -36t-31 -11h-20q-23 0 -31 11.5t-8 35.5v109q-74 -90 -171 -138.5t-241 -48.5q-168 0 -272.5 93.5t-104.5 269.5 zM296 1114q-9 12 1 25l229 319q16 23 23.5 29t23.5 6h25q16 0 23.5 -6t23.5 -29l229 -319q4 -4 5 -15q0 -10 -8.5 -16t-20.5 -6h-39q-23 0 -31 7t-22 28l-172 249l-172 -249q-14 -20 -22.5 -27.5t-31.5 -7.5h-38q-17 0 -26 12z" />
<glyph unicode="&#xfc;" horiz-adv-x="1183" d="M143 332v604q0 47 47 47h17q47 0 47 -47v-606q0 -139 74.5 -203t218.5 -64q98 0 184 39t137.5 108t51.5 155v571q0 47 47 47h16q47 0 47 -47v-889q0 -25 -8 -36t-31 -11h-20q-23 0 -31 11.5t-8 35.5v109q-74 -90 -171 -138.5t-241 -48.5q-168 0 -272.5 93.5t-104.5 269.5 zM317 1223v26q0 29 19.5 50.5t48.5 21.5h29q29 0 48 -21.5t19 -50.5v-26q0 -31 -18.5 -51.5t-48.5 -20.5h-29q-29 0 -48.5 21.5t-19.5 50.5zM686 1223v26q0 29 19.5 50.5t48.5 21.5h28q29 0 48.5 -21.5t19.5 -50.5v-26q0 -31 -18.5 -51.5t-49.5 -20.5h-28q-29 0 -48.5 21.5 t-19.5 50.5z" />
<glyph unicode="&#xfd;" horiz-adv-x="1193" d="M116 -243q-3 7 3 18l28 45q6 12 15 12q6 0 14 -6q39 -27 79 -39t91 -12q74 0 117 43t86 147l24 62l-430 919q-4 8 -4 12q0 10 8.5 17.5t20.5 7.5h39q23 0 33 -8t18 -27l373 -809l373 809q8 18 18 26.5t33 8.5h39q16 0 24 -11t0 -26l-454 -971q-51 -111 -92.5 -171 t-95.5 -91.5t-134 -31.5q-123 0 -213 61q-10 8 -13 15zM549 1194l4 16l104 289q6 16 15.5 22.5t29.5 6.5h56q25 0 24 -17q0 -10 -4 -16l-137 -295q-6 -12 -15.5 -17t-25.5 -5h-31q-20 0 -20 16z" />
<glyph unicode="&#xfe;" horiz-adv-x="1253" d="M154 -367v1743q0 47 47 47h16q47 0 47 -47v-415q143 53 305 53q571 0 572 -522q0 -246 -129 -384.5t-344 -138.5q-135 0 -232.5 42t-171.5 134v-512q0 -47 -47 -47h-16q-47 0 -47 47zM264 377q0 -94 53.5 -165t137.5 -108.5t178 -37.5q401 0 401 438q0 221 -114.5 318.5 t-350.5 97.5q-88 0 -171 -16.5t-134 -43.5v-483z" />
<glyph unicode="&#xff;" horiz-adv-x="1193" d="M116 -243q-3 7 3 18l28 45q6 12 15 12q6 0 14 -6q39 -27 79 -39t91 -12q74 0 117 43t86 147l24 62l-430 919q-4 8 -4 12q0 10 8.5 17.5t20.5 7.5h39q23 0 33 -8t18 -27l373 -809l373 809q8 18 18 26.5t33 8.5h39q16 0 24 -11t0 -26l-454 -971q-51 -111 -92.5 -171 t-95.5 -91.5t-134 -31.5q-123 0 -213 61q-10 8 -13 15zM365 1223v26q0 29 19 50.5t48 21.5h29q29 0 48 -21.5t19 -50.5v-26q0 -31 -18 -51.5t-49 -20.5h-29q-29 0 -48 21.5t-19 50.5zM733 1223v26q0 29 19.5 50.5t48.5 21.5h28q29 0 48.5 -21.5t19.5 -50.5v-26 q0 -31 -18.5 -51.5t-49.5 -20.5h-28q-29 0 -48.5 21.5t-19.5 50.5z" />
<glyph unicode="&#x100;" horiz-adv-x="1474" d="M117 37l561 1321q8 20 15 27.5t26 7.5h37q18 0 25 -7.5t16 -27.5l561 -1321q2 -4 2 -12q0 -10 -7 -17.5t-20 -7.5h-39q-23 0 -33 8t-18 27l-156 368h-700l-156 -368q-8 -18 -18 -26.5t-33 -8.5h-39q-16 0 -23 11.5t-1 25.5zM406 1681v15q0 45 47 45h569q47 0 47 -45v-15 q0 -23 -11 -32t-36 -9h-569q-25 0 -36 9.5t-11 31.5zM428 504h616l-307 727z" />
<glyph unicode="&#x101;" horiz-adv-x="1253" d="M113 426q0 176 68.5 308t200.5 206t314 74q113 0 222.5 -33t181.5 -82v-852q0 -47 -47 -47h-15q-23 0 -32 11.5t-11 35.5l-6 98q-139 -176 -422 -176q-209 0 -331.5 119t-122.5 338zM219 438q0 -193 95.5 -284t293.5 -91q94 0 182.5 38t143.5 110t55 166v473 q-53 31 -132 50.5t-161 19.5q-221 0 -349 -127t-128 -355zM369 1251v15q0 45 47 45h569q47 0 47 -45v-15q0 -23 -11 -32t-36 -9h-569q-25 0 -36 9.5t-11 31.5z" />
<glyph unicode="&#x102;" horiz-adv-x="1474" d="M117 37l561 1321q8 20 15 27.5t26 7.5h37q18 0 25 -7.5t16 -27.5l561 -1321q2 -4 2 -12q0 -10 -7 -17.5t-20 -7.5h-39q-23 0 -33 8t-18 27l-156 368h-700l-156 -368q-8 -18 -18 -26.5t-33 -8.5h-39q-16 0 -23 11.5t-1 25.5zM428 504h616l-307 727zM449 1866q0 16 9 26.5 t23 10.5h49q20 0 27.5 -9.5t7.5 -29.5q0 -100 36 -153.5t136 -53.5t136 53t36 154q0 20 7.5 29.5t27.5 9.5h49q14 0 23.5 -10.5t9.5 -26.5q0 -143 -72.5 -228.5t-216.5 -85.5q-143 0 -215.5 85t-72.5 229z" />
<glyph unicode="&#x103;" horiz-adv-x="1253" d="M113 426q0 176 68.5 308t200.5 206t314 74q113 0 222.5 -33t181.5 -82v-852q0 -47 -47 -47h-15q-23 0 -32 11.5t-11 35.5l-6 98q-139 -176 -422 -176q-209 0 -331.5 119t-122.5 338zM219 438q0 -193 95.5 -284t293.5 -91q94 0 182.5 38t143.5 110t55 166v473 q-53 31 -132 50.5t-161 19.5q-221 0 -349 -127t-128 -355zM403 1415q0 16 9.5 26.5t23.5 10.5h49q20 0 27.5 -9t7.5 -30q0 -100 36 -153.5t136 -53.5t136 53.5t36 153.5q0 20 7.5 29.5t27.5 9.5h49q14 0 23.5 -10t9.5 -27q0 -143 -72.5 -228t-216.5 -85q-143 0 -216 85 t-73 228z" />
<glyph unicode="&#x104;" horiz-adv-x="1474" d="M117 37l561 1321q8 20 15 27.5t26 7.5h37q18 0 25 -7.5t16 -27.5l561 -1321q2 -4 2 -12q0 -16 -12 -23q8 -10 -5 -22q-68 -82 -92 -132.5t-24 -97.5q0 -27 13 -41t36 -14q29 0 45 8q12 4 14 4q8 0 15 -14l20 -45q2 -5 2 -13q0 -12 -22 -22q-31 -16 -97 -16 q-72 0 -110.5 38.5t-38.5 98.5q0 57 29.5 116.5t95.5 135.5q16 20 31 24q-10 10 -17 25l-156 368h-700l-156 -368q-8 -18 -18 -26.5t-33 -8.5h-39q-16 0 -23 11.5t-1 25.5zM428 504h616l-307 727z" />
<glyph unicode="&#x105;" horiz-adv-x="1253" d="M113 426q0 176 68.5 308t200.5 206t314 74q113 0 222.5 -33t181.5 -82v-852q0 -23 -10 -33q0 -8 -7 -14q-68 -82 -92 -132t-24 -97q0 -27 13 -41.5t36 -14.5q29 0 45 9q12 4 14 4q8 0 15 -15l20 -45q2 -4 2 -12q0 -12 -22 -23q-31 -16 -97 -16q-72 0 -110.5 39t-38.5 98 q0 57 29.5 116.5t95.5 135.5q16 20 28 23l-2 18l-6 98q-139 -176 -422 -176q-209 0 -331.5 119t-122.5 338zM219 438q0 -193 95.5 -284t293.5 -91q94 0 182.5 38t143.5 110t55 166v473q-53 31 -132 50.5t-161 19.5q-221 0 -349 -127t-128 -355z" />
<glyph unicode="&#x106;" horiz-adv-x="1382" d="M113 696q0 344 180 535.5t512 191.5q123 0 233.5 -24.5t186.5 -73.5q12 -8 14 -14t-4 -19l-27 -45q-6 -12 -14 -12q-4 0 -14 6q-61 41 -157.5 64.5t-215.5 23.5q-272 0 -430 -155.5t-158 -477.5q0 -319 161 -476t427 -157q133 0 229.5 23t171.5 70q10 6 15 6q8 0 14 -12 l27 -46q4 -12 4 -14q0 -10 -15 -18q-84 -53 -193.5 -78t-254.5 -25q-332 0 -512 191.5t-180 535.5zM723 1583l4 16l104 289q6 16 15.5 22.5t30.5 6.5h55q25 0 24 -16q0 -10 -4 -17l-137 -295q-6 -12 -15 -17t-26 -5h-31q-20 0 -20 16z" />
<glyph unicode="&#x107;" horiz-adv-x="1165" d="M113 485q0 154 66.5 275t186 187.5t275.5 66.5q123 0 214 -22.5t167 -76.5q12 -8 14 -14t-4 -18l-26 -45q-6 -12 -15 -13q-4 0 -14 6q-61 43 -138 66t-190 23q-199 0 -314.5 -117t-115.5 -318q0 -213 118 -317.5t335 -104.5q193 0 319 91q8 6 15 6q8 0 14 -13l27 -45 q4 -12 4 -14q0 -10 -15 -18q-154 -100 -370 -101q-260 0 -406.5 133.5t-146.5 382.5zM547 1133l4 16l104 289q6 16 15.5 22t29.5 6h56q25 0 24 -16q0 -10 -4 -16l-137 -295q-6 -12 -15.5 -17.5t-25.5 -5.5h-31q-20 1 -20 17z" />
<glyph unicode="&#x108;" horiz-adv-x="1382" d="M113 696q0 344 180 535.5t512 191.5q123 0 233.5 -24.5t186.5 -73.5q12 -8 14 -14t-4 -19l-27 -45q-6 -12 -14 -12q-4 0 -14 6q-61 41 -157.5 64.5t-215.5 23.5q-272 0 -430 -155.5t-158 -477.5q0 -319 161 -476t427 -157q133 0 229.5 23t171.5 70q10 6 15 6q8 0 14 -12 l27 -46q4 -12 4 -14q0 -10 -15 -18q-84 -53 -193.5 -78t-254.5 -25q-332 0 -512 191.5t-180 535.5zM513 1540q-9 12 1 25l229 319q16 23 23.5 29t24.5 6h24q16 0 23.5 -6t23.5 -29l230 -319q4 -4 4 -15q0 -10 -8.5 -16t-20.5 -6h-39q-23 0 -31 7t-22 28l-172 249l-172 -249 q-14 -20 -22.5 -27.5t-30.5 -7.5h-39q-17 0 -26 12z" />
<glyph unicode="&#x109;" horiz-adv-x="1165" d="M113 485q0 154 66.5 275t186 187.5t275.5 66.5q123 0 214 -22.5t167 -76.5q12 -8 14 -14t-4 -18l-26 -45q-6 -12 -15 -13q-4 0 -14 6q-61 43 -138 66t-190 23q-199 0 -314.5 -117t-115.5 -318q0 -213 118 -317.5t335 -104.5q193 0 319 91q8 6 15 6q8 0 14 -13l27 -45 q4 -12 4 -14q0 -10 -15 -18q-154 -100 -370 -101q-260 0 -406.5 133.5t-146.5 382.5zM371.5 1114q-9.5 12 1.5 25l229 319q16 23 23.5 29t23.5 6h25q16 0 23.5 -6t23.5 -29l229 -319q4 -4 4 -15q0 -10 -8 -16t-20 -6h-39q-23 0 -31 7t-22 28l-172 249l-173 -249 q-14 -20 -22 -27.5t-31 -7.5h-39q-16 0 -25.5 12z" />
<glyph unicode="&#x10a;" horiz-adv-x="1382" d="M113 696q0 344 180 535.5t512 191.5q123 0 233.5 -24.5t186.5 -73.5q12 -8 14 -14t-4 -19l-27 -45q-6 -12 -14 -12q-4 0 -14 6q-61 41 -157.5 64.5t-215.5 23.5q-272 0 -430 -155.5t-158 -477.5q0 -319 161 -476t427 -157q133 0 229.5 23t171.5 70q10 6 15 6q8 0 14 -12 l27 -46q4 -12 4 -14q0 -10 -15 -18q-84 -53 -193.5 -78t-254.5 -25q-332 0 -512 191.5t-180 535.5zM735 1694v26q0 29 19.5 50.5t48.5 21.5h28q29 0 48.5 -21.5t19.5 -50.5v-26q0 -31 -18.5 -51.5t-49.5 -20.5h-28q-29 0 -48.5 21.5t-19.5 50.5z" />
<glyph unicode="&#x10b;" horiz-adv-x="1165" d="M113 485q0 154 66.5 275t186 187.5t275.5 66.5q123 0 214 -22.5t167 -76.5q12 -8 14 -14t-4 -18l-26 -45q-6 -12 -15 -13q-4 0 -14 6q-61 43 -138 66t-190 23q-199 0 -314.5 -117t-115.5 -318q0 -213 118 -317.5t335 -104.5q193 0 319 91q8 6 15 6q8 0 14 -13l27 -45 q4 -12 4 -14q0 -10 -15 -18q-154 -100 -370 -101q-260 0 -406.5 133.5t-146.5 382.5zM578 1223v26q0 29 19 50.5t48 21.5h29q29 0 48 -21.5t19 -50.5v-26q0 -31 -18 -51.5t-49 -20.5h-29q-29 0 -48 21.5t-19 50.5z" />
<glyph unicode="&#x10c;" horiz-adv-x="1382" d="M113 696q0 344 180 535.5t512 191.5q123 0 233.5 -24.5t186.5 -73.5q12 -8 14 -14t-4 -19l-27 -45q-6 -12 -14 -12q-4 0 -14 6q-61 41 -157.5 64.5t-215.5 23.5q-272 0 -430 -155.5t-158 -477.5q0 -319 161 -476t427 -157q133 0 229.5 23t171.5 70q10 6 15 6q8 0 14 -12 l27 -46q4 -12 4 -14q0 -10 -15 -18q-84 -53 -193.5 -78t-254.5 -25q-332 0 -512 191.5t-180 535.5zM532 1921q0 10 8.5 16.5t20.5 6.5h39q23 0 31 -7.5t22 -27.5l172 -250l172 250q14 20 22.5 27.5t31.5 7.5h39q16 0 25 -12.5t-1 -24.5l-229 -320q-16 -23 -23.5 -29 t-23.5 -6h-25q-16 0 -23.5 6.5t-23.5 28.5l-229 320q-4 4 -5 14z" />
<glyph unicode="&#x10d;" horiz-adv-x="1165" d="M113 485q0 154 66.5 275t186 187.5t275.5 66.5q123 0 214 -22.5t167 -76.5q12 -8 14 -14t-4 -18l-26 -45q-6 -12 -15 -13q-4 0 -14 6q-61 43 -138 66t-190 23q-199 0 -314.5 -117t-115.5 -318q0 -213 118 -317.5t335 -104.5q193 0 319 91q8 6 15 6q8 0 14 -13l27 -45 q4 -12 4 -14q0 -10 -15 -18q-154 -100 -370 -101q-260 0 -406.5 133.5t-146.5 382.5zM358 1491q0 10 8.5 16t20.5 6h39q23 0 31 -7t22 -27l172 -250l172 250q14 20 22.5 27t31.5 7h38q16 0 25.5 -12t-0.5 -24l-229 -320q-16 -23 -23.5 -29t-23.5 -6h-25q-16 0 -23.5 6.5 t-23.5 28.5l-230 320q-4 4 -4 14z" />
<glyph unicode="&#x10e;" horiz-adv-x="1386" d="M154 47v1299q0 47 47 47h368q338 0 521.5 -163t183.5 -534t-183.5 -533.5t-521.5 -162.5h-368q-47 0 -47 47zM264 100h318q287 0 436 136.5t149 459.5q0 324 -149.5 460t-435.5 136h-318v-1192zM303 1921q0 10 8 16.5t21 6.5h39q23 0 31 -7.5t22 -27.5l172 -250l172 250 q14 20 22.5 27.5t30.5 7.5h39q16 0 25.5 -12.5t-0.5 -24.5l-230 -320q-16 -23 -23 -29t-24 -6h-24q-17 0 -24 6.5t-23 28.5l-230 320q-4 4 -4 14z" />
<glyph unicode="&#x10f;" horiz-adv-x="1486" d="M113 492q0 154 61.5 272.5t171 184t252.5 65.5q141 0 237.5 -33t153.5 -102v467q0 47 47 47h17q47 0 47 -47v-1254q-68 -53 -188.5 -88t-245.5 -35q-281 0 -417 129t-136 394zM219 479q0 -219 110.5 -317.5t336.5 -98.5q92 0 182 21.5t141 56.5v506q0 131 -103.5 201 t-252.5 70q-207 0 -310.5 -116t-103.5 -323zM1200 1194l4 16l105 289q6 16 15 22.5t30 6.5h55q25 0 25 -17q0 -10 -4 -16l-138 -295q-6 -12 -15 -17t-26 -5h-30q-21 0 -21 16z" />
<glyph unicode="&#x110;" horiz-adv-x="1468" d="M51 688v14q0 45 47 46h138v598q0 47 47 47h368q338 0 521.5 -163t183.5 -534t-183.5 -533.5t-521.5 -162.5h-368q-47 0 -47 47v600h-138q-25 0 -36 9.5t-11 31.5zM346 100h318q287 0 436 136.5t149 459.5q0 324 -149.5 460t-435.5 136h-318v-544h404q47 0 47 -46v-14 q0 -23 -11.5 -32t-35.5 -9h-404v-547z" />
<glyph unicode="&#x111;" horiz-adv-x="1337" d="M113 492q0 154 61.5 272.5t171 184t252.5 65.5q141 0 237.5 -33t153.5 -102v245h-401q-25 0 -36 9.5t-11 31.5v15q0 45 47 45h401v121q0 47 47 47h17q47 0 47 -47v-121h139q47 0 47 -45v-15q0 -23 -11 -32t-36 -9h-139v-1032q-68 -53 -188.5 -88t-245.5 -35 q-281 0 -417 129t-136 394zM219 479q0 -219 110.5 -317.5t336.5 -98.5q92 0 182 21.5t141 56.5v506q0 131 -103.5 201t-252.5 70q-207 0 -310.5 -116t-103.5 -323z" />
<glyph unicode="&#x112;" horiz-adv-x="1191" d="M154 47v1299q0 47 47 47h852q25 0 36 -9.5t11 -31.5v-15q0 -45 -47 -45h-789v-544h610q25 0 36.5 -9.5t11.5 -31.5v-15q0 -45 -48 -45h-610v-547h789q47 0 47 -45v-14q0 -23 -11.5 -32t-35.5 -9h-852q-47 0 -47 47zM287 1681v15q0 45 47 45h569q47 0 47 -45v-15 q0 -23 -11 -32t-36 -9h-569q-25 0 -36 9.5t-11 31.5z" />
<glyph unicode="&#x113;" horiz-adv-x="1232" d="M113 471q0 266 135 404.5t381 138.5q492 0 491 -531q0 -18 -10 -29.5t-31 -11.5h-858q0 -186 118 -282.5t327 -96.5q96 0 181 23t144 64q8 6 15 6q8 0 14 -13l27 -45q4 -6 4 -14t-15 -18q-76 -49 -179 -73t-208 -24q-233 0 -384.5 123t-151.5 379zM221 543h793 q0 180 -96.5 278.5t-288.5 98.5q-195 0 -301.5 -102.5t-106.5 -274.5zM293 1231v14q0 45 47 45h569q47 0 47 -45v-14q0 -23 -11 -32t-36 -9h-569q-25 0 -36 9t-11 32z" />
<glyph unicode="&#x114;" horiz-adv-x="1191" d="M154 47v1299q0 47 47 47h852q25 0 36 -9.5t11 -31.5v-15q0 -45 -47 -45h-789v-544h610q25 0 36.5 -9.5t11.5 -31.5v-15q0 -45 -48 -45h-610v-547h789q47 0 47 -45v-14q0 -23 -11.5 -32t-35.5 -9h-852q-47 0 -47 47zM338 1866q0 16 9 26.5t24 10.5h49q20 0 27.5 -9.5 t7.5 -29.5q0 -100 35.5 -153.5t136.5 -53.5q100 0 136 53t36 154q0 20 7 29.5t28 9.5h49q14 0 23 -10.5t9 -26.5q0 -143 -72.5 -228.5t-215.5 -85.5q-144 0 -216.5 85t-72.5 229z" />
<glyph unicode="&#x115;" horiz-adv-x="1232" d="M113 471q0 266 135 404.5t381 138.5q492 0 491 -531q0 -18 -10 -29.5t-31 -11.5h-858q0 -186 118 -282.5t327 -96.5q96 0 181 23t144 64q8 6 15 6q8 0 14 -13l27 -45q4 -6 4 -14t-15 -18q-76 -49 -179 -73t-208 -24q-233 0 -384.5 123t-151.5 379zM221 543h793 q0 180 -96.5 278.5t-288.5 98.5q-195 0 -301.5 -102.5t-106.5 -274.5zM340 1415q0 16 9 26.5t24 10.5h49q20 0 27.5 -9t7.5 -30q0 -100 35.5 -153.5t136.5 -53.5q100 0 136 53.5t36 153.5q0 20 7 29.5t28 9.5h49q14 0 23.5 -10t9.5 -27q0 -143 -73 -228t-216 -85 q-144 0 -216.5 85t-72.5 228z" />
<glyph unicode="&#x116;" horiz-adv-x="1191" d="M154 47v1299q0 47 47 47h852q25 0 36 -9.5t11 -31.5v-15q0 -45 -47 -45h-789v-544h610q25 0 36.5 -9.5t11.5 -31.5v-15q0 -45 -48 -45h-610v-547h789q47 0 47 -45v-14q0 -23 -11.5 -32t-35.5 -9h-852q-47 0 -47 47zM539 1694v26q0 29 19.5 50.5t47.5 21.5h29 q29 0 48 -21.5t19 -50.5v-26q0 -31 -18 -51.5t-49 -20.5h-29q-28 0 -47.5 21.5t-19.5 50.5z" />
<glyph unicode="&#x117;" horiz-adv-x="1232" d="M113 471q0 266 135 404.5t381 138.5q492 0 491 -531q0 -18 -10 -29.5t-31 -11.5h-858q0 -186 118 -282.5t327 -96.5q96 0 181 23t144 64q8 6 15 6q8 0 14 -13l27 -45q4 -6 4 -14t-15 -18q-76 -49 -179 -73t-208 -24q-233 0 -384.5 123t-151.5 379zM221 543h793 q0 180 -96.5 278.5t-288.5 98.5q-195 0 -301.5 -102.5t-106.5 -274.5zM553 1223v26q0 29 19.5 50.5t48.5 21.5h28q29 0 48.5 -21.5t19.5 -50.5v-26q0 -31 -18.5 -51.5t-49.5 -20.5h-28q-29 0 -48.5 21.5t-19.5 50.5z" />
<glyph unicode="&#x118;" horiz-adv-x="1191" d="M154 47v1299q0 47 47 47h852q25 0 36 -9.5t11 -31.5v-15q0 -45 -47 -45h-789v-544h610q25 0 36.5 -9.5t11.5 -31.5v-15q0 -45 -48 -45h-610v-547h789q47 0 47 -45v-14q0 -37 -35 -41q0 -10 -6 -16q-68 -82 -92.5 -132.5t-24.5 -97.5q0 -27 13.5 -41t35.5 -14q29 0 45 8 q12 4 15 4q8 0 14 -14l20 -45q2 -4 2 -12q0 -12 -22 -23q-31 -16 -96 -16q-72 0 -111 38.5t-39 98.5q0 57 30 116.5t95 135.5l10 10h-753q-47 0 -47 47z" />
<glyph unicode="&#x119;" horiz-adv-x="1232" d="M113 471q0 266 135 404.5t381 138.5q492 0 491 -531q0 -18 -10 -29.5t-31 -11.5h-858q0 -186 118 -282.5t327 -96.5q96 0 181 23t144 64q8 6 15 6q8 0 14 -13l27 -45l2 -2q4 -4 4 -10t-6 -16q-68 -82 -92.5 -132.5t-24.5 -97.5q0 -27 13 -41t36 -14q29 0 45 8q12 4 14 4 q8 0 15 -14l20 -45q2 -4 2 -12q0 -12 -22 -23q-31 -16 -97 -16q-71 0 -110 38.5t-39 98.5q0 78 61 172q-104 -27 -219 -27q-233 0 -384.5 123t-151.5 379zM221 543h793q0 180 -96.5 278.5t-288.5 98.5q-195 0 -301.5 -102.5t-106.5 -274.5z" />
<glyph unicode="&#x11a;" horiz-adv-x="1191" d="M154 47v1299q0 47 47 47h852q25 0 36 -9.5t11 -31.5v-15q0 -45 -47 -45h-789v-544h610q25 0 36.5 -9.5t11.5 -31.5v-15q0 -45 -48 -45h-610v-547h789q47 0 47 -45v-14q0 -23 -11.5 -32t-35.5 -9h-852q-47 0 -47 47zM346 1921q0 10 8 16.5t21 6.5h39q23 0 31 -7.5 t22 -27.5l172 -250l172 250q14 20 22.5 27.5t30.5 7.5h39q16 0 25.5 -12.5t-0.5 -24.5l-230 -320q-16 -23 -23 -29t-24 -6h-24q-17 0 -24 6.5t-23 28.5l-230 320q-4 4 -4 14z" />
<glyph unicode="&#x11b;" horiz-adv-x="1232" d="M113 471q0 266 135 404.5t381 138.5q492 0 491 -531q0 -18 -10 -29.5t-31 -11.5h-858q0 -186 118 -282.5t327 -96.5q96 0 181 23t144 64q8 6 15 6q8 0 14 -13l27 -45q4 -6 4 -14t-15 -18q-76 -49 -179 -73t-208 -24q-233 0 -384.5 123t-151.5 379zM221 543h793 q0 180 -96.5 278.5t-288.5 98.5q-195 0 -301.5 -102.5t-106.5 -274.5zM344 1470q0 10 8 16.5t21 6.5h39q23 0 31 -7t22 -28l172 -250l172 250q14 20 22.5 27.5t30.5 7.5h39q16 0 25.5 -12.5t-0.5 -24.5l-230 -319q-16 -23 -23 -29t-24 -6h-24q-17 0 -24 6t-23 29l-230 319 q-4 4 -4 14z" />
<glyph unicode="&#x11c;" horiz-adv-x="1425" d="M113 696q0 344 180 535.5t512 191.5q123 0 233.5 -24.5t186.5 -73.5q12 -8 14 -14t-4 -19l-27 -45q-6 -12 -14 -12q-4 0 -14 6q-61 41 -157.5 64.5t-215.5 23.5q-272 0 -430 -155.5t-158 -477.5q0 -319 161 -476t427 -157q115 0 220.5 19.5t174.5 54.5v510h-364 q-47 0 -47 45v15q0 23 11 32t36 9h428q47 0 47 -48v-579q0 -18 -3 -29.5t-16 -17.5q-203 -104 -489 -105q-332 0 -512 191.5t-180 535.5zM503 1515.5q-9 12.5 1 24.5l229 320q16 23 23.5 28.5t23.5 5.5h25q16 0 23.5 -6t23.5 -28l229 -320q4 -4 4 -14t-8 -16.5t-20 -6.5h-39 q-23 0 -31 7.5t-22 27.5l-172 250l-172 -250q-14 -20 -22.5 -27.5t-31.5 -7.5h-39q-16 0 -25 12.5z" />
<glyph unicode="&#x11d;" horiz-adv-x="1253" d="M113 453q0 264 150.5 412.5t420.5 148.5q115 0 231.5 -30t184.5 -75v-764q0 -244 -104.5 -368.5t-333.5 -124.5q-230 0 -388 76q-23 12 -10 32l31 54q6 12 14 12q6 0 15 -6q61 -33 148 -53.5t183 -20.5q176 0 255 90t79 309q-74 -92 -171 -134t-232 -42q-215 0 -344 128 t-129 356zM219 465q0 -399 402 -399q94 0 178 37.5t137 108.5t53 165v483q-51 27 -134 43.5t-171 16.5q-221 0 -343 -116t-122 -339zM363.5 1114q-9.5 12 1.5 25l229 319q16 23 23.5 29t23.5 6h25q16 0 23 -6t24 -29l229 -319q4 -4 4 -15q0 -10 -8 -16t-20 -6h-39 q-23 0 -31 7t-23 28l-172 249l-172 -249q-14 -20 -22 -27.5t-31 -7.5h-39q-16 0 -25.5 12z" />
<glyph unicode="&#x11e;" horiz-adv-x="1425" d="M113 696q0 344 180 535.5t512 191.5q123 0 233.5 -24.5t186.5 -73.5q12 -8 14 -14t-4 -19l-27 -45q-6 -12 -14 -12q-4 0 -14 6q-61 41 -157.5 64.5t-215.5 23.5q-272 0 -430 -155.5t-158 -477.5q0 -319 161 -476t427 -157q115 0 220.5 19.5t174.5 54.5v510h-364 q-47 0 -47 45v15q0 23 11 32t36 9h428q47 0 47 -48v-579q0 -18 -3 -29.5t-16 -17.5q-203 -104 -489 -105q-332 0 -512 191.5t-180 535.5zM510 1817q0 16 9 26t24 10h49q20 0 27.5 -9t7.5 -29q0 -100 35.5 -153.5t136.5 -53.5q100 0 136 53t36 154q0 20 7 29t28 9h49 q14 0 23 -10t9 -26q0 -143 -72.5 -228.5t-215.5 -85.5q-144 0 -216.5 85t-72.5 229z" />
<glyph unicode="&#x11f;" horiz-adv-x="1253" d="M113 453q0 264 150.5 412.5t420.5 148.5q115 0 231.5 -30t184.5 -75v-764q0 -244 -104.5 -368.5t-333.5 -124.5q-230 0 -388 76q-23 12 -10 32l31 54q6 12 14 12q6 0 15 -6q61 -33 148 -53.5t183 -20.5q176 0 255 90t79 309q-74 -92 -171 -134t-232 -42q-215 0 -344 128 t-129 356zM219 465q0 -399 402 -399q94 0 178 37.5t137 108.5t53 165v483q-51 27 -134 43.5t-171 16.5q-221 0 -343 -116t-122 -339zM377 1415q0 16 9 26.5t24 10.5h49q20 0 27.5 -9t7.5 -30q0 -100 35.5 -153.5t136.5 -53.5q100 0 136 53.5t36 153.5q0 20 7 29.5t27 9.5h50 q14 0 23 -10t9 -27q0 -143 -72.5 -228t-215.5 -85q-144 0 -216.5 85t-72.5 228z" />
<glyph unicode="&#x120;" horiz-adv-x="1425" d="M113 696q0 344 180 535.5t512 191.5q123 0 233.5 -24.5t186.5 -73.5q12 -8 14 -14t-4 -19l-27 -45q-6 -12 -14 -12q-4 0 -14 6q-61 41 -157.5 64.5t-215.5 23.5q-272 0 -430 -155.5t-158 -477.5q0 -319 161 -476t427 -157q115 0 220.5 19.5t174.5 54.5v510h-364 q-47 0 -47 45v15q0 23 11 32t36 9h428q47 0 47 -48v-579q0 -18 -3 -29.5t-16 -17.5q-203 -104 -489 -105q-332 0 -512 191.5t-180 535.5zM713 1614v26q0 29 19.5 50.5t47.5 21.5h29q29 0 48.5 -21.5t19.5 -50.5v-26q0 -31 -18.5 -51.5t-49.5 -20.5h-29q-28 0 -47.5 21.5 t-19.5 50.5z" />
<glyph unicode="&#x121;" horiz-adv-x="1253" d="M113 453q0 264 150.5 412.5t420.5 148.5q115 0 231.5 -30t184.5 -75v-764q0 -244 -104.5 -368.5t-333.5 -124.5q-230 0 -388 76q-23 12 -10 32l31 54q6 12 14 12q6 0 15 -6q61 -33 148 -53.5t183 -20.5q176 0 255 90t79 309q-74 -92 -171 -134t-232 -42q-215 0 -344 128 t-129 356zM219 465q0 -399 402 -399q94 0 178 37.5t137 108.5t53 165v483q-51 27 -134 43.5t-171 16.5q-221 0 -343 -116t-122 -339zM596 1253v27q0 29 19.5 50.5t48.5 21.5h28q29 0 48.5 -21.5t19.5 -50.5v-27q0 -31 -18.5 -51t-49.5 -20h-28q-29 0 -48.5 21.5t-19.5 49.5z " />
<glyph unicode="&#x122;" horiz-adv-x="1425" d="M113 696q0 344 180 535.5t512 191.5q123 0 233.5 -24.5t186.5 -73.5q12 -8 14 -14t-4 -19l-27 -45q-6 -12 -14 -12q-4 0 -14 6q-61 41 -157.5 64.5t-215.5 23.5q-272 0 -430 -155.5t-158 -477.5q0 -319 161 -476t427 -157q115 0 220.5 19.5t174.5 54.5v510h-364 q-47 0 -47 45v15q0 23 11 32t36 9h428q47 0 47 -48v-579q0 -18 -3 -29.5t-16 -17.5q-203 -104 -489 -105q-332 0 -512 191.5t-180 535.5zM670 -416q0 10 2 17l98 297q6 16 15.5 22t29.5 6h49q25 0 25 -16l-4 -16l-131 -304q-6 -12 -15.5 -17t-25.5 -5h-25q-18 0 -18 16z" />
<glyph unicode="&#x123;" horiz-adv-x="1253" d="M113 453q0 264 150.5 412.5t420.5 148.5q115 0 231.5 -30t184.5 -75v-764q0 -244 -104.5 -368.5t-333.5 -124.5q-230 0 -388 76q-23 12 -10 32l31 54q6 12 14 12q6 0 15 -6q61 -33 148 -53.5t183 -20.5q176 0 255 90t79 309q-74 -92 -171 -134t-232 -42q-215 0 -344 128 t-129 356zM219 465q0 -399 402 -399q94 0 178 37.5t137 108.5t53 165v483q-51 27 -134 43.5t-171 16.5q-221 0 -343 -116t-122 -339zM606 1182l4 16l131 303q6 12 15.5 17.5t25.5 5.5h25q18 0 18 -17q0 -10 -2 -16l-98 -297q-6 -16 -15.5 -22.5t-29.5 -6.5h-49q-25 1 -25 17 z" />
<glyph unicode="&#x124;" horiz-adv-x="1404" d="M154 47v1299q0 47 47 47h16q47 0 47 -47v-590h877v590q0 47 47 47h16q47 0 47 -47v-1299q0 -47 -47 -47h-16q-47 0 -47 47v608h-877v-608q0 -47 -47 -47h-16q-47 0 -47 47zM412.5 1564.5q-9.5 12.5 1.5 24.5l229 320q16 23 23.5 29t23.5 6h25q16 0 23 -6.5t24 -28.5 l229 -320q4 -4 4 -14t-8 -16.5t-20 -6.5h-39q-23 0 -31 7.5t-23 27.5l-172 250l-172 -250q-14 -20 -22 -27.5t-31 -7.5h-39q-16 0 -25.5 12.5z" />
<glyph unicode="&#x125;" horiz-adv-x="1204" d="M154 47v1299q0 25 8 36t31 11h32q23 0 31 -11.5t8 -35.5v-508q162 176 430 176q168 0 267.5 -85t99.5 -259v-623q0 -47 -47 -47h-17q-47 0 -47 47v617q0 139 -70.5 197.5t-211.5 58.5q-94 0 -187.5 -38t-155 -106.5t-61.5 -152.5v-576q0 -47 -47 -47h-16q-47 0 -47 47z M173 1503.5q-9 12.5 1 24.5l229 319q16 23 23.5 29t24.5 6h24q16 0 23.5 -6t23.5 -29l230 -319q4 -4 4 -15q0 -10 -8.5 -16t-20.5 -6h-39q-23 0 -31 7t-22 28l-172 250l-172 -250q-14 -20 -22.5 -27.5t-30.5 -7.5h-39q-17 0 -26 12.5z" />
<glyph unicode="&#x126;" horiz-adv-x="1421" d="M72 1087v15q0 45 47 45h43v199q0 47 47 47h16q47 0 47 -47v-199h877v199q0 47 47 47h16q47 0 48 -47v-199h43q47 0 47 -45v-15q0 -23 -11.5 -31.5t-35.5 -8.5h-43v-1000q0 -47 -48 -47h-16q-47 0 -47 47v608h-877v-608q0 -47 -47 -47h-16q-47 0 -47 47v1000h-43 q-25 0 -36 9t-11 31zM272 756h877v291h-877v-291z" />
<glyph unicode="&#x127;" horiz-adv-x="1247" d="M72 1169v15q0 45 47 45h78v117q0 25 8 36t31 11h32q23 0 31 -11.5t8 -35.5v-117h381q47 0 47 -45v-15q0 -23 -11 -32t-36 -9h-381v-290q162 176 430 176q168 0 267.5 -85t99.5 -259v-623q0 -47 -47 -47h-17q-47 0 -47 47v617q0 139 -70.5 197.5t-211.5 58.5 q-94 0 -187.5 -38t-155 -106.5t-61.5 -152.5v-576q0 -47 -47 -47h-16q-47 0 -47 47v1081h-78q-25 0 -36 9.5t-11 31.5z" />
<glyph unicode="&#x128;" horiz-adv-x="417" d="M-180 1581q0 16 20 43q80 98 213 98q59 0 97 -16t81 -49q37 -27 62.5 -39t64.5 -12q47 0 80 15t60 48q27 31 47 31q18 0 37 -19q14 -14 14 -28q0 -16 -21 -43q-80 -98 -213 -99q-55 0 -93 16.5t-83 49.5q-39 27 -65.5 39t-63.5 12q-47 0 -79.5 -15.5t-59.5 -47.5 q-27 -31 -47 -31q-18 0 -37 18q-14 14 -14 29zM154 47v1299q0 47 47 47h16q47 0 47 -47v-1299q0 -47 -47 -47h-16q-47 0 -47 47z" />
<glyph unicode="&#x129;" horiz-adv-x="417" d="M-180 1180q0 16 20 43q80 98 213 98q59 0 97 -16.5t81 -49.5q37 -27 62.5 -39t64.5 -12q47 0 80 15.5t60 48.5q27 31 47 30q18 0 37 -18q14 -14 14 -29q0 -16 -21 -43q-80 -98 -213 -98q-55 0 -93 16.5t-83 49.5q-39 27 -65.5 39t-63.5 12q-47 0 -79.5 -15.5t-59.5 -48.5 q-27 -31 -47 -30q-18 0 -37 18q-14 14 -14 29zM154 47v889q0 47 47 47h16q47 0 47 -47v-889q0 -47 -47 -47h-16q-47 0 -47 47z" />
<glyph unicode="&#x12a;" horiz-adv-x="417" d="M-123 1614v14q0 45 47 45h570q47 0 47 -45v-14q0 -23 -11.5 -32t-35.5 -9h-570q-24 0 -35.5 9t-11.5 32zM154 47v1299q0 47 47 47h16q47 0 47 -47v-1299q0 -47 -47 -47h-16q-47 0 -47 47z" />
<glyph unicode="&#x12b;" horiz-adv-x="417" d="M-123 1231v14q0 45 47 45h570q47 0 47 -45v-14q0 -23 -11.5 -32t-35.5 -9h-570q-24 0 -35.5 9t-11.5 32zM154 47v889q0 47 47 47h16q47 0 47 -47v-889q0 -47 -47 -47h-16q-47 0 -47 47z" />
<glyph unicode="&#x12c;" horiz-adv-x="417" d="M-80 1860q0 16 9.5 26t23.5 10h49q20 0 27.5 -9t7.5 -29q0 -100 36 -153.5t136 -53.5t136 53t36 154q0 20 7 29t28 9h49q14 0 23.5 -10t9.5 -26q0 -143 -73 -228.5t-216 -85.5t-216 85t-73 229zM154 47v1299q0 47 47 47h16q47 0 47 -47v-1299q0 -47 -47 -47h-16 q-47 0 -47 47z" />
<glyph unicode="&#x12d;" horiz-adv-x="417" d="M-80 1415q0 16 9.5 26.5t23.5 10.5h49q20 0 27.5 -9t7.5 -30q0 -100 36 -153.5t136 -53.5t136 53.5t36 153.5q0 20 7 29.5t28 9.5h49q14 0 23.5 -10t9.5 -27q0 -143 -73 -228t-216 -85t-216 85t-73 228zM154 47v889q0 47 47 47h16q47 0 47 -47v-889q0 -47 -47 -47h-16 q-47 0 -47 47z" />
<glyph unicode="&#x12e;" horiz-adv-x="417" d="M16 -244q0 57 30 116.5t95 135.5l17 17q-4 12 -4 22v1299q0 47 47 47h16q47 0 47 -47v-1299q0 -10 -4 -22q2 -2 2 -9q0 -4 -6 -14q-68 -82 -92.5 -132t-24.5 -97q0 -27 13.5 -41.5t35.5 -14.5q29 0 45 9q12 4 15 4q8 0 14 -15l21 -45q2 -4 2 -12q0 -12 -23 -23 q-31 -16 -96 -16q-72 0 -111 39t-39 98z" />
<glyph unicode="&#x12f;" horiz-adv-x="462" d="M29 -242q0 57 29.5 116.5t95.5 135.5q10 14 24 21q-2 6 -2 16v889q0 47 47 47h17q47 0 47 -47v-889q0 -27 -15 -39l-4 -4q-68 -82 -92 -132t-24 -97q0 -27 13 -41.5t36 -14.5q29 0 45 9q12 4 14 4q8 0 14 -15l21 -45q2 -4 2 -12q0 -12 -23 -22q-31 -16 -96 -17 q-72 0 -110.5 39t-38.5 98zM154 1288v37q0 29 18 48.5t45 19.5h29q26 0 44.5 -19.5t18.5 -48.5v-37q0 -29 -17.5 -48t-45.5 -19h-29q-27 0 -45 19.5t-18 47.5z" />
<glyph unicode="&#x130;" horiz-adv-x="417" d="M127 1645v26q0 29 19.5 50.5t48.5 21.5h28q29 0 48.5 -21.5t19.5 -50.5v-26q0 -31 -18.5 -51.5t-49.5 -20.5h-28q-29 0 -48.5 21.5t-19.5 50.5zM154 47v1299q0 47 47 47h16q47 0 47 -47v-1299q0 -47 -47 -47h-16q-47 0 -47 47z" />
<glyph unicode="&#x131;" horiz-adv-x="417" d="M154 47v889q0 47 47 47h16q47 0 47 -47v-889q0 -47 -47 -47h-16q-47 0 -47 47z" />
<glyph unicode="&#x132;" horiz-adv-x="1230" d="M154 47v1299q0 47 47 47h16q47 0 47 -47v-1299q0 -47 -47 -47h-16q-47 0 -47 47zM350 80l29 45q6 12 14 12q6 0 15 -6q49 -33 119.5 -50.5t146.5 -17.5q147 0 220 72t73 217v994q0 47 47 47h16q47 0 47 -47v-990q0 -174 -99 -280.5t-288 -106.5q-203 0 -330 78 q-23 12 -10 33z" />
<glyph unicode="&#x133;" horiz-adv-x="950" d="M154 1288v37q0 29 18 48.5t45 19.5h29q27 0 45 -19.5t18 -48.5v-37q0 -29 -17.5 -48t-45.5 -19h-29q-27 0 -45 19.5t-18 47.5zM176 47v889q0 47 47 47h17q47 0 47 -47v-889q0 -47 -47 -47h-17q-47 0 -47 47zM210 -263.5q-3 7.5 3 17.5l29 45q6 12 14 13q6 0 14 -7 q47 -31 94.5 -45t106.5 -14q111 0 152 50t41 169v971q0 47 47 47h16q47 0 47 -47v-977q0 -307 -299 -307q-67 0 -134 17.5t-118 51.5q-10 8 -13 15.5zM641 1288v37q0 29 18.5 48.5t45.5 19.5h28q27 0 45.5 -19.5t18.5 -48.5v-37q0 -29 -17.5 -48t-46.5 -19h-28 q-27 0 -45.5 19.5t-18.5 47.5z" />
<glyph unicode="&#x134;" horiz-adv-x="1099" d="M78 80l28 45q6 12 15 12q6 0 14 -6q49 -33 120 -50.5t146 -17.5q147 0 220 72t73 217v994q0 47 47 47h17q47 0 47 -47v-990q0 -174 -99.5 -280.5t-287.5 -106.5q-203 0 -330 78q-23 12 -10 33zM464 1564.5q-9 12.5 1 24.5l229 320q16 23 23.5 29t23.5 6h25 q16 0 23.5 -6.5t23.5 -28.5l229 -320q4 -4 5 -14q0 -10 -8.5 -16.5t-20.5 -6.5h-39q-23 0 -31 7.5t-22 27.5l-172 250l-172 -250q-14 -20 -22.5 -27.5t-31.5 -7.5h-39q-16 0 -25 12.5z" />
<glyph unicode="&#x135;" horiz-adv-x="927" d="M75 -263.5q-3 7.5 3 17.5l28 45q6 12 15 13q6 0 14 -7q47 -31 94 -45t107 -14q111 0 151.5 50t40.5 169v971q0 47 47 47h17q47 0 47 -47v-977q0 -307 -299 -307q-68 0 -134.5 17.5t-117.5 51.5q-10 8 -13 15.5zM292 1114q-9 12 1 25l229 319q16 23 23.5 29t23.5 6h25 q16 0 23.5 -6t23.5 -29l229 -319q4 -4 4 -15q0 -10 -8 -16t-20 -6h-39q-23 0 -31 7t-22 28l-172 249l-172 -249q-14 -20 -22.5 -27.5t-31.5 -7.5h-39q-16 0 -25 12z" />
<glyph unicode="&#x136;" horiz-adv-x="1247" d="M154 47v1299q0 47 47 47h16q47 0 47 -47v-1299q0 -47 -47 -47h-16q-47 0 -47 47zM371 -416q0 10 2 17l98 297q6 16 15.5 22t29.5 6h49q25 0 25 -16l-4 -16l-131 -304q-6 -12 -15.5 -17t-25.5 -5h-25q-18 0 -18 16zM371 696q0 16 6 26.5t14 20t12 13.5l590 624 q8 8 13.5 10.5t19.5 2.5h78q20 0 20 -15q0 -8 -14 -22l-623 -660l633 -659q14 -14 15 -23q0 -14 -21 -14h-78q-14 0 -19 2t-13 10l-601 625q-4 4 -14 15.5t-14 20.5t-4 23z" />
<glyph unicode="&#x137;" horiz-adv-x="1079" d="M154 47v1299q0 47 47 47h16q47 0 47 -47v-1299q0 -47 -47 -47h-16q-47 0 -47 47zM348 -416q0 10 2 17l99 297q6 16 15 22t30 6h49q25 0 24 -16l-4 -16l-131 -304q-6 -12 -15 -17t-26 -5h-24q-19 0 -19 16zM356 522q0 16 6.5 26.5t14.5 20t12 13.5l430 389q8 8 13.5 10 t19.5 2h74q20 0 20 -14q0 -8 -14 -23l-463 -424l483 -485q14 -14 15 -23q0 -14 -21 -14h-74q-14 0 -19 2t-13 10l-451 451q-4 4 -14 15t-14.5 20.5t-4.5 23.5z" />
<glyph unicode="&#x138;" horiz-adv-x="1058" d="M154 47v889q0 47 47 47h16q47 0 47 -47v-889q0 -47 -47 -47h-16q-47 0 -47 47zM356 492q0 18 7.5 29t25.5 30l408 420q8 8 13 10t19 2h74q20 0 21 -14q0 -8 -15 -23l-440 -454l463 -455q14 -14 14 -23q0 -14 -20 -14h-74q-14 0 -19.5 2t-13.5 10l-430 420 q-18 16 -25.5 27.5t-7.5 32.5z" />
<glyph unicode="&#x139;" horiz-adv-x="1110" d="M154 47v1299q0 47 47 47h16q47 0 47 -47v-1246h727q47 0 47 -45v-14q0 -23 -11 -32t-36 -9h-790q-47 0 -47 47zM166 1534l4 16l104 289q6 16 15.5 22.5t29.5 6.5h56q25 0 24 -17q0 -10 -4 -16l-137 -295q-6 -12 -15.5 -17t-25.5 -5h-31q-20 0 -20 16z" />
<glyph unicode="&#x13a;" horiz-adv-x="505" d="M154 47v1299q0 47 47 47h16q47 0 47 -47v-1299q0 -47 -47 -47h-16q-47 0 -47 47zM166 1612l4 16l104 289q6 16 15.5 22.5t29.5 6.5h56q25 0 24 -17q0 -10 -4 -16l-137 -295q-6 -12 -15.5 -17.5t-25.5 -5.5h-31q-20 1 -20 17z" />
<glyph unicode="&#x13b;" horiz-adv-x="1110" d="M154 47v1299q0 47 47 47h16q47 0 47 -47v-1246h727q47 0 47 -45v-14q0 -23 -11 -32t-36 -9h-790q-47 0 -47 47zM430 -416q0 10 2 17l98 297q6 16 15.5 22t29.5 6h50q25 0 24 -16l-4 -16l-131 -304q-6 -12 -15.5 -17t-25.5 -5h-24q-19 0 -19 16z" />
<glyph unicode="&#x13c;" horiz-adv-x="512" d="M51 -416q0 10 2 17l99 297q6 16 15 22t30 6h49q25 0 24 -16l-4 -16l-131 -304q-6 -12 -15 -17t-26 -5h-24q-19 0 -19 16zM160 47v1299q0 47 47 47h16q47 0 47 -47v-1299q0 -47 -47 -47h-16q-47 0 -47 47z" />
<glyph unicode="&#x13d;" horiz-adv-x="1110" d="M154 47v1299q0 47 47 47h16q47 0 47 -47v-1246h727q47 0 47 -45v-14q0 -23 -11 -32t-36 -9h-790q-47 0 -47 47zM637 1147q0 10 2 16l98 297q6 16 15.5 22.5t29.5 6.5h49q25 0 25 -16l-4 -17l-131 -303q-6 -12 -15.5 -17.5t-25.5 -5.5h-25q-18 1 -18 17z" />
<glyph unicode="&#x13e;" horiz-adv-x="704" d="M154 47v1299q0 47 47 47h16q47 0 47 -47v-1299q0 -47 -47 -47h-16q-47 0 -47 47zM434 1241q0 10 2 16l99 297q6 16 15 22.5t30 6.5h49q25 0 24 -16l-4 -17l-131 -303q-6 -12 -15 -17t-26 -5h-24q-19 0 -19 16z" />
<glyph unicode="&#x13f;" horiz-adv-x="1110" d="M154 47v1299q0 47 47 47h16q47 0 47 -47v-1246h727q47 0 47 -45v-14q0 -23 -11 -32t-36 -9h-790q-47 0 -47 47zM567 647v27q0 29 19.5 50t48.5 21h29q29 0 48 -21.5t19 -49.5v-27q0 -31 -18.5 -51.5t-48.5 -20.5h-29q-29 0 -48.5 21.5t-19.5 50.5z" />
<glyph unicode="&#x140;" horiz-adv-x="677" d="M154 47v1299q0 47 47 47h16q47 0 47 -47v-1299q0 -47 -47 -47h-16q-47 0 -47 47zM463 666v26q0 29 19.5 50.5t47.5 21.5h29q29 0 48.5 -21.5t19.5 -50.5v-26q0 -31 -18.5 -51.5t-49.5 -20.5h-29q-28 0 -47.5 21.5t-19.5 50.5z" />
<glyph unicode="&#x141;" horiz-adv-x="1259" d="M53 522q0 20 25 33l225 129v662q0 47 47 47h17q47 0 47 -47v-598l239 137q16 10 27 10q20 0 35 -27l8 -12q8 -10 8 -22q0 -18 -29 -35l-288 -166v-533h727q47 0 47 -45v-14q0 -23 -11.5 -32t-35.5 -9h-791q-47 0 -47 47v522l-174 -100q-20 -10 -31 -10q-16 0 -30 22 l-7 13q-8 14 -8 28z" />
<glyph unicode="&#x142;" horiz-adv-x="782" d="M53 543q0 20 25 32l248 142v629q0 47 47 47h16q47 0 47 -47v-566l217 125q16 10 27 10q20 0 35 -26l8 -12q8 -11 8 -23q0 -18 -29 -35l-266 -153v-619q0 -47 -47 -47h-16q-47 0 -47 47v555l-197 -113q-20 -10 -31 -10q-16 0 -30 23l-7 12q-8 14 -8 29z" />
<glyph unicode="&#x143;" horiz-adv-x="1425" d="M154 47v1299q0 47 47 47h28q18 0 28.5 -6.5t25.5 -24.5l878 -1196v1180q0 47 47 47h17q47 0 47 -47v-1299q0 -47 -47 -47h-29q-18 0 -28.5 6t-24.5 25l-879 1192v-1176q0 -47 -47 -47h-16q-47 0 -47 47zM672 1559l4 16l104 289q6 16 15.5 22t29.5 6h56q25 0 24 -16 q0 -10 -4 -16l-137 -295q-6 -12 -15.5 -17.5t-25.5 -5.5h-31q-20 1 -20 17z" />
<glyph unicode="&#x144;" horiz-adv-x="1204" d="M154 47v889q0 25 8 36t31 11h20q23 0 31 -11t8 -36v-105q76 84 189.5 133.5t252.5 49.5q168 0 267.5 -85t99.5 -259v-623q0 -47 -47 -47h-17q-47 0 -47 47v617q0 139 -70.5 197.5t-211.5 58.5q-94 0 -187.5 -38t-155 -106.5t-61.5 -152.5v-576q0 -47 -47 -47h-16 q-47 0 -47 47zM522 1133l4 16l105 289q6 16 15 22t30 6h55q25 0 25 -16q0 -10 -4 -16l-138 -295q-6 -12 -15 -17.5t-26 -5.5h-30q-21 1 -21 17z" />
<glyph unicode="&#x145;" horiz-adv-x="1425" d="M154 47v1299q0 47 47 47h28q18 0 28.5 -6.5t25.5 -24.5l878 -1196v1180q0 47 47 47h17q47 0 47 -47v-1299q0 -47 -47 -47h-29q-18 0 -28.5 6t-24.5 25l-879 1192v-1176q0 -47 -47 -47h-16q-47 0 -47 47zM582 -416q0 10 2 17l98 297q6 16 15.5 22t29.5 6h49q25 0 25 -16 l-4 -16l-131 -304q-6 -12 -15.5 -17t-25.5 -5h-25q-18 0 -18 16z" />
<glyph unicode="&#x146;" horiz-adv-x="1204" d="M154 47v889q0 25 8 36t31 11h20q23 0 31 -11t8 -36v-105q76 84 189.5 133.5t252.5 49.5q168 0 267.5 -85t99.5 -259v-623q0 -47 -47 -47h-17q-47 0 -47 47v617q0 139 -70.5 197.5t-211.5 58.5q-94 0 -187.5 -38t-155 -106.5t-61.5 -152.5v-576q0 -47 -47 -47h-16 q-47 0 -47 47zM461 -416q0 10 2 17l98 297q6 16 15.5 22t29.5 6h49q25 0 25 -16l-4 -16l-131 -304q-6 -12 -15.5 -17t-25.5 -5h-25q-18 0 -18 16z" />
<glyph unicode="&#x147;" horiz-adv-x="1425" d="M154 47v1299q0 47 47 47h28q18 0 28.5 -6.5t25.5 -24.5l878 -1196v1180q0 47 47 47h17q47 0 47 -47v-1299q0 -47 -47 -47h-29q-18 0 -28.5 6t-24.5 25l-879 1192v-1176q0 -47 -47 -47h-16q-47 0 -47 47zM422 1896q0 10 8 16.5t21 6.5h38q23 0 31 -7t23 -28l172 -250 l172 250q14 20 22.5 27.5t30.5 7.5h39q16 0 25.5 -12.5t-0.5 -24.5l-230 -319q-16 -23 -23.5 -29t-23.5 -6h-25q-16 0 -23 6t-24 29l-229 319q-4 4 -4 14z" />
<glyph unicode="&#x148;" horiz-adv-x="1204" d="M154 47v889q0 25 8 36t31 11h20q23 0 31 -11t8 -36v-105q76 84 189.5 133.5t252.5 49.5q168 0 267.5 -85t99.5 -259v-623q0 -47 -47 -47h-17q-47 0 -47 47v617q0 139 -70.5 197.5t-211.5 58.5q-94 0 -187.5 -38t-155 -106.5t-61.5 -152.5v-576q0 -47 -47 -47h-16 q-47 0 -47 47zM313 1470q0 10 8.5 16.5t20.5 6.5h39q23 0 31 -7t22 -28l172 -250l172 250q14 20 22.5 27.5t30.5 7.5h39q16 0 25.5 -12.5t-0.5 -24.5l-229 -319q-16 -23 -23.5 -29t-24.5 -6h-24q-16 0 -23.5 6t-23.5 29l-230 319q-4 4 -4 14z" />
<glyph unicode="&#x149;" horiz-adv-x="1308" d="M53 1106q0 10 2 16l99 297q6 16 15 22.5t30 6.5h49q25 0 24 -16l-4 -17l-131 -303q-6 -12 -15 -17t-26 -5h-24q-19 0 -19 16zM258 47v889q0 25 8 36t31 11h20q23 0 31 -11t8 -36v-105q76 84 189.5 133.5t253.5 49.5q168 0 267 -85t99 -259v-623q0 -47 -47 -47h-16 q-47 0 -47 47v617q0 139 -71 197.5t-212 58.5q-94 0 -187 -38t-154.5 -106.5t-61.5 -152.5v-576q0 -47 -47 -47h-17q-47 0 -47 47z" />
<glyph unicode="&#x14a;" horiz-adv-x="1425" d="M154 47v1299q0 47 47 47h28q18 0 28.5 -6.5t25.5 -24.5l878 -1196v1180q0 47 47 47h17q47 0 47 -47v-1299v-190q0 -174 -99.5 -280.5t-287.5 -106.5q-203 0 -330 77q-23 12 -10 33l28 45q6 12 15 13q6 0 14 -7q49 -33 120 -50t146 -17q147 0 220 71.5t73 217.5v157 q-10 6 -18 21l-879 1192v-1176q0 -47 -47 -47h-16q-47 0 -47 47z" />
<glyph unicode="&#x14b;" horiz-adv-x="1204" d="M154 47v889q0 25 8 36t31 11h20q23 0 31 -11t8 -36v-105q76 84 189.5 133.5t252.5 49.5q168 0 267.5 -85t99.5 -259v-893q0 -307 -299 -307q-68 0 -134.5 17t-117.5 52q-10 8 -13 15.5t3 17.5l28 45q6 12 15 12q6 0 14 -6q47 -31 94 -45t107 -14q111 0 151.5 50t40.5 169 v881q0 139 -70.5 197.5t-211.5 58.5q-94 0 -187.5 -38t-155 -106.5t-61.5 -152.5v-576q0 -47 -47 -47h-16q-47 0 -47 47z" />
<glyph unicode="&#x14c;" horiz-adv-x="1572" d="M113 696q0 227 79.5 391t231 250t362.5 86t362.5 -86t231.5 -249.5t80 -391.5q0 -227 -80 -391t-231.5 -250t-362.5 -86t-362.5 86t-231 250t-79.5 391zM219 696q0 -307 149.5 -470t417.5 -163q269 0 418.5 163t149.5 470t-149.5 470t-418.5 163q-268 0 -417.5 -162.5 t-149.5 -470.5zM455 1657v14q0 45 47 45h569q47 0 47 -45v-14q0 -23 -11 -32t-36 -9h-569q-25 0 -36 9t-11 32z" />
<glyph unicode="&#x14d;" horiz-adv-x="1265" d="M113 492q0 242 134 382t386 140t386 -140.5t134 -381.5q0 -242 -134 -382.5t-386 -140.5t-386 140.5t-134 382.5zM219 492q0 -205 106.5 -317t307.5 -112t307.5 112t106.5 317t-106.5 316.5t-307.5 111.5t-307.5 -112t-106.5 -316zM301 1231v14q0 45 47 45h570 q47 0 47 -45v-14q0 -23 -11.5 -32t-35.5 -9h-570q-24 0 -35.5 9t-11.5 32z" />
<glyph unicode="&#x14e;" horiz-adv-x="1572" d="M113 696q0 227 79.5 391t231 250t362.5 86t362.5 -86t231.5 -249.5t80 -391.5q0 -227 -80 -391t-231.5 -250t-362.5 -86t-362.5 86t-231 250t-79.5 391zM219 696q0 -307 149.5 -470t417.5 -163q269 0 418.5 163t149.5 470t-149.5 470t-418.5 163q-268 0 -417.5 -162.5 t-149.5 -470.5zM498 1841q0 16 9 26.5t23 10.5h50q20 0 27 -9t7 -30q0 -100 36 -153.5t136 -53.5t136 53.5t36 153.5q0 20 7.5 29.5t27.5 9.5h49q14 0 23.5 -10t9.5 -27q0 -143 -72.5 -228t-216.5 -85q-143 0 -215.5 85t-72.5 228z" />
<glyph unicode="&#x14f;" horiz-adv-x="1265" d="M113 492q0 242 134 382t386 140t386 -140.5t134 -381.5q0 -242 -134 -382.5t-386 -140.5t-386 140.5t-134 382.5zM219 492q0 -205 106.5 -317t307.5 -112t307.5 112t106.5 317t-106.5 316.5t-307.5 111.5t-307.5 -112t-106.5 -316zM344 1415q0 16 9 26.5t24 10.5h49 q20 0 27.5 -9t7.5 -30q0 -100 35.5 -153.5t136.5 -53.5q100 0 136 53.5t36 153.5q0 20 7 29.5t28 9.5h49q14 0 23.5 -10t9.5 -27q0 -143 -73 -228t-216 -85q-144 0 -216.5 85t-72.5 228z" />
<glyph unicode="&#x150;" horiz-adv-x="1572" d="M113 696q0 227 79.5 391t231 250t362.5 86t362.5 -86t231.5 -249.5t80 -391.5q0 -227 -80 -391t-231.5 -250t-362.5 -86t-362.5 86t-231 250t-79.5 391zM219 696q0 -307 149.5 -470t417.5 -163q269 0 418.5 163t149.5 470t-149.5 470t-418.5 163q-268 0 -417.5 -162.5 t-149.5 -470.5zM551 1559q0 10 4 16l145 289q8 16 16.5 22t28.5 6h56q27 0 26 -16q0 -6 -6 -16l-178 -295q-8 -12 -16.5 -17.5t-24.5 -5.5h-31q-20 1 -20 17zM872 1559q0 10 5 16l145 289q8 16 16.5 22t28.5 6h55q27 0 27 -16q0 -6 -6 -16l-178 -295q-8 -12 -16.5 -17.5 t-24.5 -5.5h-31q-21 1 -21 17z" />
<glyph unicode="&#x151;" horiz-adv-x="1265" d="M113 492q0 242 134 382t386 140t386 -140.5t134 -381.5q0 -242 -134 -382.5t-386 -140.5t-386 140.5t-134 382.5zM219 492q0 -205 106.5 -317t307.5 -112t307.5 112t106.5 317t-106.5 316.5t-307.5 111.5t-307.5 -112t-106.5 -316zM381 1133q0 10 4 16l145 289 q8 16 16.5 22t28.5 6h56q27 0 26 -16q0 -6 -6 -16l-178 -295q-8 -12 -16 -17.5t-25 -5.5h-31q-20 1 -20 17zM702 1133q0 10 5 16l145 289q8 16 16.5 22t28.5 6h55q27 0 27 -16q0 -6 -6 -16l-178 -295q-8 -12 -16.5 -17.5t-24.5 -5.5h-31q-21 1 -21 17z" />
<glyph unicode="&#x152;" horiz-adv-x="2412" d="M113 696q0 227 79.5 391t231 250t362.5 86q195 0 339.5 -73.5t228.5 -212.5v209q0 47 47 47h852q25 0 36 -9.5t11 -31.5v-15q0 -45 -47 -45h-789v-544h611q25 0 36 -9.5t11 -31.5v-15q0 -45 -47 -45h-611v-547h789q47 0 47 -45v-14q0 -23 -11.5 -32t-35.5 -9h-852 q-47 0 -47 47v209q-84 -139 -228.5 -213t-339.5 -74q-211 0 -362.5 86t-231 250t-79.5 391zM219 696q0 -307 149.5 -470t417.5 -163q269 0 418.5 163t149.5 470t-149.5 470t-418.5 163q-268 0 -417.5 -162.5t-149.5 -470.5z" />
<glyph unicode="&#x153;" horiz-adv-x="2166" d="M113 492q0 242 134 382t386 140q172 0 290.5 -67.5t176.5 -192.5q59 129 177 194.5t286 65.5q492 0 491 -531q0 -18 -10 -29.5t-31 -11.5h-858q0 -186 118 -282.5t326 -96.5q96 0 181.5 23t144.5 64q10 6 14 6q8 0 15 -13l26 -45q4 -6 5 -14q0 -8 -15 -18 q-76 -49 -179 -73t-208 -24q-164 0 -293 62.5t-192 191.5q-57 -123 -176 -188.5t-289 -65.5q-252 0 -386 140.5t-134 382.5zM219 492q0 -205 106.5 -317t307.5 -112t307.5 112t106.5 317t-106.5 316.5t-307.5 111.5t-307.5 -112t-106.5 -316zM1155 543h793 q0 180 -96.5 278.5t-288.5 98.5q-195 0 -301.5 -102.5t-106.5 -274.5z" />
<glyph unicode="&#x154;" horiz-adv-x="1294" d="M154 47v1299q0 47 47 47h547q213 0 323.5 -105.5t110.5 -296.5q0 -160 -77 -260t-228 -131l251 -567l5 -17q0 -16 -25 -16h-49q-20 0 -28.5 6t-18.5 29l-246 555h-502v-543q0 -47 -47 -47h-16q-47 0 -47 47zM264 690h492q164 0 241.5 73t77.5 228q0 156 -77.5 228.5 t-241.5 72.5h-492v-602zM520 1559l4 16l105 289q6 16 15 22t30 6h55q25 0 25 -16q0 -10 -4 -16l-138 -295q-6 -12 -15 -17.5t-26 -5.5h-30q-21 1 -21 17z" />
<glyph unicode="&#x155;" horiz-adv-x="761" d="M154 47v889q0 25 8 36t31 11h20q23 0 31 -11t8 -36v-88q55 78 140 122t200 44q25 0 49.5 -4t34.5 -11q16 -10 12 -22l-8 -59q-2 -18 -23 -11q-41 12 -92 13q-129 0 -215 -73t-86 -204v-596q0 -47 -47 -47h-16q-47 0 -47 47zM362 1133l5 16l104 289q6 16 15.5 22t29.5 6 h55q25 0 25 -16q0 -10 -4 -16l-137 -295q-6 -12 -15.5 -17.5t-25.5 -5.5h-31q-21 1 -21 17z" />
<glyph unicode="&#x156;" horiz-adv-x="1294" d="M154 47v1299q0 47 47 47h547q213 0 323.5 -105.5t110.5 -296.5q0 -160 -77 -260t-228 -131l251 -567l5 -17q0 -16 -25 -16h-49q-20 0 -28.5 6t-18.5 29l-246 555h-502v-543q0 -47 -47 -47h-16q-47 0 -47 47zM264 690h492q164 0 241.5 73t77.5 228q0 156 -77.5 228.5 t-241.5 72.5h-492v-602zM465 -416q0 10 2 17l98 297q6 16 15.5 22t29.5 6h49q25 0 25 -16l-4 -16l-131 -304q-6 -12 -15.5 -17t-25.5 -5h-25q-18 0 -18 16z" />
<glyph unicode="&#x157;" horiz-adv-x="786" d="M74 -416q0 10 2 17l98 297q6 16 15.5 22t29.5 6h49q25 0 25 -16l-4 -16l-131 -304q-6 -12 -15.5 -17t-25.5 -5h-25q-18 0 -18 16zM178 47v889q0 25 8.5 36t30.5 11h21q23 0 30.5 -11t7.5 -36v-88q55 78 140.5 122t199.5 44q25 0 49.5 -4t34.5 -11q16 -10 13 -22l-8 -59 q-2 -18 -23 -11q-41 12 -92 13q-129 0 -215 -73t-86 -204v-596q0 -47 -47 -47h-17q-47 0 -47 47z" />
<glyph unicode="&#x158;" horiz-adv-x="1294" d="M154 47v1299q0 47 47 47h547q213 0 323.5 -105.5t110.5 -296.5q0 -160 -77 -260t-228 -131l251 -567l5 -17q0 -16 -25 -16h-49q-20 0 -28.5 6t-18.5 29l-246 555h-502v-543q0 -47 -47 -47h-16q-47 0 -47 47zM264 690h492q164 0 241.5 73t77.5 228q0 156 -77.5 228.5 t-241.5 72.5h-492v-602zM281 1896q0 10 8 16.5t20 6.5h39q23 0 31 -7t22 -28l172 -250l172 250q14 20 22.5 27.5t31.5 7.5h39q16 0 25 -12.5t-1 -24.5l-229 -319q-16 -23 -23.5 -29t-23.5 -6h-25q-16 0 -23.5 6t-23.5 29l-229 319q-4 4 -4 14z" />
<glyph unicode="&#x159;" horiz-adv-x="782" d="M123 1470q0 10 8 16.5t21 6.5h38q23 0 31 -7t23 -28l172 -250l172 250q14 20 22 27.5t31 7.5h39q16 0 25.5 -12.5t-0.5 -24.5l-230 -319q-16 -23 -23.5 -29t-23.5 -6h-25q-16 0 -23 6t-24 29l-229 319q-4 4 -4 14zM172 47v889q0 25 8 36t31 11h20q23 0 31 -11t8 -36v-88 q55 78 140.5 122t199.5 44q25 0 49.5 -4t34.5 -11q16 -10 13 -22l-9 -59q-2 -18 -22 -11q-41 12 -92 13q-129 0 -215 -73t-86 -204v-596q0 -47 -47 -47h-17q-47 0 -47 47z" />
<glyph unicode="&#x15a;" horiz-adv-x="1171" d="M115 82q-2 6 4 18l26 45q6 12 15 13q4 0 14 -6q66 -39 179.5 -64t226.5 -25q182 0 277 62.5t95 204.5q0 96 -41 152.5t-118.5 94t-231.5 87.5q-127 41 -212 82.5t-142 118.5t-57 196q0 178 120.5 270t319.5 92q131 0 242.5 -26.5t173.5 -69.5q12 -8 14 -14t-4 -19 l-27 -45q-6 -12 -14 -12q-6 0 -14 6q-66 41 -153 63.5t-218 22.5q-334 0 -334 -268q0 -90 38 -143.5t105.5 -86t208.5 -81.5q16 -4 49 -17q147 -51 227.5 -94t127.5 -116.5t47 -194.5q0 -172 -123 -265.5t-356 -93.5q-115 0 -245 25.5t-206 73.5q-12 8 -14 14zM551 1559 l4 16l104 289q6 16 15.5 22t30.5 6h55q25 0 24 -16q0 -10 -4 -16l-137 -295q-6 -12 -15.5 -17.5t-25.5 -5.5h-31q-20 1 -20 17z" />
<glyph unicode="&#x15b;" horiz-adv-x="1036" d="M115 82q-2 6 4 18l26 45q6 12 15 13q4 0 14 -6q63 -41 163.5 -65t192.5 -24q141 0 214 44.5t73 121.5q0 59 -25.5 94t-90 64t-201.5 70q-121 37 -189.5 67.5t-110.5 86t-42 143.5q0 129 102 194.5t268 65.5q106 0 203.5 -25.5t159.5 -70.5q12 -8 14 -14.5t-4 -18.5 l-27 -45q-6 -12 -14 -13q-6 0 -14 7q-125 86 -318 86q-264 0 -264 -166q0 -61 27.5 -96t80 -56.5t169.5 -58.5q18 -4 55 -17q129 -39 197.5 -76.5t99.5 -89t31 -133.5q0 -119 -99.5 -188.5t-294.5 -69.5q-106 0 -217.5 24.5t-183.5 74.5q-12 8 -14 14zM492 1133l4 16 l104 289q6 16 15.5 22t29.5 6h55q25 0 25 -16q0 -10 -4 -16l-137 -295q-6 -12 -15.5 -17.5t-25.5 -5.5h-31q-20 1 -20 17z" />
<glyph unicode="&#x15c;" horiz-adv-x="1171" d="M115 82q-2 6 4 18l26 45q6 12 15 13q4 0 14 -6q66 -39 179.5 -64t226.5 -25q182 0 277 62.5t95 204.5q0 96 -41 152.5t-118.5 94t-231.5 87.5q-127 41 -212 82.5t-142 118.5t-57 196q0 178 120.5 270t319.5 92q131 0 242.5 -26.5t173.5 -69.5q12 -8 14 -14t-4 -19 l-27 -45q-6 -12 -14 -12q-6 0 -14 6q-66 41 -153 63.5t-218 22.5q-334 0 -334 -268q0 -90 38 -143.5t105.5 -86t208.5 -81.5q16 -4 49 -17q147 -51 227.5 -94t127.5 -116.5t47 -194.5q0 -172 -123 -265.5t-356 -93.5q-115 0 -245 25.5t-206 73.5q-12 8 -14 14zM310 1540 q-9 12 1 25l230 319q16 23 23 29t24 6h24q16 0 23.5 -6t23.5 -29l230 -319q4 -4 4 -15q0 -10 -8 -16t-21 -6h-39q-23 0 -31 7t-22 28l-172 249l-172 -249q-14 -20 -22.5 -27.5t-30.5 -7.5h-39q-17 0 -26 12z" />
<glyph unicode="&#x15d;" horiz-adv-x="1036" d="M115 82q-2 6 4 18l26 45q6 12 15 13q4 0 14 -6q63 -41 163.5 -65t192.5 -24q141 0 214 44.5t73 121.5q0 59 -25.5 94t-90 64t-201.5 70q-121 37 -189.5 67.5t-110.5 86t-42 143.5q0 129 102 194.5t268 65.5q106 0 203.5 -25.5t159.5 -70.5q12 -8 14 -14.5t-4 -18.5 l-27 -45q-6 -12 -14 -13q-6 0 -14 7q-125 86 -318 86q-264 0 -264 -166q0 -61 27.5 -96t80 -56.5t169.5 -58.5q18 -4 55 -17q129 -39 197.5 -76.5t99.5 -89t31 -133.5q0 -119 -99.5 -188.5t-294.5 -69.5q-106 0 -217.5 24.5t-183.5 74.5q-12 8 -14 14zM234.5 1114 q-9.5 12 1.5 25l229 319q16 23 23.5 29t23.5 6h25q16 0 23 -6t24 -29l229 -319q4 -4 4 -15q0 -10 -8 -16t-21 -6h-38q-23 0 -31 7t-23 28l-172 249l-172 -249q-14 -20 -22 -27.5t-31 -7.5h-39q-16 0 -25.5 12z" />
<glyph unicode="&#x15e;" horiz-adv-x="1171" d="M115 82q-2 6 4 18l26 45q6 12 15 13q4 0 14 -6q66 -39 179.5 -64t226.5 -25q182 0 277 62.5t95 204.5q0 96 -41 152.5t-118.5 94t-231.5 87.5q-127 41 -212 82.5t-142 118.5t-57 196q0 178 120.5 270t319.5 92q131 0 242.5 -26.5t173.5 -69.5q12 -8 14 -14t-4 -19 l-27 -45q-6 -12 -14 -12q-6 0 -14 6q-66 41 -153 63.5t-218 22.5q-334 0 -334 -268q0 -90 38 -143.5t105.5 -86t208.5 -81.5q16 -4 49 -17q147 -51 227.5 -94t127.5 -116.5t47 -194.5q0 -154 -96.5 -244t-280.5 -109l-47 -102q74 0 117 -39t43 -113q0 -78 -51.5 -118.5 t-139.5 -40.5q-80 -1 -133 32q-18 12 -22.5 17.5t2.5 19.5l16 35q6 16 18 17q2 0 19 -9q41 -25 100 -24q51 0 71.5 17.5t20.5 58.5q0 51 -32.5 66t-108.5 15h-27q-16 0 -21 9.5t1 23.5l51 129q-119 4 -239.5 27.5t-190.5 71.5q-12 8 -14 14z" />
<glyph unicode="&#x15f;" horiz-adv-x="1036" d="M115 82q-2 6 4 18l26 45q6 12 15 13q4 0 14 -6q63 -41 163.5 -65t192.5 -24q141 0 214 44.5t73 121.5q0 59 -25.5 94t-90 64t-201.5 70q-121 37 -189.5 67.5t-110.5 86t-42 143.5q0 129 102 194.5t268 65.5q106 0 203.5 -25.5t159.5 -70.5q12 -8 14 -14.5t-4 -18.5 l-27 -45q-6 -12 -14 -13q-6 0 -14 7q-125 86 -318 86q-264 0 -264 -166q0 -61 27.5 -96t80 -56.5t169.5 -58.5q18 -4 55 -17q129 -39 197.5 -76.5t99.5 -89t31 -133.5q0 -106 -78 -172.5t-232 -81.5l-45 -98q74 0 117 -39t43 -112q0 -78 -51 -119t-139 -41q-80 0 -133 33 q-18 12 -22.5 17t1.5 19l16 35q6 16 19 17q2 0 18 -9q41 -25 101 -24q51 0 71.5 17.5t20.5 58.5q0 51 -33 66.5t-109 15.5h-26q-16 0 -21.5 9t0.5 23l50 127q-102 6 -199.5 30t-163.5 69q-12 8 -14 14z" />
<glyph unicode="&#x160;" horiz-adv-x="1171" d="M115 82q-2 6 4 18l26 45q6 12 15 13q4 0 14 -6q66 -39 179.5 -64t226.5 -25q182 0 277 62.5t95 204.5q0 96 -41 152.5t-118.5 94t-231.5 87.5q-127 41 -212 82.5t-142 118.5t-57 196q0 178 120.5 270t319.5 92q131 0 242.5 -26.5t173.5 -69.5q12 -8 14 -14t-4 -19 l-27 -45q-6 -12 -14 -12q-6 0 -14 6q-66 41 -153 63.5t-218 22.5q-334 0 -334 -268q0 -90 38 -143.5t105.5 -86t208.5 -81.5q16 -4 49 -17q147 -51 227.5 -94t127.5 -116.5t47 -194.5q0 -172 -123 -265.5t-356 -93.5q-115 0 -245 25.5t-206 73.5q-12 8 -14 14zM305 1921 q0 10 8.5 16.5t20.5 6.5h39q23 0 31 -7.5t22 -27.5l172 -250l172 250q14 20 22.5 27.5t30.5 7.5h39q16 0 25.5 -12.5t-0.5 -24.5l-230 -320q-16 -23 -23 -29t-24 -6h-24q-17 0 -24 6.5t-23 28.5l-230 320q-4 4 -4 14z" />
<glyph unicode="&#x161;" horiz-adv-x="1036" d="M115 82q-2 6 4 18l26 45q6 12 15 13q4 0 14 -6q63 -41 163.5 -65t192.5 -24q141 0 214 44.5t73 121.5q0 59 -25.5 94t-90 64t-201.5 70q-121 37 -189.5 67.5t-110.5 86t-42 143.5q0 129 102 194.5t268 65.5q106 0 203.5 -25.5t159.5 -70.5q12 -8 14 -14.5t-4 -18.5 l-27 -45q-6 -12 -14 -13q-6 0 -14 7q-125 86 -318 86q-264 0 -264 -166q0 -61 27.5 -96t80 -56.5t169.5 -58.5q18 -4 55 -17q129 -39 197.5 -76.5t99.5 -89t31 -133.5q0 -119 -99.5 -188.5t-294.5 -69.5q-106 0 -217.5 24.5t-183.5 74.5q-12 8 -14 14zM240 1470q0 10 8 16.5 t20 6.5h39q23 0 31 -7t22 -28l172 -250l173 250q14 20 22 27.5t31 7.5h39q16 0 25 -12.5t-1 -24.5l-229 -319q-16 -23 -23.5 -29t-23.5 -6h-25q-16 0 -23.5 6t-23.5 29l-229 319q-4 4 -4 14z" />
<glyph unicode="&#x162;" horiz-adv-x="1146" d="M72 1333v15q0 45 47 45h909q47 0 47 -45v-15q0 -23 -11 -32t-36 -9h-399v-1245v-6v-6l-4 -17l-47 -102q74 0 116.5 -39t42.5 -113q0 -78 -51 -118.5t-139 -40.5q-80 0 -133 33q-18 12 -22.5 17t1.5 19l17 35q6 16 18 17q2 0 18 -9q41 -25 101 -24q51 0 71.5 17.5 t20.5 58.5q0 51 -33 66t-108 15h-27q-16 0 -21.5 9.5t1.5 23.5l55 140q6 16 12 20v4v1245h-399q-25 0 -36 9.5t-11 31.5z" />
<glyph unicode="&#x163;" horiz-adv-x="886" d="M72 924v14q0 45 47 45h141v174q0 35 8 61.5t31 71.5q6 12 11 16.5t16 4.5h14q31 0 31 -37v-291h311q47 0 47 -45v-14q0 -23 -11 -32t-36 -9h-311v-588q0 -119 43 -175.5t145 -56.5q59 0 102.5 14.5t90.5 45.5q10 6 14 6q8 0 14 -12l29 -45q4 -9 4 -13q0 -10 -14 -20 q-86 -57 -197 -68q0 -2 -4 -14l-47 -102q74 0 117 -39t43 -113q0 -78 -51.5 -119t-139.5 -41q-80 0 -133 33q-18 12 -22.5 17.5t2.5 19.5l16 35q6 16 18 16q2 0 19 -8q41 -25 100 -25q51 0 71.5 17.5t20.5 58.5q0 51 -32.5 66.5t-108.5 15.5h-27q-16 0 -21 9t1 24l55 139 l6 14q-117 18 -171 100.5t-54 213.5v594h-141q-25 0 -36 9t-11 32z" />
<glyph unicode="&#x164;" horiz-adv-x="1146" d="M72 1333v15q0 45 47 45h909q47 0 47 -45v-15q0 -23 -11 -32t-36 -9h-399v-1245q0 -47 -47 -47h-17q-47 0 -47 47v1245h-399q-25 0 -36 9.5t-11 31.5zM281 1896q0 10 8 16.5t20 6.5h39q23 0 31 -7t22 -28l172 -250l172 250q14 20 22.5 27.5t31.5 7.5h39q16 0 25 -12.5 t-1 -24.5l-229 -319q-16 -23 -23.5 -29t-23.5 -6h-25q-16 0 -23.5 6t-23.5 29l-229 319q-4 4 -4 14z" />
<glyph unicode="&#x165;" horiz-adv-x="886" d="M72 924v14q0 45 47 45h141v174q0 35 8 61.5t31 71.5q6 12 11 16.5t16 4.5h14q31 0 31 -37v-291h311q47 0 47 -45v-14q0 -23 -11 -32t-36 -9h-311v-588q0 -119 43 -175.5t145 -56.5q59 0 102.5 14.5t90.5 45.5q10 6 14 6q8 0 14 -12l29 -45q4 -8 4 -13q0 -10 -14 -20 q-102 -70 -244 -70q-154 0 -224.5 85t-70.5 235v594h-141q-25 0 -36 9t-11 32zM588 1251q0 10 2 17l98 297q6 16 15.5 22t29.5 6h49q25 0 25 -16l-4 -16l-131 -304q-6 -12 -15.5 -17t-25.5 -5h-25q-18 0 -18 16z" />
<glyph unicode="&#x166;" horiz-adv-x="1146" d="M72 1333v15q0 45 47 45h909q47 0 47 -45v-15q0 -23 -11 -32t-36 -9h-399v-440h227q47 0 47 -45v-14q0 -23 -11 -32t-36 -9h-227v-705q0 -47 -47 -47h-17q-47 0 -47 47v705h-231q-25 0 -36 9t-11 32v14q0 45 47 45h231v440h-399q-25 0 -36 9.5t-11 31.5z" />
<glyph unicode="&#x167;" horiz-adv-x="886" d="M72 924v14q0 45 47 45h141v174q0 35 8 61.5t31 71.5q6 12 11 16.5t16 4.5h14q31 0 31 -37v-291h311q47 0 47 -45v-14q0 -23 -11 -32t-36 -9h-311v-248h319q47 0 47 -45v-15q0 -23 -11 -31.5t-36 -8.5h-319v-240q0 -119 43 -175.5t145 -56.5q59 0 102.5 14.5t90.5 45.5 q10 6 14 6q8 0 14 -12l29 -45q4 -9 4 -13q0 -10 -14 -20q-102 -70 -244 -70q-154 0 -224.5 85t-70.5 235v246h-139q-25 0 -36 9t-11 31v15q0 45 47 45h139v248h-141q-25 0 -36 9t-11 32z" />
<glyph unicode="&#x168;" horiz-adv-x="1466" d="M143 481v865q0 47 47 47h17q47 0 47 -47v-873q0 -197 134 -303.5t345 -106.5t345 106.5t134 303.5v873q0 47 48 47h16q47 0 47 -47v-865q0 -156 -74.5 -271.5t-209 -178t-306.5 -62.5t-306 62.5t-209 178.5t-75 271zM346 1606q0 16 21 43q80 98 213 98q59 0 97 -16.5 t81 -49.5q37 -27 62.5 -39t64.5 -12q47 0 79.5 15.5t59.5 48.5q27 31 47 30q18 0 37 -18q14 -14 14 -29q0 -16 -20 -43q-80 -98 -213 -98q-55 0 -93 16.5t-83 49.5q-39 27 -65.5 39t-63.5 12q-47 0 -80 -15.5t-60 -48.5q-27 -31 -47 -30q-18 0 -37 18q-14 14 -14 29z" />
<glyph unicode="&#x169;" horiz-adv-x="1173" d="M143 332v604q0 47 47 47h17q47 0 47 -47v-606q0 -139 74.5 -203t218.5 -64q98 0 184 39t137.5 108t51.5 155v571q0 47 47 47h16q47 0 47 -47v-889q0 -25 -8 -36t-31 -11h-20q-23 0 -31 11.5t-8 35.5v109q-74 -90 -171 -138.5t-241 -48.5q-168 0 -272.5 93.5t-104.5 269.5 zM203 1200q0 16 20 43q80 98 213 98q59 0 97 -16t81 -49q37 -27 62.5 -39t64.5 -12q47 0 80 15t60 48q27 31 47 31q18 0 37 -19q14 -14 14 -28q0 -16 -21 -43q-80 -98 -213 -99q-55 0 -93 16.5t-83 49.5q-39 27 -65.5 39t-63.5 12q-47 0 -79.5 -15t-59.5 -48 q-27 -31 -47 -31q-18 0 -37 18q-14 14 -14 29z" />
<glyph unicode="&#x16a;" horiz-adv-x="1466" d="M143 481v865q0 47 47 47h17q47 0 47 -47v-873q0 -197 134 -303.5t345 -106.5t345 106.5t134 303.5v873q0 47 48 47h16q47 0 47 -47v-865q0 -156 -74.5 -271.5t-209 -178t-306.5 -62.5t-306 62.5t-209 178.5t-75 271zM403 1657v14q0 45 48 45h569q47 0 47 -45v-14 q0 -23 -11.5 -32t-35.5 -9h-569q-25 0 -36.5 9t-11.5 32z" />
<glyph unicode="&#x16b;" horiz-adv-x="1183" d="M143 332v604q0 47 47 47h17q47 0 47 -47v-606q0 -139 74.5 -203t218.5 -64q98 0 184 39t137.5 108t51.5 155v571q0 47 47 47h16q47 0 47 -47v-889q0 -25 -8 -36t-31 -11h-20q-23 0 -31 11.5t-8 35.5v109q-74 -90 -171 -138.5t-241 -48.5q-168 0 -272.5 93.5t-104.5 269.5 zM248 1231v14q0 45 47 45h569q47 0 47 -45v-14q0 -23 -11 -32t-36 -9h-569q-25 0 -36 9t-11 32z" />
<glyph unicode="&#x16c;" horiz-adv-x="1466" d="M143 481v865q0 47 47 47h17q47 0 47 -47v-873q0 -197 134 -303.5t345 -106.5t345 106.5t134 303.5v873q0 47 48 47h16q47 0 47 -47v-865q0 -156 -74.5 -271.5t-209 -178t-306.5 -62.5t-306 62.5t-209 178.5t-75 271zM444 1841q0 16 9.5 26.5t23.5 10.5h49q20 0 27.5 -9 t7.5 -30q0 -100 36 -153.5t136 -53.5t136 53.5t36 153.5q0 20 7.5 29.5t27.5 9.5h49q14 0 23.5 -10t9.5 -27q0 -143 -72.5 -228t-216.5 -85q-143 0 -216 85t-73 228z" />
<glyph unicode="&#x16d;" horiz-adv-x="1183" d="M143 332v604q0 47 47 47h17q47 0 47 -47v-606q0 -139 74.5 -203t218.5 -64q98 0 184 39t137.5 108t51.5 155v571q0 47 47 47h16q47 0 47 -47v-889q0 -25 -8 -36t-31 -11h-20q-23 0 -31 11.5t-8 35.5v109q-74 -90 -171 -138.5t-241 -48.5q-168 0 -272.5 93.5t-104.5 269.5 zM291 1354q0 16 9 26.5t24 10.5h49q20 0 27.5 -9.5t7.5 -29.5q0 -100 35.5 -153.5t136.5 -53.5q100 0 136 53t36 154q0 20 7 29.5t27 9.5h50q14 0 23 -10.5t9 -26.5q0 -143 -72.5 -228.5t-215.5 -85.5q-144 0 -216.5 85t-72.5 229z" />
<glyph unicode="&#x16e;" horiz-adv-x="1466" d="M143 481v865q0 47 47 47h17q47 0 47 -47v-873q0 -197 134 -303.5t345 -106.5t345 106.5t134 303.5v873q0 47 48 47h16q47 0 47 -47v-865q0 -156 -74.5 -271.5t-209 -178t-306.5 -62.5t-306 62.5t-209 178.5t-75 271zM508 1712q0 94 64.5 159.5t158.5 65.5t159.5 -65.5 t65.5 -159.5t-65.5 -158.5t-159.5 -64.5t-158.5 64.5t-64.5 158.5zM590 1712q0 -57 42 -99t99 -42q60 0 100.5 42t40.5 99q0 59 -40.5 100t-100.5 41q-57 0 -99 -40.5t-42 -100.5z" />
<glyph unicode="&#x16f;" horiz-adv-x="1173" d="M143 332v604q0 47 47 47h17q47 0 47 -47v-606q0 -139 74.5 -203t218.5 -64q98 0 184 39t137.5 108t51.5 155v571q0 47 47 47h16q47 0 47 -47v-889q0 -25 -8 -36t-31 -11h-20q-23 0 -31 11.5t-8 35.5v109q-74 -90 -171 -138.5t-241 -48.5q-168 0 -272.5 93.5t-104.5 269.5 zM358 1286q0 94 64.5 159.5t159.5 65.5q94 0 159.5 -65.5t65.5 -159.5t-65.5 -158.5t-159.5 -64.5q-95 0 -159.5 64.5t-64.5 158.5zM440 1286q0 -57 42 -99t100 -42q59 0 100 42t41 99q0 59 -41 100t-100 41q-57 0 -99.5 -40.5t-42.5 -100.5z" />
<glyph unicode="&#x170;" horiz-adv-x="1466" d="M143 481v865q0 47 47 47h17q47 0 47 -47v-873q0 -197 134 -303.5t345 -106.5t345 106.5t134 303.5v873q0 47 48 47h16q47 0 47 -47v-865q0 -156 -74.5 -271.5t-209 -178t-306.5 -62.5t-306 62.5t-209 178.5t-75 271zM469 1559q0 10 4 16l145 289q8 16 16.5 22t29.5 6h55 q27 0 26 -16q0 -6 -6 -16l-178 -295q-8 -12 -16 -17.5t-25 -5.5h-31q-20 1 -20 17zM791 1559q0 10 4 16l145 289q8 16 16.5 22t28.5 6h55q27 0 27 -16q0 -6 -6 -16l-178 -295q-8 -12 -16.5 -17.5t-24.5 -5.5h-31q-20 1 -20 17z" />
<glyph unicode="&#x171;" horiz-adv-x="1183" d="M143 332v604q0 47 47 47h17q47 0 47 -47v-606q0 -139 74.5 -203t218.5 -64q98 0 184 39t137.5 108t51.5 155v571q0 47 47 47h16q47 0 47 -47v-889q0 -25 -8 -36t-31 -11h-20q-23 0 -31 11.5t-8 35.5v109q-74 -90 -171 -138.5t-241 -48.5q-168 0 -272.5 93.5t-104.5 269.5 zM358 1133q0 10 4 16l146 289q8 16 16 22t29 6h55q27 0 27 -16q0 -6 -6 -16l-178 -295q-8 -12 -16.5 -17.5t-24.5 -5.5h-31q-21 1 -21 17zM680 1133q0 10 4 16l145 289q8 16 16.5 22t28.5 6h56q27 0 26 -16q0 -6 -6 -16l-178 -295q-8 -12 -16 -17.5t-25 -5.5h-31 q-20 1 -20 17z" />
<glyph unicode="&#x172;" horiz-adv-x="1466" d="M143 481v865q0 47 47 47h17q47 0 47 -47v-873q0 -197 134 -303.5t345 -106.5t345 106.5t134 303.5v873q0 47 48 47h16q47 0 47 -47v-865q0 -213 -137 -349t-365 -159q0 -8 -6 -16q-68 -82 -92.5 -132t-24.5 -97q0 -27 13.5 -41.5t36.5 -14.5q29 0 45 9q12 4 14 4 q8 0 14 -15l21 -45q2 -4 2 -12q0 -12 -23 -23q-31 -16 -96 -16q-72 0 -111 39t-39 98q0 57 30 116.5t95 135.5l7 6q-166 4 -294 68.5t-199 178.5t-71 265z" />
<glyph unicode="&#x173;" horiz-adv-x="1191" d="M143 332v604q0 47 47 47h17q47 0 47 -47v-606q0 -139 74.5 -203t218.5 -64q98 0 184 39t137.5 108t51.5 155v571q0 47 47 47h16q47 0 47 -47v-889q0 -20 -4 -29q0 -8 -6 -14q-68 -82 -92.5 -132t-24.5 -97q0 -27 13.5 -41.5t35.5 -14.5q29 0 45 9q12 4 15 4q8 0 14 -15 l21 -45q2 -4 2 -12q0 -12 -23 -22q-31 -16 -96 -17q-72 0 -111 39t-39 98q0 57 30 116.5t95 135.5q14 18 27 23v14v109q-74 -90 -171 -138.5t-241 -48.5q-168 0 -272.5 93.5t-104.5 269.5z" />
<glyph unicode="&#x174;" horiz-adv-x="1814" d="M115 1370q0 23 26 23h45q23 0 32 -7.5t13 -27.5l287 -1176l326 1069q6 18 13 26.5t26 8.5h51q18 0 24.5 -8t12.5 -27l325 -1069l287 1176q4 20 13.5 27.5t31.5 7.5h45q18 0 23.5 -10.5t1.5 -26.5l-336 -1321q-6 -20 -14.5 -27.5t-26.5 -7.5h-37q-18 0 -26.5 7t-14.5 28 l-336 1102l-336 -1102q-8 -20 -15 -27.5t-26 -7.5h-36q-19 0 -27 7t-14 28l-336 1321q-2 4 -2 14zM617.5 1540q-9.5 12 0.5 25l230 319q16 23 23.5 29t23.5 6h25q16 0 23 -6t24 -29l229 -319q4 -4 4 -15q0 -10 -8 -16t-21 -6h-38q-23 0 -31 7t-23 28l-172 249l-172 -249 q-14 -20 -22 -27.5t-31 -7.5h-39q-16 0 -25.5 12z" />
<glyph unicode="&#x175;" horiz-adv-x="1609" d="M115 961q0 23 26 22h45q23 0 31 -7t14 -28l246 -786l264 700q6 18 14.5 26.5t26.5 8.5h47q18 0 25.5 -8t13.5 -27l265 -700l245 786q6 20 14.5 27.5t30.5 7.5h45q18 0 23.5 -10t1.5 -27l-295 -911q-6 -20 -14 -27.5t-27 -7.5h-37q-18 0 -25.5 7t-15.5 28l-274 733 l-275 -733q-8 -20 -15 -27.5t-26 -7.5h-36q-19 0 -27 7t-14 28l-295 911q-2 4 -2 15zM515 1114q-9 12 1 25l229 319q16 23 23.5 29t24.5 6h24q16 0 23.5 -6t23.5 -29l230 -319q4 -4 4 -15q0 -10 -8.5 -16t-20.5 -6h-39q-23 0 -31 7t-22 28l-172 249l-172 -249 q-14 -20 -22.5 -27.5t-30.5 -7.5h-39q-17 0 -26 12z" />
<glyph unicode="&#x176;" horiz-adv-x="1392" d="M113 1368q0 10 8 17.5t20 7.5h39q23 0 32 -7.5t19 -27.5l465 -799l465 799q10 20 19.5 27.5t31.5 7.5h39q16 0 24.5 -11.5t0.5 -25.5l-524 -901v-408q0 -47 -47 -47h-17q-47 0 -47 47v410l-524 899q-4 8 -4 12zM408.5 1540q-9.5 12 1.5 25l229 319q16 23 23.5 29t23.5 6 h25q16 0 23 -6t24 -29l229 -319q4 -4 4 -15q0 -10 -8 -16t-20 -6h-39q-23 0 -31 7t-23 28l-172 249l-172 -249q-14 -20 -22 -27.5t-31 -7.5h-39q-16 0 -25.5 12z" />
<glyph unicode="&#x177;" horiz-adv-x="1193" d="M116 -243q-3 7 3 18l28 45q6 12 15 12q6 0 14 -6q39 -27 79 -39t91 -12q74 0 117 43t86 147l24 62l-430 919q-4 8 -4 12q0 10 8.5 17.5t20.5 7.5h39q23 0 33 -8t18 -27l373 -809l373 809q8 18 18 26.5t33 8.5h39q16 0 24 -11t0 -26l-454 -971q-51 -111 -92.5 -171 t-95.5 -91.5t-134 -31.5q-123 0 -213 61q-10 8 -13 15zM341 1114q-9 12 1 25l229 319q16 23 23.5 29t23.5 6h25q16 0 23.5 -6t23.5 -29l230 -319q4 -4 4 -15q0 -10 -8.5 -16t-20.5 -6h-39q-23 0 -31 7t-22 28l-172 249l-172 -249q-14 -20 -22.5 -27.5t-30.5 -7.5h-39 q-17 0 -26 12z" />
<glyph unicode="&#x178;" horiz-adv-x="1392" d="M113 1368q0 10 8 17.5t20 7.5h39q23 0 32 -7.5t19 -27.5l465 -799l465 799q10 20 19.5 27.5t31.5 7.5h39q16 0 24.5 -11.5t0.5 -25.5l-524 -901v-408q0 -47 -47 -47h-17q-47 0 -47 47v410l-524 899q-4 8 -4 12zM430 1632v27q0 29 19.5 50.5t48.5 21.5h28q29 0 48.5 -21.5 t19.5 -50.5v-27q0 -31 -18.5 -51t-49.5 -20h-28q-29 0 -48.5 21.5t-19.5 49.5zM799 1632v27q0 29 19.5 50.5t47.5 21.5h29q29 0 48.5 -21.5t19.5 -50.5v-27q0 -31 -18.5 -51t-49.5 -20h-29q-28 0 -47.5 21.5t-19.5 49.5z" />
<glyph unicode="&#x179;" horiz-adv-x="1288" d="M113 43q0 16 8 32.5t26 41.5l875 1175h-825q-47 0 -47 45v15q0 23 11 32t36 9h929q45 0 45 -43q0 -16 -8 -33t-26 -41l-873 -1176h864q47 0 48 -45v-14q0 -23 -11.5 -32t-36.5 -9h-970q-45 0 -45 43zM606 1559l4 16l105 289q6 16 15 22t30 6h55q25 0 25 -16q0 -10 -4 -16 l-138 -295q-6 -12 -15 -17.5t-26 -5.5h-30q-21 1 -21 17z" />
<glyph unicode="&#x17a;" horiz-adv-x="1144" d="M113 47q0 33 34 70l717 766h-667q-47 0 -47 45v14q0 23 11 32t36 9h782q23 0 34 -13.5t11 -33.5q0 -33 -35 -70l-715 -766h711q47 0 47 -45v-14q0 -23 -11 -32t-36 -9h-827q-23 0 -34 13.5t-11 33.5zM545 1133l4 16l104 289q6 16 15.5 22t29.5 6h56q25 0 24 -16 q0 -10 -4 -16l-137 -295q-6 -12 -15.5 -17.5t-25.5 -5.5h-31q-20 1 -20 17z" />
<glyph unicode="&#x17b;" horiz-adv-x="1288" d="M113 43q0 16 8 32.5t26 41.5l875 1175h-825q-47 0 -47 45v15q0 23 11 32t36 9h929q45 0 45 -43q0 -16 -8 -33t-26 -41l-873 -1176h864q47 0 48 -45v-14q0 -23 -11.5 -32t-36.5 -9h-970q-45 0 -45 43zM584 1669v27q0 29 19.5 50t47.5 21h29q29 0 48.5 -21.5t19.5 -49.5 v-27q0 -31 -18.5 -51.5t-49.5 -20.5h-29q-28 0 -47.5 21.5t-19.5 50.5z" />
<glyph unicode="&#x17c;" horiz-adv-x="1144" d="M113 47q0 33 34 70l717 766h-667q-47 0 -47 45v14q0 23 11 32t36 9h782q23 0 34 -13.5t11 -33.5q0 -33 -35 -70l-715 -766h711q47 0 47 -45v-14q0 -23 -11 -32t-36 -9h-827q-23 0 -34 13.5t-11 33.5zM522 1182v26q0 29 19.5 50.5t48.5 21.5h28q29 0 48.5 -21.5 t19.5 -50.5v-26q0 -31 -18.5 -51.5t-49.5 -20.5h-28q-29 0 -48.5 21.5t-19.5 50.5z" />
<glyph unicode="&#x17d;" horiz-adv-x="1288" d="M113 43q0 16 8 32.5t26 41.5l875 1175h-825q-47 0 -47 45v15q0 23 11 32t36 9h929q45 0 45 -43q0 -16 -8 -33t-26 -41l-873 -1176h864q47 0 48 -45v-14q0 -23 -11.5 -32t-36.5 -9h-970q-45 0 -45 43zM377 1921q0 10 8 16.5t21 6.5h38q23 0 31 -7.5t23 -27.5l172 -250 l172 250q14 20 22 27.5t31 7.5h39q16 0 25.5 -12.5t-1.5 -24.5l-229 -320q-16 -23 -23.5 -29t-23.5 -6h-25q-16 0 -23 6.5t-24 28.5l-229 320q-4 4 -4 14z" />
<glyph unicode="&#x17e;" horiz-adv-x="1144" d="M113 47q0 33 34 70l717 766h-667q-47 0 -47 45v14q0 23 11 32t36 9h782q23 0 34 -13.5t11 -33.5q0 -33 -35 -70l-715 -766h711q47 0 47 -45v-14q0 -23 -11 -32t-36 -9h-827q-23 0 -34 13.5t-11 33.5zM305 1470q0 10 8.5 16.5t20.5 6.5h39q23 0 31 -7t22 -28l172 -250 l172 250q14 20 22.5 27.5t30.5 7.5h39q16 0 25.5 -12.5t-0.5 -24.5l-230 -319q-16 -23 -23 -29t-24 -6h-24q-17 0 -24 6t-23 29l-230 319q-4 4 -4 14z" />
<glyph unicode="&#x18f;" horiz-adv-x="1478" d="M113 729q0 18 10 29.5t31 11.5h1103q0 272 -146 415.5t-421 143.5q-115 0 -230.5 -26.5t-217.5 -75.5q-10 -6 -17 -6q-6 0 -12 12l-27 47q-4 6 -4 14q0 12 15 19q98 53 235 81.5t275 28.5q303 0 481 -174t178 -524q0 -371 -168 -563.5t-471 -192.5q-305 0 -459.5 191.5 t-154.5 568.5zM219 670q0 -293 127 -450t381 -157q258 0 394 161t136 446h-1038z" />
<glyph unicode="&#x192;" horiz-adv-x="1138" d="M-163 -275.5q-3 7.5 5 17.5l35 45q6 12 14 12q6 0 15 -6q45 -31 86 -45t100 -14q109 0 160 56t63 175l95 918h-170q-47 0 -47 45v14q0 23 11 32t36 9h180l14 121q16 147 102.5 233t239.5 86q139 0 236 -69q10 -8 12 -15.5t-6 -17.5l-33 -45q-8 -10 -13 -12t-16 6 q-45 31 -86 45t-100 14q-111 0 -162 -56t-63 -175l-13 -115h271q25 0 36 -9t11 -32v-14q0 -45 -47 -45h-281l-98 -924q-14 -147 -99 -233t-239 -86q-142 -1 -236 69q-10 8 -13 15.5z" />
<glyph unicode="&#x1a0;" horiz-adv-x="1628" d="M113 696q0 227 79.5 391t231 250t362.5 86q305 0 482 -176q102 0 147 56.5t45 191.5q0 20 7.5 29.5t27.5 9.5h49q14 0 23.5 -10.5t9.5 -26.5q0 -152 -61.5 -239t-169.5 -109q115 -182 114 -453q0 -227 -80 -391t-231.5 -250t-362.5 -86t-362.5 86t-231 250t-79.5 391z M219 696q0 -307 149.5 -470t417.5 -163q269 0 418.5 163t149.5 470t-149.5 470t-418.5 163q-268 0 -417.5 -162.5t-149.5 -470.5z" />
<glyph unicode="&#x1a1;" horiz-adv-x="1409" d="M113 492q0 242 134 382t386 140q139 0 245.5 -46t172.5 -130q100 0 145 56t45 191q0 20 7 29.5t28 9.5h49q14 0 23.5 -10t9.5 -27q0 -158 -66.5 -244.5t-183.5 -105.5q45 -113 45 -245q0 -242 -134 -382.5t-386 -140.5t-386 140.5t-134 382.5zM219 492q0 -205 106.5 -317 t307.5 -112t307.5 112t106.5 317t-106.5 316.5t-307.5 111.5t-307.5 -112t-106.5 -316z" />
<glyph unicode="&#x1af;" horiz-adv-x="1660" d="M143 481v865q0 47 47 47h17q47 0 47 -47v-873q0 -197 134 -303.5t345 -106.5t345 106.5t134 303.5v873q0 47 48 47h16q47 0 47 -47v-99q88 4 129 62.5t41 185.5q0 20 7 29.5t28 9.5h49q14 0 23.5 -10.5t9.5 -26.5q0 -168 -76 -257t-211 -97v-662q0 -156 -74.5 -271.5 t-209 -178t-306.5 -62.5t-306 62.5t-209 178.5t-75 271z" />
<glyph unicode="&#x1b0;" horiz-adv-x="1368" d="M143 332v604q0 47 47 47h17q47 0 47 -47v-606q0 -139 74.5 -203t218.5 -64q98 0 184 39t137.5 108t51.5 155v571q0 47 47 47h16q47 0 47 -47v-98q88 4 129 62t41 185q0 20 7 29.5t28 9.5h49q14 0 23.5 -10t9.5 -27q0 -168 -76 -257t-211 -97v-686q0 -25 -8 -36t-31 -11 h-20q-23 0 -31 11.5t-8 35.5v109q-74 -90 -171 -138.5t-241 -48.5q-168 0 -272.5 93.5t-104.5 269.5z" />
<glyph unicode="&#x1cd;" horiz-adv-x="1474" d="M117 37l561 1321q8 20 15 27.5t26 7.5h37q18 0 25 -7.5t16 -27.5l561 -1321q2 -4 2 -12q0 -10 -7 -17.5t-20 -7.5h-39q-23 0 -33 8t-18 27l-156 368h-700l-156 -368q-8 -18 -18 -26.5t-33 -8.5h-39q-16 0 -23 11.5t-1 25.5zM428 504h616l-307 727zM444 1896 q0 10 8.5 16.5t20.5 6.5h39q23 0 31 -7t22 -28l172 -250l172 250q14 20 22.5 27.5t31.5 7.5h38q16 0 25.5 -12.5t-0.5 -24.5l-229 -319q-16 -23 -23.5 -29t-23.5 -6h-25q-16 0 -23.5 6t-23.5 29l-229 319q-4 4 -5 14z" />
<glyph unicode="&#x1ce;" horiz-adv-x="1253" d="M113 426q0 176 68.5 308t200.5 206t314 74q113 0 222.5 -33t181.5 -82v-852q0 -47 -47 -47h-15q-23 0 -32 11.5t-11 35.5l-6 98q-139 -176 -422 -176q-209 0 -331.5 119t-122.5 338zM219 438q0 -193 95.5 -284t293.5 -91q94 0 182.5 38t143.5 110t55 166v473 q-53 31 -132 50.5t-161 19.5q-221 0 -349 -127t-128 -355zM403 1470q0 10 8.5 16.5t20.5 6.5h39q23 0 31 -7t22 -28l172 -250l172 250q14 20 22.5 27.5t31.5 7.5h39q16 0 25 -12.5t-1 -24.5l-229 -319q-16 -23 -23.5 -29t-23.5 -6h-25q-16 0 -23.5 6t-23.5 29l-229 319 q-4 4 -5 14z" />
<glyph unicode="&#x1cf;" horiz-adv-x="417" d="M-84 1896q0 10 8 16.5t21 6.5h39q23 0 31 -7t22 -28l172 -250l172 250q14 20 22.5 27.5t30.5 7.5h39q16 0 25.5 -12.5t-0.5 -24.5l-230 -319q-16 -23 -23 -29t-24 -6h-24q-17 0 -24 6t-23 29l-230 319q-4 4 -4 14zM154 47v1299q0 47 47 47h16q47 0 47 -47v-1299 q0 -47 -47 -47h-16q-47 0 -47 47z" />
<glyph unicode="&#x1d0;" horiz-adv-x="417" d="M-84 1470q0 10 8 16.5t21 6.5h39q23 0 31 -7t22 -28l172 -250l172 250q14 20 22.5 27.5t30.5 7.5h39q16 0 25.5 -12.5t-0.5 -24.5l-230 -319q-16 -23 -23 -29t-24 -6h-24q-17 0 -24 6t-23 29l-230 319q-4 4 -4 14zM154 47v889q0 47 47 47h16q47 0 47 -47v-889 q0 -47 -47 -47h-16q-47 0 -47 47z" />
<glyph unicode="&#x1d1;" horiz-adv-x="1572" d="M113 696q0 227 79.5 391t231 250t362.5 86t362.5 -86t231.5 -249.5t80 -391.5q0 -227 -80 -391t-231.5 -250t-362.5 -86t-362.5 86t-231 250t-79.5 391zM219 696q0 -307 149.5 -470t417.5 -163q269 0 418.5 163t149.5 470t-149.5 470t-418.5 163q-268 0 -417.5 -162.5 t-149.5 -470.5zM496 1896q0 10 8 16.5t20 6.5h39q23 0 31 -7t22 -28l172 -250l173 250q14 20 22 27.5t31 7.5h39q16 0 25 -12.5t-1 -24.5l-229 -319q-16 -23 -23.5 -29t-23.5 -6h-25q-16 0 -23.5 6t-23.5 29l-229 319q-4 4 -4 14z" />
<glyph unicode="&#x1d2;" horiz-adv-x="1265" d="M113 492q0 242 134 382t386 140t386 -140.5t134 -381.5q0 -242 -134 -382.5t-386 -140.5t-386 140.5t-134 382.5zM219 492q0 -205 106.5 -317t307.5 -112t307.5 112t106.5 317t-106.5 316.5t-307.5 111.5t-307.5 -112t-106.5 -316zM340 1470q0 10 8 16.5t21 6.5h39 q23 0 30.5 -7t22.5 -28l172 -250l172 250q14 20 22.5 27.5t30.5 7.5h39q16 0 25.5 -12.5t-0.5 -24.5l-230 -319q-16 -23 -23 -29t-24 -6h-24q-17 0 -24 6t-24 29l-229 319q-4 4 -4 14z" />
<glyph unicode="&#x1d3;" horiz-adv-x="1466" d="M143 481v865q0 47 47 47h17q47 0 47 -47v-873q0 -197 134 -303.5t345 -106.5t345 106.5t134 303.5v873q0 47 48 47h16q47 0 47 -47v-865q0 -156 -74.5 -271.5t-209 -178t-306.5 -62.5t-306 62.5t-209 178.5t-75 271zM440 1896q0 10 8.5 16.5t20.5 6.5h39q23 0 31 -7 t22 -28l172 -250l172 250q14 20 22.5 27.5t30.5 7.5h39q16 0 25.5 -12.5t-0.5 -24.5l-229 -319q-16 -23 -23.5 -29t-24.5 -6h-24q-16 0 -23.5 6t-23.5 29l-230 319q-4 4 -4 14z" />
<glyph unicode="&#x1d4;" horiz-adv-x="1183" d="M143 332v604q0 47 47 47h17q47 0 47 -47v-606q0 -139 74.5 -203t218.5 -64q98 0 184 39t137.5 108t51.5 155v571q0 47 47 47h16q47 0 47 -47v-889q0 -25 -8 -36t-31 -11h-20q-23 0 -31 11.5t-8 35.5v109q-74 -90 -171 -138.5t-241 -48.5q-168 0 -272.5 93.5t-104.5 269.5 zM293 1470q0 10 8 16.5t21 6.5h38q23 0 31 -7t23 -28l172 -250l172 250q14 20 22 27.5t31 7.5h39q16 0 25.5 -12.5t-1.5 -24.5l-229 -319q-16 -23 -23.5 -29t-23.5 -6h-25q-16 0 -23 6t-24 29l-229 319q-4 4 -4 14z" />
<glyph unicode="&#x1d5;" horiz-adv-x="1466" d="M143 481v865q0 47 47 47h17q47 0 47 -47v-873q0 -197 134 -303.5t345 -106.5t345 106.5t134 303.5v873q0 47 48 47h16q47 0 47 -47v-865q0 -156 -74.5 -271.5t-209 -178t-306.5 -62.5t-306 62.5t-209 178.5t-75 271zM399 1935v15q0 45 47 45h570q47 0 47 -45v-15 q0 -23 -11.5 -32t-35.5 -9h-570q-24 0 -35.5 9.5t-11.5 31.5zM467 1626v27q0 29 19.5 50t48.5 21h28q29 0 48.5 -21.5t19.5 -49.5v-27q0 -31 -18.5 -51.5t-49.5 -20.5h-28q-29 0 -48.5 21.5t-19.5 50.5zM836 1626v27q0 29 19 50t48 21h29q29 0 48 -21.5t19 -49.5v-27 q0 -31 -18 -51.5t-49 -20.5h-29q-29 0 -48 21.5t-19 50.5z" />
<glyph unicode="&#x1d6;" horiz-adv-x="1183" d="M143 332v604q0 47 47 47h17q47 0 47 -47v-606q0 -139 74.5 -203t218.5 -64q98 0 184 39t137.5 108t51.5 155v571q0 47 47 47h16q47 0 47 -47v-889q0 -25 -8 -36t-31 -11h-20q-23 0 -31 11.5t-8 35.5v109q-74 -90 -171 -138.5t-241 -48.5q-168 0 -272.5 93.5t-104.5 269.5 zM254 1446v14q0 45 47 45h569q47 0 48 -45v-14q0 -23 -11.5 -32t-36.5 -9h-569q-25 0 -36 9t-11 32zM322 1145v26q0 29 19 50.5t48 21.5h29q29 0 48 -21.5t19 -50.5v-26q0 -31 -18 -51.5t-49 -20.5h-29q-29 0 -48 21.5t-19 50.5zM690 1145v26q0 29 19.5 50.5t48.5 21.5h28 q29 0 48.5 -21.5t19.5 -50.5v-26q0 -31 -18.5 -51.5t-49.5 -20.5h-28q-29 0 -48.5 21.5t-19.5 50.5z" />
<glyph unicode="&#x1d7;" horiz-adv-x="1466" d="M143 481v865q0 47 47 47h17q47 0 47 -47v-873q0 -197 134 -303.5t345 -106.5t345 106.5t134 303.5v873q0 47 48 47h16q47 0 47 -47v-865q0 -156 -74.5 -271.5t-209 -178t-306.5 -62.5t-306 62.5t-209 178.5t-75 271zM467 1630v27q0 29 19.5 50.5t48.5 21.5h28 q29 0 48.5 -21.5t19.5 -50.5v-27q0 -31 -18.5 -51t-49.5 -20h-28q-29 0 -48.5 21.5t-19.5 49.5zM680 1829l4 16l94 269q6 16 15.5 22t29.5 6h56q25 0 24 -16q0 -10 -4 -17l-127 -274q-6 -12 -15 -17.5t-26 -5.5h-31q-20 1 -20 17zM836 1630v27q0 29 19 50.5t48 21.5h29 q29 0 48 -21.5t19 -50.5v-27q0 -31 -18 -51t-49 -20h-29q-29 0 -48 21.5t-19 49.5z" />
<glyph unicode="&#x1d8;" horiz-adv-x="1183" d="M143 332v604q0 47 47 47h17q47 0 47 -47v-606q0 -139 74.5 -203t218.5 -64q98 0 184 39t137.5 108t51.5 155v571q0 47 47 47h16q47 0 47 -47v-889q0 -25 -8 -36t-31 -11h-20q-23 0 -31 11.5t-8 35.5v109q-74 -90 -171 -138.5t-241 -48.5q-168 0 -272.5 93.5t-104.5 269.5 zM315 1163v27q0 29 19.5 50.5t48.5 21.5h29q29 0 48 -21.5t19 -50.5v-27q0 -31 -18.5 -51t-48.5 -20h-29q-29 0 -48.5 21.5t-19.5 49.5zM528 1362l4 16l95 269q6 16 15 22t30 6h55q25 0 25 -16q0 -10 -4 -17l-127 -274q-6 -12 -15.5 -17t-25.5 -5h-31q-21 0 -21 16z M684 1163v27q0 29 19.5 50.5t48.5 21.5h28q29 0 48.5 -21.5t19.5 -50.5v-27q0 -31 -18.5 -51t-49.5 -20h-28q-29 0 -48.5 21.5t-19.5 49.5z" />
<glyph unicode="&#x1d9;" horiz-adv-x="1466" d="M143 481v865q0 47 47 47h17q47 0 47 -47v-873q0 -197 134 -303.5t345 -106.5t345 106.5t134 303.5v873q0 47 48 47h16q47 0 47 -47v-865q0 -156 -74.5 -271.5t-209 -178t-306.5 -62.5t-306 62.5t-209 178.5t-75 271zM453 2136q0 10 8 16.5t20 6.5h39q23 0 31 -7.5 t22 -27.5l162 -228l162 228q14 20 22.5 27.5t30.5 7.5h39q16 0 25.5 -12.5t-0.5 -24.5l-219 -297q-16 -23 -23.5 -29t-23.5 -6h-25q-16 0 -23.5 6t-23.5 29l-219 297q-4 4 -4 14zM467 1630v27q0 29 19.5 50.5t48.5 21.5h28q29 0 48.5 -21.5t19.5 -50.5v-27q0 -31 -18.5 -51 t-49.5 -20h-28q-29 0 -48.5 21.5t-19.5 49.5zM836 1630v27q0 29 19 50.5t48 21.5h29q29 0 48 -21.5t19 -50.5v-27q0 -31 -18 -51t-49 -20h-29q-29 0 -48 21.5t-19 49.5z" />
<glyph unicode="&#x1da;" horiz-adv-x="1183" d="M143 332v604q0 47 47 47h17q47 0 47 -47v-606q0 -139 74.5 -203t218.5 -64q98 0 184 39t137.5 108t51.5 155v571q0 47 47 47h16q47 0 47 -47v-889q0 -25 -8 -36t-31 -11h-20q-23 0 -31 11.5t-8 35.5v109q-74 -90 -171 -138.5t-241 -48.5q-168 0 -272.5 93.5t-104.5 269.5 zM299 1686q0 10 8 16t21 6h39q23 0 31 -7t22 -28l162 -227l161 227q14 20 22.5 27.5t31.5 7.5h39q16 0 25 -12.5t-1 -24.5l-219 -297q-16 -23 -23.5 -29t-23.5 -6h-25q-16 0 -23 6.5t-24 28.5l-219 297q-4 4 -4 15zM313 1180v26q0 29 19.5 50.5t48.5 21.5h29q29 0 48 -21.5 t19 -50.5v-26q0 -31 -18.5 -51.5t-48.5 -20.5h-29q-29 0 -48.5 21.5t-19.5 50.5zM682 1180v26q0 29 19.5 50.5t48.5 21.5h28q29 0 48.5 -21.5t19.5 -50.5v-26q0 -31 -18.5 -51.5t-49.5 -20.5h-28q-29 0 -48.5 21.5t-19.5 50.5z" />
<glyph unicode="&#x1db;" horiz-adv-x="1466" d="M143 481v865q0 47 47 47h17q47 0 47 -47v-873q0 -197 134 -303.5t345 -106.5t345 106.5t134 303.5v873q0 47 48 47h16q47 0 47 -47v-865q0 -156 -74.5 -271.5t-209 -178t-306.5 -62.5t-306 62.5t-209 178.5t-75 271zM467 1626v27q0 29 19.5 50t48.5 21h28 q29 0 48.5 -21.5t19.5 -49.5v-27q0 -31 -18.5 -51.5t-49.5 -20.5h-28q-29 0 -48.5 21.5t-19.5 50.5zM571 2122q0 16 25 16h55q20 0 29.5 -6t15.5 -23l95 -268l4 -16q0 -16 -21 -17h-31q-16 0 -25 5.5t-16 17.5l-127 274q-4 6 -4 17zM836 1626v27q0 29 19 50t48 21h29 q29 0 48 -21.5t19 -49.5v-27q0 -31 -18 -51.5t-49 -20.5h-29q-29 0 -48 21.5t-19 50.5z" />
<glyph unicode="&#x1dc;" horiz-adv-x="1183" d="M143 332v604q0 47 47 47h17q47 0 47 -47v-606q0 -139 74.5 -203t218.5 -64q98 0 184 39t137.5 108t51.5 155v571q0 47 47 47h16q47 0 47 -47v-889q0 -25 -8 -36t-31 -11h-20q-23 0 -31 11.5t-8 35.5v109q-74 -90 -171 -138.5t-241 -48.5q-168 0 -272.5 93.5t-104.5 269.5 zM309 1178v26q0 29 19.5 50.5t48.5 21.5h29q29 0 48 -21.5t19 -50.5v-26q0 -31 -18.5 -51.5t-48.5 -20.5h-29q-29 0 -48.5 21.5t-19.5 50.5zM414 1673q0 16 24 17h56q20 0 29 -6.5t16 -22.5l94 -268l4 -17q0 -16 -21 -16h-30q-17 0 -26 5t-15 17l-127 275q-4 6 -4 16z M678 1178v26q0 29 19.5 50.5t47.5 21.5h29q29 0 48.5 -21.5t19.5 -50.5v-26q0 -31 -18.5 -51.5t-49.5 -20.5h-29q-28 0 -47.5 21.5t-19.5 50.5z" />
<glyph unicode="&#x1e6;" horiz-adv-x="1425" d="M113 696q0 344 180 535.5t512 191.5q123 0 233.5 -24.5t186.5 -73.5q12 -8 14 -14t-4 -19l-27 -45q-6 -12 -14 -12q-4 0 -14 6q-61 41 -157.5 64.5t-215.5 23.5q-272 0 -430 -155.5t-158 -477.5q0 -319 161 -476t427 -157q115 0 220.5 19.5t174.5 54.5v510h-364 q-47 0 -47 45v15q0 23 11 32t36 9h428q47 0 47 -48v-579q0 -18 -3 -29.5t-16 -17.5q-203 -104 -489 -105q-332 0 -512 191.5t-180 535.5zM514 1896q0 10 8 16.5t21 6.5h39q23 0 31 -7t22 -28l172 -250l172 250q14 20 22.5 27.5t30.5 7.5h39q16 0 25.5 -12.5t-0.5 -24.5 l-230 -319q-16 -23 -23 -29t-24 -6h-24q-17 0 -24 6t-23 29l-230 319q-4 4 -4 14z" />
<glyph unicode="&#x1e7;" horiz-adv-x="1253" d="M113 453q0 264 150.5 412.5t420.5 148.5q115 0 231.5 -30t184.5 -75v-764q0 -244 -104.5 -368.5t-333.5 -124.5q-230 0 -388 76q-23 12 -10 32l31 54q6 12 14 12q6 0 15 -6q61 -33 148 -53.5t183 -20.5q176 0 255 90t79 309q-74 -92 -171 -134t-232 -42q-215 0 -344 128 t-129 356zM219 465q0 -399 402 -399q94 0 178 37.5t137 108.5t53 165v483q-51 27 -134 43.5t-171 16.5q-221 0 -343 -116t-122 -339zM403 1470q0 10 8.5 16.5t20.5 6.5h39q23 0 31 -7t22 -28l172 -250l172 250q14 20 22.5 27.5t31.5 7.5h39q16 0 25 -12.5t-1 -24.5 l-229 -319q-16 -23 -23.5 -29t-23.5 -6h-25q-16 0 -23.5 6t-23.5 29l-229 319q-4 4 -5 14z" />
<glyph unicode="&#x1fa;" horiz-adv-x="1474" d="M117 37l547 1286q-68 23 -109 80t-41 131q0 94 64.5 159.5t158.5 65.5t160 -65.5t66 -159.5q0 -72 -42 -130t-110 -81l547 -1286q2 -4 2 -12q0 -10 -7 -17.5t-20 -7.5h-39q-23 0 -33 8t-18 27l-156 368h-700l-156 -368q-8 -18 -18 -26.5t-33 -8.5h-39q-16 0 -23 11.5 t-1 25.5zM428 504h616l-307 727zM596 1534q0 -57 42 -99t99 -42q59 0 100.5 42t41.5 99q0 59 -41 100t-101 41q-57 0 -99 -41t-42 -100zM668 1841l4 17l104 288q6 16 15.5 22.5t29.5 6.5h56q25 0 24 -16q0 -10 -4 -17l-137 -295q-6 -12 -15.5 -17t-25.5 -5h-31q-20 0 -20 16 z" />
<glyph unicode="&#x1fb;" horiz-adv-x="1253" d="M113 426q0 176 68.5 308t200.5 206t314 74q113 0 222.5 -33t181.5 -82v-852q0 -47 -47 -47h-15q-23 0 -32 11.5t-11 35.5l-6 98q-139 -176 -422 -176q-209 0 -331.5 119t-122.5 338zM219 438q0 -193 95.5 -284t293.5 -91q94 0 182.5 38t143.5 110t55 166v473 q-53 31 -132 50.5t-161 19.5q-221 0 -349 -127t-128 -355zM442 1307q0 94 64.5 159.5t159.5 65.5q94 0 159.5 -65.5t65.5 -159.5t-65.5 -159t-159.5 -65q-95 0 -159.5 64.5t-64.5 159.5zM524 1307q0 -57 42 -99.5t100 -42.5q59 0 100 42t41 100q0 59 -41 100t-100 41 q-57 0 -99.5 -41t-42.5 -100zM586 1669l104 232q6 12 15.5 17t29.5 5h56q37 0 20 -27l-137 -235q-6 -10 -15.5 -14.5t-25.5 -4.5h-31q-28 0 -16 27z" />
<glyph unicode="&#x1fc;" horiz-adv-x="1863" d="M117 37l561 1321q8 20 15 27.5t26 7.5h979q25 0 36 -9.5t11 -31.5v-15q0 -45 -47 -45h-697v-544h519q25 0 36 -9.5t11 -31.5v-15q0 -45 -47 -45h-519v-547h697q47 0 47 -45v-14q0 -23 -11.5 -32t-35.5 -9h-760q-47 0 -47 47v356h-504l-156 -368q-8 -18 -18 -26.5 t-33 -8.5h-39q-16 0 -23 11.5t-1 25.5zM428 504h463v788h-135zM928 1534l4 16l104 289q6 16 15.5 22.5t29.5 6.5h56q25 0 24 -17q0 -10 -4 -16l-137 -295q-6 -12 -15.5 -17t-25.5 -5h-31q-20 0 -20 16z" />
<glyph unicode="&#x1fd;" horiz-adv-x="1990" d="M113 256q0 158 102 233.5t287 75.5h387v47q0 111 -25.5 177.5t-94.5 99.5t-196 33q-98 0 -160.5 -15.5t-146.5 -46.5l-16 -4q-16 0 -25 23l-14 34q-2 4 -2 13q0 18 31 28q168 61 333 62q168 0 257.5 -54.5t136.5 -166.5q57 106 164.5 162.5t254.5 56.5q492 0 492 -531 q0 -18 -10 -29.5t-31 -11.5h-838q0 -182 111 -280.5t313 -98.5q96 0 181.5 23t144.5 64q8 6 14 6q8 0 15 -13l26 -45q4 -6 4 -14t-14 -18q-76 -49 -179.5 -73t-207.5 -24q-319 0 -453 236q-61 -117 -189 -176.5t-290 -59.5t-262 71t-100 216zM219 256q0 -98 63.5 -145.5 t200.5 -47.5q176 0 291 71t115 208v123h-404q-131 0 -198.5 -50t-67.5 -159zM911 1133l4 16l105 289q6 16 15 22t30 6h55q25 0 25 -16q0 -10 -4 -16l-137 -295q-6 -12 -15.5 -17.5t-25.5 -5.5h-31q-21 1 -21 17zM999 543h773q0 184 -95.5 280.5t-290.5 96.5 q-387 0 -387 -377z" />
<glyph unicode="&#x1fe;" horiz-adv-x="1572" d="M113 696q0 227 79.5 391t231 250t362.5 86q123 0 228 -30l51 125q8 20 31 20h67q27 0 15 -27l-64 -155q168 -80 257 -249t89 -411q0 -227 -80 -391t-231.5 -250t-362.5 -86q-125 0 -229 31l-63 -156q-8 -20 -31 -20h-68q-27 0 -14 26l78 187q-168 82 -257 250t-89 409z M219 696q0 -211 71.5 -354t205.5 -213l481 1176q-86 25 -191 24q-268 0 -417.5 -162.5t-149.5 -470.5zM594 88q90 -25 192 -25q269 0 418.5 163t149.5 470q0 211 -72 354.5t-205 215.5zM674 1645l4 16l104 289q6 16 15.5 22t29.5 6h56q25 0 24 -16q0 -10 -4 -16l-137 -295 q-6 -12 -15.5 -17.5t-25.5 -5.5h-31q-20 1 -20 17z" />
<glyph unicode="&#x1ff;" horiz-adv-x="1265" d="M113 492q0 242 134 382t386 140q78 0 141 -15l64 154q8 20 30 21h68q27 0 14 -27l-73 -178q135 -57 205.5 -181t70.5 -296q0 -242 -134 -382.5t-386 -140.5q-88 0 -160 19l-59 -146q-8 -20 -31 -20h-68q-26 -1 -14 26l70 172q-127 59 -192.5 181.5t-65.5 290.5zM219 492 q0 -139 47 -235.5t142 -145.5l329 798q-55 10 -104 11q-201 0 -307.5 -112t-106.5 -316zM510 76q55 -12 123 -13q201 0 307.5 112t106.5 317q0 143 -53.5 242.5t-153.5 144.5zM578 1194l4 16l104 289q6 16 15.5 22.5t29.5 6.5h55q25 0 25 -17q0 -10 -4 -16l-137 -295 q-6 -12 -15.5 -17t-25.5 -5h-31q-20 0 -20 16z" />
<glyph unicode="&#x218;" horiz-adv-x="1171" d="M115 82q-2 6 4 18l26 45q6 12 15 13q4 0 14 -6q66 -39 179.5 -64t226.5 -25q182 0 277 62.5t95 204.5q0 96 -41 152.5t-118.5 94t-231.5 87.5q-127 41 -212 82.5t-142 118.5t-57 196q0 178 120.5 270t319.5 92q131 0 242.5 -26.5t173.5 -69.5q12 -8 14 -14t-4 -19 l-27 -45q-6 -12 -14 -12q-6 0 -14 6q-66 41 -153 63.5t-218 22.5q-334 0 -334 -268q0 -90 38 -143.5t105.5 -86t208.5 -81.5q16 -4 49 -17q147 -51 227.5 -94t127.5 -116.5t47 -194.5q0 -172 -123 -265.5t-356 -93.5q-115 0 -245 25.5t-206 73.5q-12 8 -14 14zM399 -498 q0 10 2 17l115 340q6 16 15.5 22t29.5 6h49q25 0 25 -16l-4 -16l-148 -347q-6 -12 -15 -17t-26 -5h-24q-19 0 -19 16z" />
<glyph unicode="&#x219;" horiz-adv-x="1036" d="M115 82q-2 6 4 18l26 45q6 12 15 13q4 0 14 -6q63 -41 163.5 -65t192.5 -24q141 0 214 44.5t73 121.5q0 59 -25.5 94t-90 64t-201.5 70q-121 37 -189.5 67.5t-110.5 86t-42 143.5q0 129 102 194.5t268 65.5q106 0 203.5 -25.5t159.5 -70.5q12 -8 14 -14.5t-4 -18.5 l-27 -45q-6 -12 -14 -13q-6 0 -14 7q-125 86 -318 86q-264 0 -264 -166q0 -61 27.5 -96t80 -56.5t169.5 -58.5q18 -4 55 -17q129 -39 197.5 -76.5t99.5 -89t31 -133.5q0 -119 -99.5 -188.5t-294.5 -69.5q-106 0 -217.5 24.5t-183.5 74.5q-12 8 -14 14zM348 -498q0 10 2 17 l115 340q6 16 15 22t30 6h49q25 0 25 -16l-4 -16l-148 -347q-6 -12 -15 -17t-26 -5h-24q-19 0 -19 16z" />
<glyph unicode="&#x21a;" horiz-adv-x="1146" d="M72 1333v15q0 45 47 45h909q47 0 47 -45v-15q0 -23 -11 -32t-36 -9h-399v-1245q0 -47 -47 -47h-17q-47 0 -47 47v1245h-399q-25 0 -36 9.5t-11 31.5zM406 -416q0 10 2 17l98 297q6 16 15 22t30 6h49q25 0 25 -16l-4 -16l-132 -304q-6 -12 -15 -17t-25 -5h-25 q-18 0 -18 16z" />
<glyph unicode="&#x21b;" horiz-adv-x="886" d="M72 924v14q0 45 47 45h141v174q0 35 8 61.5t31 71.5q6 12 11 16.5t16 4.5h14q31 0 31 -37v-291h311q47 0 47 -45v-14q0 -23 -11 -32t-36 -9h-311v-588q0 -119 43 -175.5t145 -56.5q59 0 102.5 14.5t90.5 45.5q10 6 14 6q8 0 14 -12l29 -45q4 -8 4 -13q0 -10 -14 -20 q-102 -70 -244 -70q-154 0 -224.5 85t-70.5 235v594h-141q-25 0 -36 9t-11 32zM410 -416q0 10 2 17l98 297q6 16 15.5 22t29.5 6h49q25 0 25 -16l-4 -16l-131 -304q-6 -12 -15.5 -17t-25.5 -5h-25q-18 0 -18 16z" />
<glyph unicode="&#x237;" horiz-adv-x="495" d="M-222 -263.5q-3 7.5 3 17.5l29 45q6 12 14 13q6 0 14 -7q47 -31 94.5 -45t106.5 -14q111 0 151.5 50t40.5 169v971q0 47 48 47h16q47 0 47 -47v-977q0 -307 -299 -307q-68 0 -134.5 17.5t-117.5 51.5q-10 8 -13 15.5z" />
<glyph unicode="&#x251;" horiz-adv-x="1253" d="M113 426q0 176 68.5 308t200.5 206t314 74q113 0 222.5 -33t181.5 -82v-852q0 -47 -47 -47h-15q-23 0 -32 11.5t-11 35.5l-6 98q-139 -176 -422 -176q-209 0 -331.5 119t-122.5 338zM219 438q0 -193 95.5 -284t293.5 -91q94 0 182.5 38t143.5 110t55 166v473 q-53 31 -132 50.5t-161 19.5q-221 0 -349 -127t-128 -355z" />
<glyph unicode="&#x259;" horiz-adv-x="1232" d="M113 524q0 18 10 29.5t31 11.5h858q0 168 -122 261.5t-323 93.5q-96 0 -181 -23t-144 -63q-10 -6 -15 -7q-8 0 -14 13l-27 45q-4 6 -4 14t15 19q76 49 179 72.5t208 23.5q233 0 384.5 -120t151.5 -374q0 -266 -138 -408.5t-378 -142.5q-244 0 -367.5 142.5t-123.5 412.5z M219 465q0 -186 97.5 -294t287.5 -108q195 0 301.5 112t106.5 290h-793z" />
<glyph unicode="&#x2bb;" horiz-adv-x="462" d="M113 993l4 17l147 346q6 12 15.5 17t25.5 5h25q18 0 18 -16q0 -10 -2 -16l-115 -340q-6 -16 -15 -22.5t-30 -6.5h-49q-24 0 -24 16z" />
<glyph unicode="&#x2bc;" horiz-adv-x="462" d="M115 993q0 10 2 17l114 340q6 16 15.5 22t29.5 6h50q25 0 24 -16l-4 -16l-147 -347q-6 -12 -15.5 -17t-25.5 -5h-25q-18 0 -18 16z" />
<glyph unicode="&#x2be;" d="M-92 1202v45q0 20 9 27.5t30 7.5q63 0 93 24.5t30 84.5q0 59 -30 83.5t-93 24.5q-20 0 -29.5 7t-9.5 28v45q0 14 10 23.5t27 9.5q106 0 172.5 -52.5t66.5 -168.5q0 -117 -66.5 -169.5t-172.5 -52.5q-17 0 -27 9.5t-10 23.5z" />
<glyph unicode="&#x2bf;" d="M-113 1391q0 117 66.5 169t173.5 52q16 0 26.5 -9.5t10.5 -23.5v-45q0 -20 -9.5 -27.5t-29.5 -7.5q-63 0 -93 -24.5t-30 -83.5t29.5 -84t93.5 -25q20 0 29.5 -7t9.5 -28v-45q0 -14 -10.5 -23.5t-26.5 -9.5q-107 0 -173.5 52.5t-66.5 169.5z" />
<glyph unicode="&#x2c6;" horiz-adv-x="815" d="M118 1175.5q-9 12.5 1 24.5l229 320q16 23 23.5 28.5t23.5 5.5h25q16 0 23.5 -6t23.5 -28l229 -320q4 -4 4 -14t-8 -16.5t-20 -6.5h-39q-23 0 -31 7.5t-22 27.5l-172 250l-172 -250q-14 -20 -22.5 -27.5t-31.5 -7.5h-39q-16 0 -25 12.5z" />
<glyph unicode="&#x2c7;" horiz-adv-x="815" d="M115 1532q0 10 8 16t20 6h39q23 0 31 -7t23 -27l172 -250l172 250q14 20 22 27t31 7h39q16 0 25.5 -12t-1.5 -24l-229 -320q-16 -23 -23.5 -29t-23.5 -6h-25q-16 0 -23 6.5t-24 28.5l-229 320q-4 4 -4 14z" />
<glyph unicode="&#x2c8;" d="M-55 1208v240q0 47 47 47h16q47 0 47 -47v-240q0 -47 -47 -47h-16q-47 0 -47 47z" />
<glyph unicode="&#x2c9;" horiz-adv-x="1206" d="M272 1292v15q0 45 47 45h570q47 0 47 -45v-15q0 -23 -11.5 -32t-35.5 -9h-570q-24 0 -35.5 9.5t-11.5 31.5z" />
<glyph unicode="&#x2ca;" d="M-35 1194l4 16l105 289q6 16 15 22.5t30 6.5h55q25 0 25 -17q0 -10 -4 -16l-138 -295q-6 -12 -15 -17t-26 -5h-30q-21 0 -21 16z" />
<glyph unicode="&#x2cb;" d="M-176 1511q0 16 24 17h56q20 0 29.5 -6t15.5 -23l104 -289l4 -16q0 -16 -20 -16h-31q-16 0 -25.5 5t-15.5 17l-137 295q-4 6 -4 16z" />
<glyph unicode="&#x2cc;" d="M-55 -125q0 47 47 47h16q47 0 47 -47v-240q0 -47 -47 -47h-16q-47 0 -47 47v240z" />
<glyph unicode="&#x2d8;" horiz-adv-x="802" d="M113 1477q0 16 9 26t23 10h50q20 0 27 -9t7 -29q0 -100 36 -153.5t136 -53.5t136 53t36 154q0 20 7.5 29t27.5 9h49q14 0 23.5 -10t9.5 -26q0 -143 -72.5 -228.5t-216.5 -85.5q-143 0 -215.5 85t-72.5 229z" />
<glyph unicode="&#x2d9;" horiz-adv-x="389" d="M113 1305v26q0 29 19.5 50.5t47.5 21.5h29q29 0 48 -21.5t19 -50.5v-26q0 -31 -18 -51.5t-49 -20.5h-29q-28 0 -47.5 21.5t-19.5 50.5z" />
<glyph unicode="&#x2da;" horiz-adv-x="673" d="M113 1348q0 94 64.5 159.5t158.5 65.5t159.5 -65.5t65.5 -159.5t-65.5 -159t-159.5 -65t-158.5 64.5t-64.5 159.5zM195 1348q0 -57 42 -99.5t99 -42.5q59 0 100 42t41 100q0 59 -41 100t-100 41q-57 0 -99 -41t-42 -100z" />
<glyph unicode="&#x2db;" horiz-adv-x="495" d="M113 -309q0 57 29.5 116.5t95.5 135.5q14 16 23 21t28 5h43q18 0 24 -10t-4 -22q-68 -82 -92 -132.5t-24 -97.5q0 -27 13 -41t36 -14q29 0 45 8q12 4 14 4q8 0 14 -14l21 -45q2 -4 2 -13q0 -12 -23 -22q-31 -16 -96 -16q-72 0 -110.5 38.5t-38.5 98.5z" />
<glyph unicode="&#x2dc;" horiz-adv-x="1005" d="M115 1241q0 16 20 43q80 98 213 98q59 0 97 -16t81 -49q37 -27 62.5 -39t64.5 -12q47 0 80 15t60 48q27 31 47 31q18 0 37 -19q14 -14 14 -28q0 -16 -21 -43q-80 -98 -213 -99q-55 0 -93 16.5t-83 49.5q-39 27 -65.5 39t-63.5 12q-47 0 -79.5 -15.5t-59.5 -47.5 q-27 -31 -47 -31q-18 0 -37 18q-14 14 -14 29z" />
<glyph unicode="&#x2dd;" horiz-adv-x="825" d="M115 1194q0 10 4 16l145 289q8 16 16.5 22.5t28.5 6.5h56q27 0 26 -17q0 -6 -6 -16l-178 -295q-8 -12 -16.5 -17t-24.5 -5h-31q-20 0 -20 16zM436 1194q0 10 4 16l146 289q8 16 16 22.5t29 6.5h55q27 0 27 -17q0 -6 -6 -16l-179 -295q-8 -12 -16 -17t-25 -5h-30 q-21 0 -21 16z" />
<glyph unicode="&#x300;" d="M-831 1511q0 16 24 17h55q20 0 29.5 -6t15.5 -23l105 -289l4 -16q0 -16 -20 -16h-31q-17 0 -26 5t-15 17l-137 295q-4 6 -4 16z" />
<glyph unicode="&#x301;" d="M-662 1194l5 16l104 289q6 16 15.5 22.5t29.5 6.5h55q25 0 25 -17q0 -10 -4 -16l-137 -295q-6 -12 -15.5 -17t-25.5 -5h-31q-21 0 -21 16z" />
<glyph unicode="&#x302;" d="M-290 1175.5q-9 12.5 1 24.5l230 320q16 23 23 28.5t24 5.5h24q16 0 23.5 -6t23.5 -28l230 -320q4 -4 4 -14t-8.5 -16.5t-20.5 -6.5h-39q-23 0 -31 7.5t-22 27.5l-172 250l-172 -250q-14 -20 -22.5 -27.5t-30.5 -7.5h-39q-17 0 -26 12.5z" />
<glyph unicode="&#x303;" d="M-1014 1241q0 16 21 43q80 98 213 98q59 0 97 -16t81 -49q37 -27 62.5 -39t64.5 -12q47 0 80 15t59 48q27 31 47 31q18 0 37 -19q14 -14 14 -28q0 -16 -20 -43q-80 -98 -213 -99q-55 0 -93 16.5t-83 49.5q-39 27 -65.5 39t-63.5 12q-47 0 -80 -15.5t-59 -47.5 q-27 -31 -48 -31q-18 0 -36 18q-14 14 -15 29z" />
<glyph unicode="&#x304;" d="M-330 1292v15q0 45 47 45h570q47 0 47 -45v-15q0 -23 -11.5 -32t-35.5 -9h-570q-24 0 -35.5 9.5t-11.5 31.5z" />
<glyph unicode="&#x306;" d="M-289 1477q0 16 9.5 26t23.5 10h49q20 0 27.5 -9t7.5 -29q0 -100 36 -153.5t136 -53.5t136 53t36 154q0 20 7 29t28 9h49q14 0 23.5 -10t9.5 -26q0 -143 -73 -228.5t-216 -85.5t-216 85t-73 229z" />
<glyph unicode="&#x307;" d="M-82 1305v26q0 29 19.5 50.5t48.5 21.5h28q29 0 48.5 -21.5t19.5 -50.5v-26q0 -31 -18.5 -51.5t-49.5 -20.5h-28q-29 0 -48.5 21.5t-19.5 50.5z" />
<glyph unicode="&#x308;" d="M-260 1243v27q0 29 19.5 50t47.5 21h29q29 0 48.5 -21.5t19.5 -49.5v-27q0 -31 -18.5 -51.5t-49.5 -20.5h-29q-28 0 -47.5 21.5t-19.5 50.5zM109 1243v27q0 29 19 50t48 21h29q29 0 48 -21.5t19 -49.5v-27q0 -31 -18 -51.5t-49 -20.5h-29q-29 0 -48 21.5t-19 50.5z" />
<glyph unicode="&#x309;" d="M-787 1557.5q1 3.5 7 7.5q39 25 95 39t114 14q123 0 185 -50t62 -134q0 -86 -63.5 -136.5t-149.5 -50.5v-55q0 -47 -47 -47h-16q-47 0 -47 47v78q0 31 18.5 47t53.5 16q82 0 113.5 23.5t31.5 77.5q0 47 -35 68.5t-106 21.5q-90 0 -170 -41q-14 -6 -17 2l-28 61 q-2 8 -1 11.5z" />
<glyph unicode="&#x30a;" d="M-223 1348q0 94 64.5 159.5t158.5 65.5t159.5 -65.5t65.5 -159.5t-65.5 -159t-159.5 -65t-158.5 64.5t-64.5 159.5zM-141 1348q0 -57 41 -99.5t100 -42.5t100 42t41 100q0 59 -41 100t-100 41t-100 -41t-41 -100z" />
<glyph unicode="&#x30b;" d="M-328 1194q0 10 4 16l146 289q8 16 16 22.5t29 6.5h55q27 0 27 -17q0 -6 -6 -16l-179 -295q-8 -12 -16 -17t-24 -5h-31q-21 0 -21 16zM-6 1194q0 10 4 16l145 289q8 16 16.5 22.5t28.5 6.5h56q27 0 26 -17q0 -6 -6 -16l-178 -295q-8 -12 -16.5 -17t-24.5 -5h-31 q-20 0 -20 16z" />
<glyph unicode="&#x30c;" d="M-293 1532q0 10 8.5 16t20.5 6h39q23 0 31 -7t22 -27l172 -250l172 250q14 20 22.5 27t30.5 7h39q16 0 25.5 -12t-0.5 -24l-230 -320q-16 -23 -23 -29t-24 -6h-24q-17 0 -24 6.5t-23 28.5l-230 320q-4 4 -4 14z" />
<glyph unicode="&#x31b;" d="M-164 1143v104q102 0 147.5 56.5t45.5 191.5q0 20 7 29.5t27 9.5h50q14 0 23 -10.5t9 -26.5q0 -176 -81.5 -265t-227.5 -89z" />
<glyph unicode="&#x323;" d="M-694 -231q0 29 19.5 50t47.5 21h29q29 0 48.5 -21.5t19.5 -49.5v-27q0 -31 -18.5 -51.5t-49.5 -20.5h-29q-28 0 -47.5 21.5t-19.5 50.5v27z" />
<glyph unicode="&#x324;" d="M-272 -231q0 29 19.5 50t47.5 21h29q29 0 48 -21.5t19 -49.5v-27q0 -31 -18 -51.5t-49 -20.5h-29q-28 0 -47.5 21.5t-19.5 50.5v27zM111 -231q0 29 19.5 50t47.5 21h29q29 0 48 -21.5t19 -49.5v-27q0 -31 -18 -51.5t-49 -20.5h-29q-28 0 -47.5 21.5t-19.5 50.5v27z" />
<glyph unicode="&#x326;" d="M84 -498q0 10 2 17l115 340q6 16 15 22t30 6h49q25 0 24 -16l-4 -16l-147 -347q-6 -12 -15.5 -17t-25.5 -5h-25q-18 0 -18 16z" />
<glyph unicode="&#x327;" d="M-128.5 -427q-4.5 5 1.5 19l16 35q6 16 19 17q2 0 18 -9q39 -25 101 -24q51 0 71.5 17.5t20.5 58.5q0 51 -33 66.5t-109 15.5h-26q-16 0 -21.5 9t0.5 23l56 140q6 16 15 22t30 6h53q25 0 25 -16q0 -10 -5 -16l-47 -103q74 0 117 -39t43 -112q0 -78 -51 -119t-139 -41 q-80 0 -133 33q-18 12 -22.5 17z" />
<glyph unicode="&#x328;" d="M-262 -309q0 57 29.5 116.5t95.5 135.5q14 16 23.5 21t27.5 5h43q18 0 24.5 -10t-4.5 -22q-68 -82 -92 -132.5t-24 -97.5q0 -27 13 -41t36 -14q29 0 45 8q12 4 14 4q8 0 15 -14l20 -45q2 -4 2 -13q0 -12 -22 -22q-31 -16 -97 -16q-71 0 -110 38.5t-39 98.5z" />
<glyph unicode="&#x32e;" d="M-289 -113q0 16 9.5 26.5t23.5 10.5h49q20 0 27.5 -9t7.5 -30q0 -100 36 -153.5t136 -53.5t136 53.5t36 153.5q0 20 7 29.5t28 9.5h49q14 0 23.5 -10t9.5 -27q0 -143 -73 -228t-216 -85t-216 85t-73 228z" />
<glyph unicode="&#x331;" d="M-330 -219q0 45 47 45h570q47 0 47 -45v-14q0 -23 -11.5 -32t-35.5 -9h-570q-24 0 -35.5 9t-11.5 32v14z" />
<glyph unicode="&#x394;" horiz-adv-x="1511" d="M115 39q0 14 6 29l575 1372q8 20 15.5 27.5t25.5 7.5h37q18 0 25.5 -7.5t15.5 -27.5l576 -1372q6 -14 6 -29q0 -39 -39 -39h-1204q-39 0 -39 39zM250 100h1010l-504 1209z" />
<glyph unicode="&#x3a9;" horiz-adv-x="1613" d="M113 39v27q0 23 10 31.5t31 8.5h372q-174 94 -281.5 254t-107.5 379q0 186 82 343t234.5 249t353.5 92t353.5 -92t234.5 -248.5t82 -343.5q0 -219 -107.5 -378.5t-282.5 -254.5h373q20 0 30.5 -9t10.5 -31v-27q0 -39 -39 -39h-424q-70 0 -69 61v37q0 27 10 45.5t37 34.5 q180 109 268 236t88 325q0 178 -74.5 312.5t-204.5 206t-288 71.5q-156 0 -285 -71.5t-203.5 -205.5t-74.5 -313q0 -199 88 -325.5t268 -235.5q27 -16 37 -34.5t10 -45.5v-37q0 -61 -70 -61h-423q-39 0 -39 39z" />
<glyph unicode="&#x3bc;" horiz-adv-x="1112" d="M113 -313v1249q0 47 47 47h16q47 0 47 -47v-606q0 -139 75 -203t218 -64q98 0 184 39t137.5 108t51.5 155v571q0 47 47 47h16q47 0 47 -47v-889q0 -25 -8 -36t-30 -11h-21q-23 0 -31 11.5t-8 35.5v109q-74 -90 -171 -138.5t-241 -48.5q-174 0 -266 99v-381q0 -47 -47 -47 h-16q-47 0 -47 47z" />
<glyph unicode="&#x3c0;" horiz-adv-x="1331" d="M92 924v14q0 45 47 45h891q47 0 47 -45v-14q0 -23 -11 -32t-36 -9h-119v-678q0 -78 28 -110t85 -32q51 0 81 10.5t71 37.5q10 6 14 6q8 0 14 -13l29 -45q4 -8 4 -12q0 -10 -14 -20q-47 -31 -96.5 -44.5t-112.5 -13.5q-103 0 -158 60.5t-55 177.5v676h-432v-836 q0 -47 -47 -47h-17q-47 0 -47 47v836h-119q-25 0 -36 9t-11 32z" />
<glyph unicode="&#xe01;" horiz-adv-x="1257" d="M113 879q0 20 8 26q197 201 506 201q248 0 362.5 -117t114.5 -309v-633q0 -47 -47 -47h-17q-47 0 -47 47v639q0 164 -90 245t-278 81q-121 0 -225.5 -37t-176.5 -101l41 -90q18 -41 25.5 -69.5t7.5 -75.5v-592q0 -47 -47 -47h-17q-47 0 -47 47v651l-59 136q-14 29 -14 45 z" />
<glyph unicode="&#xe02;" horiz-adv-x="1132" d="M113 1010v26q0 39 39 39h133q82 0 107.5 -30.5t25.5 -110.5v-100q0 -29 -5 -41.5t-26 -26.5q-82 -57 -122 -122.5t-40 -184.5v-133q0 -119 88 -191t234 -72q150 0 235.5 65t85.5 198v702q0 47 47 47h17q47 0 47 -47v-686q0 -168 -113.5 -270.5t-318.5 -102.5 q-203 0 -317.5 102.5t-114.5 270.5v121q0 231 192 364v88q0 33 -9 43.5t-42 10.5h-102q-20 0 -30.5 9t-10.5 32z" />
<glyph unicode="&#xe03;" horiz-adv-x="1130" d="M113 342v111q0 123 70.5 223t168.5 151v109q0 25 -10 35t-33 10q-20 0 -42.5 -15.5t-35.5 -33.5v-19q0 -49 -47 -49h-16q-47 0 -47 47v117q0 47 47 47h16q47 0 47 -47v-10q18 23 52 40t73 17q104 0 105 -119v-122q0 -29 -6 -43.5t-25 -24.5q-207 -115 -207 -317v-123 q0 -119 88 -191t234 -72q150 0 235.5 65t85.5 198v702q0 47 47 47h17q47 0 47 -47v-686q0 -168 -113.5 -270.5t-318.5 -102.5q-203 0 -317.5 102.5t-114.5 270.5z" />
<glyph unicode="&#xe04;" horiz-adv-x="1243" d="M154 47v674q0 172 119.5 278.5t347.5 106.5q229 0 349 -106.5t120 -278.5v-674q0 -47 -48 -47h-16q-47 0 -47 47v688q0 131 -94 204t-264 73t-263.5 -73t-93.5 -204v-350q106 176 297 176h66q39 0 39 -39v-26q0 -23 -10.5 -32t-30.5 -9h-64q-90 0 -156.5 -50.5 t-103.5 -135.5t-37 -183v-39q0 -47 -47 -47h-16q-47 0 -47 47z" />
<glyph unicode="&#xe05;" horiz-adv-x="1243" d="M154 47v784q0 125 72.5 200t193.5 75q72 0 120 -25.5t83 -72.5q35 47 83 72.5t119 25.5q133 0 199 -72.5t66 -202.5v-784q0 -47 -48 -47h-16q-47 0 -47 47v784q0 96 -37 138.5t-129 42.5q-55 0 -90 -20.5t-61 -59.5q-14 -23 -39 -23t-39 23q-27 39 -62 59.5t-90 20.5 q-86 0 -127 -43t-41 -138v-446q106 176 297 176h66q39 0 39 -39v-26q0 -23 -10.5 -32t-30.5 -9h-64q-90 0 -156.5 -50.5t-103.5 -135.5t-37 -183v-39q0 -47 -47 -47h-16q-47 0 -47 47z" />
<glyph unicode="&#xe06;" horiz-adv-x="1185" d="M113 911v117q0 47 47 47h16q47 0 47 -47v-10q18 23 52 40t73 17q104 0 105 -119v-122q0 -29 -6.5 -43.5t-24.5 -24.5q-195 -109 -195 -324v-69q0 -80 48.5 -151.5t134.5 -115t196 -43.5q156 0 236 75t80 214v676q0 47 47 47h16q47 0 47 -47v-668q0 -184 -105.5 -287.5 t-281.5 -103.5q-162 0 -261 48.5t-167 150.5v-121q0 -47 -47 -47h-6q-47 0 -47 47v399q0 127 64.5 229.5t162.5 151.5v109q0 25 -10 35t-33 10q-20 0 -42.5 -15.5t-35.5 -33.5v-19q0 -49 -47 -49h-16q-47 0 -47 47z" />
<glyph unicode="&#xe07;" horiz-adv-x="1202" d="M113 725q0 29 34 39l19 6q6 2 18 2q33 0 41 -33l154 -499q31 -100 86 -138.5t162 -38.5q180 0 268 126t88 350q0 242 -61.5 357.5t-223.5 115.5q-98 0 -168 -29l-16 -4q-16 0 -25 22l-14 35q-2 4 -2 11q0 23 31 30q78 29 198 29q209 0 298.5 -141.5t89.5 -419.5 q0 -274 -121 -425t-344 -151q-160 0 -237 60.5t-112 173.5l-159 502q-4 16 -4 20z" />
<glyph unicode="&#xe08;" horiz-adv-x="1171" d="M113 496v26q0 39 39 39h155q25 0 34 -10t9 -35v-209q0 -125 63.5 -184.5t213.5 -59.5q326 0 325 461q0 176 -44 282.5t-139 156t-253 49.5q-92 0 -182 -16.5t-160 -43.5l-18 -4q-16 0 -23 23l-14 35q-2 4 -2 10q0 23 30 31q74 27 177.5 43t199.5 16q209 0 327 -72.5 t163 -199.5t45 -310q0 -289 -119 -422t-313 -133q-189 0 -288 88t-99 250v148h-86q-20 0 -30.5 9t-10.5 32z" />
<glyph unicode="&#xe09;" horiz-adv-x="1191" d="M115 1018q0 18 30 29q74 27 177.5 43t199.5 16q203 0 316.5 -61.5t156.5 -170t43 -268.5v-559q0 -47 -47 -47h-6q-47 0 -47 47v121q-68 -102 -161 -150.5t-253 -48.5q-174 0 -278.5 103.5t-104.5 287.5v213q0 47 47 48h17q47 0 47 -48v-221q0 -139 78 -214t233 -75 q111 0 193 43.5t127 114t45 152.5v233q0 154 -41 242t-131 126t-242 38q-92 0 -182 -16.5t-160 -43.5l-16 -4q-16 0 -25 23l-14 35q-2 4 -2 12z" />
<glyph unicode="&#xe0a;" horiz-adv-x="1171" d="M113 1010v26q0 39 39 39h133q82 0 107.5 -30.5t25.5 -110.5v-100q0 -29 -5 -41.5t-26 -26.5q-82 -57 -122 -122.5t-40 -184.5v-133q0 -119 97.5 -191t244.5 -72q152 0 247 68t95 199v151q0 98 -37.5 156.5t-130.5 95.5q-25 10 -33 17.5t-8 29.5v11q0 18 8.5 27t30.5 22 q80 49 117 106.5t57 143.5q2 16 19 16h82q10 0 13 -4t1 -15q-20 -104 -64 -171.5t-135 -124.5q109 -51 150 -125t41 -181v-139q0 -109 -55.5 -194.5t-157.5 -134t-240 -48.5q-135 0 -237.5 47t-158.5 132t-56 194v121q0 231 192 364v88q0 33 -9 43.5t-42 10.5h-102 q-20 0 -30.5 9t-10.5 32z" />
<glyph unicode="&#xe0b;" horiz-adv-x="1169" d="M113 342v111q0 123 70.5 223t168.5 151v109q0 25 -10 35t-33 10q-20 0 -42.5 -15.5t-35.5 -33.5v-19q0 -49 -47 -49h-16q-47 0 -47 47v117q0 47 47 47h16q47 0 47 -47v-10q18 23 52 40t73 17q104 0 105 -119v-122q0 -29 -6 -43.5t-25 -24.5q-207 -115 -207 -317v-123 q0 -119 97.5 -191t244.5 -72q154 0 248 66t94 197v155q0 98 -38 156.5t-130 95.5q-25 10 -33 17.5t-8 29.5v11q0 18 8.5 27t30.5 22q80 49 117 106.5t57 143.5q2 16 19 16h82q10 0 13 -4t1 -15q-20 -104 -64 -171.5t-135 -124.5q109 -51 150 -125t41 -181v-143 q0 -109 -55.5 -194t-158 -132t-239.5 -47q-135 0 -237.5 47t-158.5 132t-56 194z" />
<glyph unicode="&#xe0c;" horiz-adv-x="1976" d="M113 879q0 20 8 26q90 92 203.5 146.5t277.5 54.5q242 0 347.5 -116t105.5 -310v-307q0 -80 45 -151.5t127 -115t188 -43.5q297 0 297 289v676q0 47 47 47h17q47 0 47 -47v-668q0 -184 -99.5 -287.5t-269.5 -103.5q-156 0 -249 48.5t-161 150.5v-121q0 -47 -47 -47h-6 q-47 0 -47 47v639q0 166 -81 246t-263 80q-223 0 -377 -138l41 -90q18 -41 25.5 -69.5t7.5 -75.5v-479q0 -33 9 -43.5t42 -10.5h103q20 0 30.5 -9t10.5 -31v-27q0 -39 -39 -39h-134q-82 0 -107.5 30.5t-25.5 110.5v557l-59 136q-14 29 -14 45z" />
<glyph unicode="&#xe0d;" horiz-adv-x="1976" d="M113 879q0 20 8 26q90 92 203.5 146.5t277.5 54.5q242 0 347.5 -116t105.5 -310v-178q0 -289 329 -289q166 0 247 69.5t81 204.5v541q0 47 47 47h17q47 0 47 -47v-891q0 -193 -113 -303t-352 -110q-86 0 -168 17t-137 46q-20 10 -27.5 18.5t-1.5 22.5l14 35q10 25 23 24 q10 0 18 -6q55 -29 128 -46t151 -17q182 0 268 74.5t86 230.5v117q-115 -121 -328 -121t-326.5 101.5t-113.5 289.5v176q0 166 -81 246t-263 80q-223 0 -377 -138l41 -90q18 -41 25.5 -69.5t7.5 -75.5v-479q0 -33 9 -43.5t42 -10.5h103q20 0 30.5 -9t10.5 -31v-27 q0 -39 -39 -39h-134q-82 0 -107.5 30.5t-25.5 110.5v557l-59 136q-14 29 -14 45z" />
<glyph unicode="&#xe0e;" horiz-adv-x="1316" d="M113 39v27q0 23 10 31.5t31 8.5h71q33 0 42 10.5t9 43.5v538l-90 136q-16 25 -16 43q0 23 14 32q106 90 221 143.5t281 53.5q248 0 362.5 -117t114.5 -309v-1024q0 -39 -49 -39h-49q-18 0 -32.5 7t-28 17.5t-21.5 16.5q-100 72 -272 72q-164 0 -295 -109l-13 -6 q-6 0 -16 12l-33 43q-6 6 -6 13q0 8 17 20q70 57 159.5 89t186.5 32q221 0 342 -100v962q0 164 -90.5 245t-278.5 81q-121 0 -222.5 -38t-172.5 -102l61 -92q23 -33 30 -61.5t7 -79.5v-498q0 -80 -25.5 -110.5t-107.5 -30.5h-102q-39 0 -39 39z" />
<glyph unicode="&#xe0f;" horiz-adv-x="1316" d="M113 39v27q0 23 10 31.5t31 8.5h71q33 0 42 10.5t9 43.5v538l-90 136q-16 25 -16 43q0 23 14 32q106 90 221 143.5t281 53.5q248 0 362.5 -117t114.5 -309v-850q0 -102 -68.5 -166.5t-170.5 -64.5q-187 -1 -244 149q-29 -74 -83 -100.5t-136 -26.5h-127q-20 0 -30.5 9.5 t-10.5 31.5v27q0 39 39 39h162q59 0 82.5 16t39.5 61q10 25 17.5 33t30.5 8h30q18 0 28.5 -9t20.5 -30q27 -59 66 -86.5t102 -27.5q141 0 142 141v852q0 164 -90.5 245t-278.5 81q-121 0 -222.5 -38t-172.5 -102l61 -92q23 -33 30 -61.5t7 -79.5v-498q0 -80 -25.5 -110.5 t-107.5 -30.5h-102q-39 0 -39 39z" />
<glyph unicode="&#xe10;" horiz-adv-x="1171" d="M113 496v26q0 39 39 39h155q25 0 34 -10t9 -35v-209q0 -125 63.5 -184.5t213.5 -59.5q326 0 325 461q0 176 -44 282.5t-139 156t-253 49.5q-92 0 -182 -16.5t-160 -43.5l-18 -4q-16 0 -23 23l-14 35q-2 4 -2 10q0 23 30 31q74 27 177.5 43t199.5 16q143 0 254 -39 q43 35 102.5 66.5t92.5 42.5q33 8 35 8q16 0 22 -19l19 -53q4 -12 4 -14q0 -6 -17 -17l-153 -69q96 -72 136 -194t40 -294q0 -324 -160 -463q160 -78 160 -231q0 -102 -68.5 -164.5t-177.5 -62.5q-96 0 -161.5 33.5t-96.5 111.5q-29 -74 -83 -100.5t-136 -26.5h-107 q-20 0 -30.5 9.5t-10.5 31.5v27q0 39 39 39h142q59 0 82.5 16t40.5 61q10 25 17 33t30 8h30q18 0 28.5 -9t20.5 -30q27 -57 70 -83.5t113 -26.5q82 0 116.5 35t34.5 102q0 63 -28.5 104.5t-94.5 75.5q-88 -45 -202 -45q-188 0 -287.5 88t-99.5 250v148h-86q-20 0 -30.5 9 t-10.5 32z" />
<glyph unicode="&#xe11;" horiz-adv-x="1198" d="M113 911v117q0 47 47 47h16q47 0 47 -47v-10q18 23 52 40t73 17q41 0 63.5 -17.5t30.5 -51.5q115 100 295 100q145 0 226 -80t81 -231v-748q0 -47 -47 -47h-16q-47 0 -47 47v756q0 209 -209 209q-170 0 -272 -111v-67q0 -29 -6.5 -42.5t-24.5 -25.5q-84 -51 -119 -119.5 t-35 -197.5v-402q0 -47 -47 -47h-16q-47 0 -47 47v406q0 133 49 231t137 143v109q0 25 -10 35t-33 10q-20 0 -42.5 -15.5t-35.5 -33.5v-19q0 -49 -47 -49h-16q-47 0 -47 47z" />
<glyph unicode="&#xe12;" horiz-adv-x="2037" d="M113 518q0 197 50 329t134 195.5t188 63.5q117 0 170 -98q35 47 82 72.5t119 25.5q127 0 193.5 -72.5t66.5 -202.5v-458q0 -80 45 -151.5t127 -115t189 -43.5q297 0 297 289v676q0 47 47 47h16q47 0 47 -47v-668q0 -184 -99 -287.5t-269 -103.5q-156 0 -249 48.5 t-161 150.5v-121q0 -47 -47 -47h-6q-47 0 -47 47v784q0 94 -35 137.5t-127 43.5q-55 0 -89 -20.5t-61 -59.5q-14 -23 -39 -23t-41 23q-33 45 -55 62.5t-67 17.5q-127 0 -200 -124t-73 -368q0 -213 84 -335t242 -122q47 0 93 8.5t75 20.5l16 4q16 0 25 -22l14 -35q2 -4 2 -12 q0 -18 -31 -29q-78 -29 -198 -29q-209 0 -318.5 150.5t-109.5 398.5z" />
<glyph unicode="&#xe13;" horiz-adv-x="1976" d="M113 879q0 20 8 26q90 92 203.5 146.5t277.5 54.5q242 0 347.5 -116t105.5 -310v-328q0 -289 297 -289q106 0 188 43.5t127 115t45 151.5v655q0 47 47 47h17q47 0 47 -47v-981q0 -47 -47 -47h-7q-47 0 -47 47v121q-68 -102 -161 -150.5t-248 -48.5q-170 0 -269.5 103.5 t-99.5 287.5v326q0 166 -81 246t-263 80q-223 0 -377 -138l41 -90q18 -41 25.5 -69.5t7.5 -75.5v-479q0 -33 9 -43.5t42 -10.5h103q20 0 30.5 -9t10.5 -31v-27q0 -39 -39 -39h-134q-82 0 -107.5 30.5t-25.5 110.5v557l-59 136q-14 29 -14 45z" />
<glyph unicode="&#xe14;" horiz-adv-x="1296" d="M113 518q0 281 136 434.5t404 153.5q260 0 375 -124t115 -331v-604q0 -47 -47 -47h-17q-47 0 -47 47v606q0 180 -89 269.5t-290 89.5q-229 0 -331.5 -126t-102.5 -366q0 -213 84 -335t242 -122q47 0 93 8.5t75 20.5l16 4q16 0 25 -22l14 -35q2 -4 2 -10q0 -20 -31 -31 q-78 -29 -198 -29q-209 0 -318.5 150.5t-109.5 398.5z" />
<glyph unicode="&#xe15;" horiz-adv-x="1310" d="M113 518q0 195 52 327t139 196.5t192 64.5q63 0 109 -26.5t71 -71.5q72 98 211 98q129 0 199.5 -74t70.5 -201v-784q0 -47 -47 -47h-16q-47 0 -47 47v784q0 92 -40 136.5t-133 44.5q-102 0 -159 -80q-14 -23 -39 -23t-41 23q-31 39 -59.5 59.5t-73.5 20.5 q-127 0 -205 -125t-78 -367q0 -213 84 -335t242 -122q47 0 93 8.5t75 20.5l16 4q16 0 25 -22l14 -35q2 -4 2 -12q0 -18 -31 -29q-78 -29 -198 -29q-209 0 -318.5 150.5t-109.5 398.5z" />
<glyph unicode="&#xe16;" horiz-adv-x="1257" d="M113 879q0 20 8 26q197 201 506 201q248 0 362.5 -117t114.5 -309v-633q0 -47 -47 -47h-17q-47 0 -47 47v639q0 164 -90 245t-278 81q-121 0 -225.5 -37t-176.5 -101l41 -90q18 -41 25.5 -69.5t7.5 -75.5v-479q0 -33 9 -43.5t42 -10.5h103q20 0 30.5 -9t10.5 -31v-27 q0 -39 -39 -39h-134q-81 0 -107 30.5t-26 110.5v557l-59 136q-14 29 -14 45z" />
<glyph unicode="&#xe17;" horiz-adv-x="1234" d="M154 47v981q0 47 47 47h6q47 0 47 -47v-121q66 100 169 149.5t265 49.5q182 0 287.5 -103.5t105.5 -287.5v-668q0 -47 -47 -47h-16q-47 0 -47 47v676q0 289 -322 289q-111 0 -199 -43t-137 -115t-49 -152v-655q0 -47 -47 -47h-16q-47 0 -47 47z" />
<glyph unicode="&#xe18;" horiz-adv-x="1134" d="M113 340v74q0 47 47 47h16q47 0 47 -47v-82q0 -133 94.5 -201t255.5 -68q166 0 255.5 62.5t89.5 173.5q0 80 -38 125t-106.5 70.5t-214.5 62.5l-57 14q-139 35 -211 61.5t-123 79t-51 140.5q0 131 114.5 192.5t319.5 61.5q106 0 220 -19.5t185 -50.5q20 -8 27.5 -17 t1.5 -24l-14 -34q-8 -23 -23 -23q-12 0 -18 4q-63 29 -172 49.5t-207 20.5q-172 0 -250 -37t-78 -123q0 -53 36 -87t93.5 -54.5t169.5 -48.5l78 -21q158 -41 244 -78t132 -98.5t46 -165.5q0 -152 -123 -241t-326 -89q-202 2 -331 96.5t-129 274.5z" />
<glyph unicode="&#xe19;" horiz-adv-x="1234" d="M154 360v668q0 47 47 47h16q47 0 47 -47v-676q0 -139 83 -214t239 -75q111 0 198.5 43.5t137 115t49.5 151.5v655q0 47 47 47h16q47 0 47 -47v-981q0 -47 -47 -47h-6q-47 0 -47 47v121q-66 -100 -169 -149.5t-265 -49.5q-176 0 -284.5 103.5t-108.5 287.5z" />
<glyph unicode="&#xe1a;" horiz-adv-x="1251" d="M154 336v692q0 47 47 47h16q47 0 47 -47v-709q0 -125 94.5 -190.5t266.5 -65.5t267 66t95 190v709q0 47 47 47h17q47 0 47 -47v-692q0 -170 -121 -268.5t-352 -98.5q-232 0 -351.5 98.5t-119.5 268.5z" />
<glyph unicode="&#xe1b;" horiz-adv-x="1251" d="M154 336v692q0 47 47 47h16q47 0 47 -47v-709q0 -125 94.5 -190.5t266.5 -65.5t267 66t95 190v1067q0 47 47 48h17q47 0 47 -48v-1050q0 -170 -121 -268.5t-352 -98.5q-232 0 -351.5 98.5t-119.5 268.5z" />
<glyph unicode="&#xe1c;" horiz-adv-x="1277" d="M154 47v981q0 47 45 47h200q25 0 36 -9t11 -32v-14q0 -45 -47 -45h-135v-787l340 578q18 29 45 29q16 0 26.5 -7.5t18.5 -21.5l320 -578v840q0 47 47 47h16q47 0 47 -47v-981q0 -47 -47 -47h-26q-20 0 -32.5 6t-23.5 25l-346 624l-366 -624q-12 -18 -23.5 -24.5 t-32.5 -6.5h-26q-47 0 -47 47z" />
<glyph unicode="&#xe1d;" horiz-adv-x="1277" d="M154 47v981q0 47 45 47h200q25 0 36 -9t11 -32v-14q0 -45 -47 -45h-135v-787l340 578q18 29 45 29q16 0 26.5 -7.5t18.5 -21.5l320 -578v1188q0 47 47 47h16q47 0 47 -47v-1329q0 -47 -47 -47h-26q-20 0 -32.5 6t-23.5 25l-346 624l-366 -624q-12 -18 -23.5 -24.5 t-32.5 -6.5h-26q-47 0 -47 47z" />
<glyph unicode="&#xe1e;" horiz-adv-x="1445" d="M94 1053q0 23 27 22h45q23 0 32 -7t13 -28l205 -858l243 752q6 18 13.5 26.5t25.5 8.5h52q18 0 24 -8.5t12 -26.5l244 -752l205 858q4 20 13 27.5t32 7.5h45q18 0 23.5 -10t1.5 -27l-254 -1003q-4 -20 -13.5 -27.5t-27.5 -7.5h-37q-18 0 -26.5 7t-14.5 28l-254 788 l-254 -788q-6 -20 -14.5 -27.5t-26.5 -7.5h-37q-18 0 -27.5 7t-13.5 28l-254 1003q-2 4 -2 15z" />
<glyph unicode="&#xe1f;" horiz-adv-x="1417" d="M94 1053q0 23 27 22h45q23 0 32 -7t13 -28l205 -858l243 752q6 18 13.5 26.5t25.5 8.5h52q18 0 24 -8.5t12 -26.5l244 -752l279 1176q4 20 13 27.5t32 7.5h45q18 0 23 -10.5t1 -26.5l-327 -1321q-4 -20 -13.5 -27.5t-27.5 -7.5h-37q-18 0 -26.5 7t-14.5 28l-254 788 l-254 -788q-6 -20 -14.5 -27.5t-26.5 -7.5h-37q-18 0 -27.5 7t-13.5 28l-254 1003q-2 4 -2 15z" />
<glyph unicode="&#xe20;" horiz-adv-x="1316" d="M113 39v27q0 23 10 31.5t31 8.5h71q33 0 42 10.5t9 43.5v538l-90 136q-16 25 -16 43q0 23 14 32q106 90 221 143.5t281 53.5q248 0 362.5 -117t114.5 -309v-633q0 -47 -47 -47h-16q-47 0 -47 47v639q0 164 -90.5 245t-278.5 81q-121 0 -222.5 -38t-172.5 -102l61 -92 q23 -33 30 -61.5t7 -79.5v-498q0 -80 -25.5 -110.5t-107.5 -30.5h-102q-39 0 -39 39z" />
<glyph unicode="&#xe21;" horiz-adv-x="1234" d="M154 47v981q0 47 47 47h16q47 0 47 -47v-655q0 -80 49 -151.5t137.5 -115t198.5 -43.5q156 0 239 75t83 214v676q0 47 47 47h16q47 0 47 -47v-668q0 -184 -108.5 -287.5t-284.5 -103.5q-162 0 -265.5 49.5t-168.5 149.5v-121q0 -47 -47 -47h-6q-47 0 -47 47z" />
<glyph unicode="&#xe22;" horiz-adv-x="1208" d="M113 301q0 221 204 277q-98 31 -146 93t-48 160q0 117 75.5 196t217.5 79q96 0 170 -31q23 -10 29 -18t-1 -23l-14 -33q-8 -23 -22 -22q-12 0 -19 4q-61 29 -153 29q-84 0 -133.5 -47t-49.5 -134q0 -102 68.5 -151t206.5 -49h43q25 0 36 -9.5t11 -31.5v-15q0 -45 -47 -45 h-29q-150 0 -219.5 -54t-69.5 -179q0 -233 359 -234q195 0 278.5 86.5t83.5 272.5v606q0 47 47 47h17q47 0 47 -47v-604q0 -209 -107.5 -332t-365.5 -123q-209 0 -339 79t-130 253z" />
<glyph unicode="&#xe23;" horiz-adv-x="1067" d="M117 78l14 35q8 23 23 22q12 0 18 -4q63 -31 161.5 -49.5t196.5 -18.5q147 0 233.5 43.5t86.5 135.5q0 68 -34 110.5t-106.5 74.5t-226.5 83q-113 37 -182.5 72.5t-113.5 94t-44 146.5q0 137 108.5 210t291.5 73q211 0 364 -68q20 -8 27.5 -17t1.5 -24l-14 -34 q-8 -23 -23 -23q-12 0 -18 4q-66 31 -154 49.5t-184 18.5q-293 0 -293 -189q0 -68 31.5 -106.5t92 -65t208.5 -76.5q141 -49 218 -90t115.5 -97t38.5 -146q0 -131 -114.5 -202t-307.5 -71q-104 0 -209.5 18.5t-177.5 49.5q-20 8 -27 17t-1 24z" />
<glyph unicode="&#xe24;" horiz-adv-x="1257" d="M113 879q0 20 8 26q197 201 506 201q248 0 362.5 -117t114.5 -309v-952q0 -47 -47 -47h-17q-47 0 -47 47v958q0 164 -90 245t-278 81q-121 0 -225.5 -37t-176.5 -101l41 -90q18 -41 25.5 -69.5t7.5 -75.5v-479q0 -33 9 -43.5t42 -10.5h103q20 0 30.5 -9t10.5 -31v-27 q0 -39 -39 -39h-134q-82 0 -107.5 30.5t-25.5 110.5v557l-59 136q-14 29 -14 45z" />
<glyph unicode="&#xe25;" horiz-adv-x="1224" d="M113 272q0 322 438 322h410v108q0 109 -32 176.5t-108 100.5t-209 33q-186 0 -348 -62l-16 -4q-16 0 -25 23l-14 35q-2 4 -2 12q0 18 31 28q76 29 178 45.5t196 16.5q248 0 353.5 -99.5t105.5 -320.5v-639q0 -47 -47 -47h-16q-47 0 -47 47v447h-414q-162 0 -245 -50.5 t-83 -171.5q0 -96 62.5 -152.5t175.5 -56.5q47 0 93 8.5t75 20.5l16 4q16 0 25 -22l14 -35q2 -4 2 -12q0 -18 -31 -29q-78 -29 -198 -29q-146 0 -243 74t-97 229z" />
<glyph unicode="&#xe26;" horiz-adv-x="1316" d="M113 39v27q0 23 10 31.5t31 8.5h71q33 0 42 10.5t9 43.5v538l-90 136q-16 25 -16 43q0 23 14 32q106 90 221 143.5t281 53.5q248 0 362.5 -117t114.5 -309v-952q0 -47 -47 -47h-16q-47 0 -47 47v958q0 164 -90.5 245t-278.5 81q-121 0 -222.5 -38t-172.5 -102l61 -92 q23 -33 30 -61.5t7 -79.5v-498q0 -80 -25.5 -110.5t-107.5 -30.5h-102q-39 0 -39 39z" />
<glyph unicode="&#xe27;" horiz-adv-x="1124" d="M117 72l14 34q8 23 23 23q12 0 18 -4q57 -27 137 -44.5t168 -17.5q428 0 428 474q0 475 -416 475q-164 0 -290 -62q-6 -4 -19 -4q-14 0 -22 23l-15 35q-2 4 -2 12t9.5 15t21.5 13q53 27 140 44.5t177 17.5q252 0 387.5 -146.5t135.5 -422.5q0 -274 -139.5 -421 t-393.5 -147q-92 0 -186 18.5t-148 43.5q-20 10 -27 18t-1 23z" />
<glyph unicode="&#xe28;" horiz-adv-x="1241" d="M154 47v674q0 172 119.5 278.5t347.5 106.5q127 0 233 -39q43 35 102.5 66.5t92.5 42.5q33 8 34 8q16 0 23 -19l18 -53q4 -12 4 -14q0 -6 -16 -17l-162 -73q76 -49 108 -120t32 -167v-674q0 -47 -48 -47h-16q-47 0 -47 47v688q0 131 -94 204t-264 73t-263.5 -73 t-93.5 -204v-350q106 176 297 176h66q39 0 39 -39v-26q0 -23 -10.5 -32t-30.5 -9h-64q-90 0 -156.5 -50.5t-103.5 -135.5t-37 -183v-39q0 -47 -47 -47h-16q-47 0 -47 47z" />
<glyph unicode="&#xe29;" horiz-adv-x="1288" d="M154 336v692q0 47 47 47h16q47 0 47 -47v-709q0 -125 94.5 -190.5t266.5 -65.5t267 66t95 190v220h-219q-20 0 -30.5 9t-10.5 32v26q0 39 39 39h221v383q0 47 47 47h17q47 0 47 -47v-383h90q39 0 39 -39v-26q0 -23 -10.5 -32t-30.5 -9h-88v-203q0 -170 -121 -268.5 t-352 -98.5q-232 0 -351.5 98.5t-119.5 268.5z" />
<glyph unicode="&#xe2a;" horiz-adv-x="1251" d="M113 272q0 322 438 322h410v108q0 109 -32 176.5t-108 100.5t-209 33q-186 0 -348 -62l-16 -4q-16 0 -25 23l-14 35q-2 4 -2 12q0 18 31 28q76 29 178 45.5t196 16.5q156 0 252 -39q43 35 102.5 66.5t92.5 42.5q33 8 35 8q16 0 22 -19l19 -53q4 -12 4 -14q0 -6 -17 -17 l-159 -73q109 -96 108 -322v-639q0 -47 -47 -47h-16q-47 0 -47 47v447h-414q-162 0 -245 -50.5t-83 -171.5q0 -96 62.5 -152.5t175.5 -56.5q47 0 93 8.5t75 20.5l16 4q16 0 25 -22l14 -35q2 -4 2 -12q0 -18 -31 -29q-78 -29 -198 -29q-146 0 -243 74t-97 229z" />
<glyph unicode="&#xe2b;" horiz-adv-x="1173" d="M154 47v981q0 47 47 47h16q47 0 47 -47v-328h430q123 0 168 62.5t45 177.5v88q0 47 47 47h17q47 0 47 -47v-80q0 -264 -187 -297q186 -37 187 -295v-309q0 -47 -47 -47h-17q-47 0 -47 47v315q0 117 -46 177.5t-152 60.5h-445v-553q0 -47 -47 -47h-16q-47 0 -47 47z" />
<glyph unicode="&#xe2c;" horiz-adv-x="1368" d="M94 1053q0 23 27 22h45q23 0 32 -7t13 -28l205 -858l243 752q6 18 13.5 26.5t25.5 8.5h52q18 0 24 -8.5t12 -26.5l244 -752l123 516q12 49 21.5 96.5t9.5 77.5q0 41 -18.5 71t-61.5 48q-25 12 -33 19.5t-8 29.5v11q0 20 9 30.5t30 16.5q66 20 96.5 45.5t40.5 58.5t18 105 l7 51q2 20 9 27.5t27 7.5h46q35 0 30 -37l-6 -51q-8 -76 -23.5 -121t-51 -80t-103.5 -64q96 -51 96 -178q0 -68 -24 -160l-168 -667q-4 -20 -13.5 -27.5t-27.5 -7.5h-37q-18 0 -26.5 7t-14.5 28l-254 788l-254 -788q-6 -20 -14.5 -27.5t-26.5 -7.5h-37q-18 0 -27.5 7 t-13.5 28l-254 1003q-2 4 -2 15z" />
<glyph unicode="&#xe2d;" horiz-adv-x="1165" d="M113 358v209q0 31 30 31h238q39 0 39 -39v-27q0 -23 -10.5 -31.5t-30.5 -8.5h-156v-140q0 -152 84 -220.5t254 -68.5q207 0 296 114t89 366q0 248 -95 358.5t-325 110.5q-92 0 -182 -16.5t-160 -43.5l-16 -4q-16 0 -25 23l-14 35q-2 4 -2 12q0 18 31 29q74 27 177 43 t200 16q270 0 394 -133t124 -430q0 -299 -127 -436.5t-365 -137.5q-223 0 -335.5 98.5t-112.5 290.5z" />
<glyph unicode="&#xe2e;" horiz-adv-x="1171" d="M113 358v209q0 31 30 31h238q39 0 39 -39v-27q0 -23 -10.5 -31.5t-30.5 -8.5h-156v-140q0 -152 84 -220.5t254 -68.5q207 0 296 114t89 366q0 248 -95 358.5t-325 110.5q-92 0 -182 -16.5t-160 -43.5l-16 -4q-16 0 -25 23l-14 35q-2 4 -2 12q0 18 31 29q74 27 177 43 t200 16q152 0 249 -39q43 35 102.5 66.5t92.5 42.5q33 8 35 8q16 0 22 -19l19 -53q4 -12 4 -14q0 -6 -17 -17l-155 -71q84 -66 125 -181.5t41 -285.5q0 -299 -127 -436.5t-365 -137.5q-223 0 -335.5 98.5t-112.5 290.5z" />
<glyph unicode="&#xe2f;" horiz-adv-x="974" d="M72 831q0 119 77.5 197t194.5 78q49 0 80 -6t63 -21q23 -10 29 -18t0 -23l-14 -32q-8 -23 -23 -23q-12 0 -18 4q-29 14 -56.5 19.5t-66.5 5.5q-74 0 -120 -45t-46 -136q0 -106 66.5 -165.5t197.5 -59.5q162 0 275 82v340q0 47 47 47h16q47 0 47 -47v-981q0 -47 -47 -47 h-16q-47 0 -47 47v541q-51 -33 -123 -54.5t-152 -21.5q-166 0 -265 85t-99 234z" />
<glyph unicode="&#xe30;" horiz-adv-x="661" d="M113 248v94q0 47 47 47h16q47 0 47 -47v-123q133 16 287 17q23 0 31 -9.5t8 -31.5v-27q0 -39 -39 -39h-272q-66 0 -95.5 28.5t-29.5 90.5zM113 784v95q0 47 47 47h16q47 0 47 -47v-123q133 16 287 16q23 0 31 -9t8 -32v-26q0 -39 -39 -39h-272q-66 0 -95.5 28.5 t-29.5 89.5z" />
<glyph unicode="&#xe31;" d="M-590 1411v94q0 47 47 47h17q47 0 47 -47v-123q137 6 277.5 11.5t230.5 5.5q23 0 31 -9.5t8 -31.5v-27q0 -39 -39 -39h-494q-65 0 -95 29t-30 90z" />
<glyph unicode="&#xe32;" horiz-adv-x="882" d="M53 1014q0 8 9.5 15t21.5 13q57 31 133 47.5t160 16.5q352 0 352 -350v-709q0 -47 -47 -47h-16q-48 0 -48 47v723q0 121 -54 181.5t-187 60.5q-145 0 -266 -64q-8 -6 -19 -6q-14 0 -22 25l-15 34q-2 4 -2 13z" />
<glyph unicode="&#xe33;" horiz-adv-x="882" d="M-436 1409q0 94 64.5 159.5t158.5 65.5t159.5 -65.5t65.5 -159.5t-65.5 -158.5t-159.5 -64.5t-158.5 64.5t-64.5 158.5zM-352 1409q0 -57 41 -98t98 -41t98 41t41 98t-41 98t-98 41t-98 -41t-41 -98zM53 1014q0 8 9.5 15t21.5 13q57 31 133 47.5t160 16.5q352 0 352 -350 v-709q0 -47 -47 -47h-16q-48 0 -48 47v723q0 121 -54 181.5t-187 60.5q-145 0 -266 -64q-8 -6 -19 -6q-14 0 -22 25l-15 34q-2 4 -2 13z" />
<glyph unicode="&#xe34;" d="M-993 1333v15q0 45 47 45h745q47 0 47 -45v-15q0 -23 -11 -32t-36 -9h-745q-25 0 -36 9.5t-11 31.5z" />
<glyph unicode="&#xe35;" d="M-993 1333v15q0 45 47 45h682v204q0 47 47 48h16q47 0 47 -48v-264q0 -23 -11 -32t-36 -9h-745q-25 0 -36 9.5t-11 31.5z" />
<glyph unicode="&#xe36;" d="M-993 1333v15q0 45 47 45h465q-20 31 -21 75q0 74 53.5 128.5t126.5 54.5q76 0 129.5 -54.5t53.5 -128.5t-53.5 -125t-131.5 -51h-622q-25 0 -36 9.5t-11 31.5zM-414 1468q0 -39 27 -66.5t65 -27.5q41 0 68 28t27 66q0 41 -27 69t-68 28q-39 0 -65.5 -28t-26.5 -69z" />
<glyph unicode="&#xe37;" d="M-993 1333v15q0 45 47 45h389v204q0 47 47 48h16q47 0 48 -48v-204h182v204q0 47 47 48h16q47 0 47 -48v-264q0 -23 -11 -32t-36 -9h-745q-25 0 -36 9.5t-11 31.5z" />
<glyph unicode="&#xe38;" d="M-373 -190q0 39 39 38h137q25 0 34 -10t9 -35v-239q0 -47 -47 -47h-16q-47 0 -47 47v178h-68q-20 0 -30.5 9t-10.5 32v27z" />
<glyph unicode="&#xe39;" d="M-631 -190q0 39 39 38h135q25 0 34 -10t9 -35v-161q0 -27 20.5 -42.5t55.5 -15.5t55.5 15.5t20.5 42.5v159q0 47 47 47h14q47 0 47 -47v-166q0 -66 -48 -102.5t-136 -36.5t-136 37t-48 102v111h-68q-20 0 -30.5 9t-10.5 32v23z" />
<glyph unicode="&#xe3a;" d="M-303 -233q0 29 18.5 48t44.5 19h29q27 0 45.5 -19.5t18.5 -47.5v-27q0 -29 -17.5 -48.5t-46.5 -19.5h-29q-26 0 -44.5 19.5t-18.5 48.5v27z" />
<glyph unicode="&#xe3f;" horiz-adv-x="1325" d="M154 47v1299q0 47 47 47h338v147q0 47 47 47h16q47 0 47 -47v-147h137q186 0 283.5 -97.5t97.5 -261.5q0 -102 -55 -184t-156 -125q256 -76 256 -340q0 -166 -105.5 -275.5t-305.5 -109.5h-152v-143q0 -47 -47 -47h-16q-47 0 -47 47v143h-338q-47 0 -47 47zM264 100h539 q158 0 230.5 80t72.5 205q0 145 -90 217t-254 72h-498v-574zM264 774h512q135 0 210 75t75 185q0 127 -73 192.5t-214 65.5h-510v-518z" />
<glyph unicode="&#xe40;" horiz-adv-x="571" d="M154 141v887q0 47 47 47h16q47 0 47 -47v-868q0 -33 9.5 -43.5t41.5 -10.5h103q20 0 30.5 -9t10.5 -31v-27q0 -39 -39 -39h-133q-82 0 -107.5 30.5t-25.5 110.5z" />
<glyph unicode="&#xe41;" horiz-adv-x="1058" d="M154 141v887q0 47 47 47h16q47 0 47 -47v-868q0 -33 9.5 -43.5t41.5 -10.5h103q20 0 30.5 -9t10.5 -31v-27q0 -39 -39 -39h-133q-82 0 -107.5 30.5t-25.5 110.5zM641 141v887q0 47 47 47h17q47 0 47 -47v-868q0 -33 9 -43.5t42 -10.5h102q20 0 30.5 -9t10.5 -31v-27 q0 -39 -39 -39h-133q-82 0 -107.5 30.5t-25.5 110.5z" />
<glyph unicode="&#xe42;" horiz-adv-x="692" d="M20 1427v31q0 45 48 45h526q47 0 47 -45v-14q0 -23 -11.5 -32t-35.5 -9h-416l109 -88q70 -57 88 -106.5t18 -161.5v-887q0 -33 9.5 -43.5t41.5 -10.5h103q20 0 30.5 -9t10.5 -31v-27q0 -39 -39 -39h-133q-82 0 -107.5 30.5t-25.5 110.5v908q0 68 -6.5 101.5t-23.5 55 t-58 54.5l-127 102q-6 6 -20.5 17.5t-21 22.5t-6.5 25z" />
<glyph unicode="&#xe43;" horiz-adv-x="737" d="M10 1253q0 86 49.5 150.5t128 98.5t168.5 34q160 0 245 -75t85 -191q0 -74 -39 -137.5t-112 -147.5q-59 -68 -90 -115t-31 -96v-614q0 -33 9 -43.5t42 -10.5h102q20 0 30.5 -9t10.5 -31v-27q0 -39 -39 -39h-133q-82 0 -107.5 30.5t-25.5 110.5v637q0 61 34 114.5 t101 129.5q70 80 103.5 133t33.5 117q0 164 -219 164q-102 0 -170.5 -49.5t-68.5 -133.5q0 -14 -4 -18t-15 -4h-71q-10 0 -13.5 4t-3.5 18z" />
<glyph unicode="&#xe44;" horiz-adv-x="671" d="M20 1444v14q0 45 48 45h505q47 0 48 -45v-31q0 -18 -7.5 -28t-20.5 -20.5t-20 -16.5l-127 -115q-45 -41 -63 -75.5t-23.5 -77.5t-5.5 -133v-801q0 -33 9.5 -43.5t42.5 -10.5h102q20 0 30.5 -9t10.5 -31v-27q0 -39 -39 -39h-133q-82 0 -107.5 30.5t-25.5 110.5v824 q0 137 20.5 205.5t89.5 132.5l109 100h-395q-25 0 -36.5 9t-11.5 32z" />
<glyph unicode="&#xe45;" horiz-adv-x="882" d="M53 1014q0 8 9.5 15t21.5 13q57 31 133 47.5t160 16.5q352 0 352 -350v-1028q0 -47 -47 -47h-16q-48 0 -48 47v1042q0 121 -54 181.5t-187 60.5q-145 0 -266 -64q-8 -6 -19 -6q-14 0 -22 25l-15 34q-2 4 -2 13z" />
<glyph unicode="&#xe46;" horiz-adv-x="1054" d="M72 780q0 160 67.5 243t171.5 83q63 0 109.5 -26.5t71.5 -71.5q35 47 77.5 72.5t104.5 25.5q125 0 176 -64.5t51 -197.5v-797q0 -47 -47 -47h-16q-47 0 -47 47v784q0 102 -25 141.5t-100 39.5q-78 0 -136 -80q-14 -23 -38 -23q-25 0 -41 23q-31 39 -60 59.5t-74 20.5 q-139 0 -139 -230q0 -195 193 -194q92 0 145 28q12 6 19 7q12 0 20 -21l16 -37q2 -4 2 -12q0 -18 -30 -29q-43 -16 -79 -23t-93 -7q-139 0 -219 76.5t-80 209.5z" />
<glyph unicode="&#xe47;" d="M-915 1493q0 117 65.5 177.5t208.5 60.5h305q27 0 35 -8.5t8 -32.5v-13q0 -25 -8 -31t-35 -6h-305q-74 0 -110.5 -16t-49 -47t-12.5 -84q0 -68 19.5 -99.5t62.5 -31.5q33 0 50 21.5t17 50.5v24q0 25 25 25h47q27 0 27 -25v-22q0 -31 15 -52.5t50 -21.5q41 0 58.5 19.5 t17.5 66.5v41q0 25 25 24h53q27 0 27 -24v-43q0 -82 -44.5 -128t-128.5 -46q-41 0 -74.5 17.5t-47.5 43.5q-18 -27 -54.5 -44t-76.5 -17q-80 0 -125 57t-45 164z" />
<glyph unicode="&#xe48;" d="M-262 1317v280q0 47 47 48h16q47 0 47 -48v-280q0 -47 -47 -47h-16q-47 0 -47 47z" />
<glyph unicode="&#xe49;" d="M-752 1534v14q0 45 47 45h164q47 0 47 -45v-164l136 7q180 8 245 8q23 0 31 -9.5t8 -31.5v-27q0 -39 -39 -39h-407q-55 0 -69.5 13.5t-14.5 64.5v123h-101q-25 0 -36 9t-11 32z" />
<glyph unicode="&#xe4a;" d="M-881 1280v145q0 84 42 129t126 45q41 0 75 -17t48 -44q18 27 54 44t77 17q86 0 122 -48t36 -142v-61h104q27 0 35 -8.5t8 -32.5v-15q0 -25 -8 -31t-35 -6h-159q-47 0 -47 48v100q0 55 -12.5 79.5t-53.5 24.5q-70 0 -70 -69v-41q0 -25 -24 -25h-51q-27 0 -27 25v39 q0 33 -12.5 52t-51.5 19q-41 0 -55 -18.5t-14 -65.5v-143q0 -25 -25 -25h-55q-27 0 -27 25z" />
<glyph unicode="&#xe4b;" d="M-563 1448v14q0 45 47 45h151v101q0 47 48 47h16q47 0 47 -47v-101h164q47 0 47 -45v-14q0 -23 -11.5 -32t-35.5 -9h-164v-100q0 -47 -47 -47h-16q-48 0 -48 47v100h-151q-25 0 -36 9t-11 32z" />
<glyph unicode="&#xe4c;" d="M-590 1339v95q0 61 30 89.5t95 28.5h391q39 0 39 -39v-26q0 -23 -8 -32t-31 -9q-82 0 -405 16v-123q0 -47 -47 -47h-17q-47 0 -47 47z" />
<glyph unicode="&#xe4d;" d="M-465 1470q0 94 64.5 160t158.5 66t160 -65.5t66 -160.5q0 -94 -65.5 -158.5t-160.5 -64.5q-94 0 -158.5 64.5t-64.5 158.5zM-381 1470q0 -57 41 -98t98 -41q58 0 99 41t41 98t-41 98.5t-99 41.5q-57 0 -98 -41t-41 -99z" />
<glyph unicode="&#xe4e;" d="M-807 1440q0 78 62 110q-61 43 -62 113q0 76 53.5 110.5t147.5 34.5h117q25 0 24 -24v-39q0 -27 -24 -27h-127q-45 0 -67 -11t-22 -48q0 -35 19.5 -49.5t50.5 -14.5h51q25 0 25 -24v-39q0 -27 -25 -27h-49q-33 0 -52.5 -11t-19.5 -46q0 -37 18.5 -50.5t65.5 -13.5h144 q25 0 24 -24v-39q0 -27 -24 -27h-146q-84 0 -134 37t-50 109z" />
<glyph unicode="&#xe4f;" horiz-adv-x="1286" d="M113 492q0 240 139 381t391 141t391.5 -141.5t139.5 -380.5q0 -240 -139.5 -381.5t-391.5 -141.5t-391 141.5t-139 381.5zM219 492q0 -205 110.5 -317t313.5 -112t313.5 112t110.5 317t-110.5 316.5t-313.5 111.5t-313.5 -112t-110.5 -316zM350 492q0 133 77 209.5 t216 76.5t216 -76.5t77 -209.5t-77 -210t-216 -77t-216 76.5t-77 210.5zM444 492q0 -94 52.5 -147.5t146.5 -53.5t146.5 53t52.5 148q0 94 -52.5 147t-146.5 53t-146.5 -53t-52.5 -147z" />
<glyph unicode="&#xe50;" horiz-adv-x="1286" d="M113 492q0 240 139 381t391 141t391.5 -141.5t139.5 -380.5q0 -240 -139.5 -381.5t-391.5 -141.5t-391 141.5t-139 381.5zM219 492q0 -205 110.5 -317t313.5 -112t313.5 112t110.5 317t-110.5 316.5t-313.5 111.5t-313.5 -112t-110.5 -316z" />
<glyph unicode="&#xe51;" horiz-adv-x="1265" d="M113 535q0 221 139 350t383 129q254 0 386 -130t132 -372q0 -145 -37 -253.5t-125 -205t-246 -196.5q-10 -9 -18 -9q-10 0 -18 13l-33 45q-6 6 -6 14q0 10 14 19q133 80 212 159.5t115 178t36 237.5q0 406 -412 406q-199 0 -307.5 -101.5t-108.5 -283.5q0 -178 84 -253 t211 -75q78 0 148 29l16 4q16 0 24 -23l15 -35q2 -4 2 -12q0 -18 -31 -29q-78 -29 -178 -28q-109 0 -199 45t-144 140t-54 237z" />
<glyph unicode="&#xe52;" horiz-adv-x="1404" d="M154 336v733q0 47 47 47h16q47 0 47 -47v-745q0 -80 62.5 -139.5t164 -90.5t216.5 -31q180 0 307 70t127 191v415q0 94 -30 137.5t-110 43.5q-76 0 -105.5 -35t-29.5 -94v-86q0 -47 -47 -48h-16q-47 0 -47 48v83q0 131 -123 132q-84 0 -116 -75t-32 -208 q0 -129 46.5 -182.5t138.5 -53.5q84 0 151 31q12 6 21 6q10 0 16 -16l19 -43q2 -4 2 -12t-8.5 -14.5t-20.5 -12.5q-82 -33 -184 -33q-125 0 -206 82t-81 246q0 178 59.5 278.5t182.5 100.5q63 0 114 -26.5t76 -72.5q35 47 83 73t120 26q238 0 237 -275v-403 q0 -109 -69.5 -192t-193.5 -129t-281 -46q-158 0 -284 46t-197.5 129t-71.5 192z" />
<glyph unicode="&#xe53;" horiz-adv-x="1310" d="M113 473q0 279 94 410t262 131q66 0 119 -26.5t78 -72.5q33 45 90 72t131 27q131 0 200.5 -72t69.5 -203v-692q0 -47 -47 -47h-16q-47 0 -47 47v692q0 92 -40 136.5t-133 44.5q-78 0 -115.5 -37t-37.5 -92v-236q0 -47 -47 -47h-17q-47 0 -47 47v233q0 55 -32.5 93.5 t-102.5 38.5q-131 0 -193.5 -105.5t-62.5 -339.5q0 -412 305 -412q47 0 93.5 8.5t74.5 20.5l17 4q16 0 24 -22l15 -35q2 -4 2 -12q0 -18 -31 -29q-80 -29 -199 -29q-207 0 -307 135.5t-100 368.5z" />
<glyph unicode="&#xe54;" horiz-adv-x="1335" d="M113 434q0 252 143 400.5t442 148.5q141 0 206 5t118 29.5t113 82.5q10 10 17 12t15 -4l41 -37q12 -6 13 -18q0 -10 -9 -19q-72 -70 -138 -101.5t-147 -40.5t-229 -9q-250 0 -362.5 -114t-112.5 -335q0 -176 72 -273.5t201 -97.5q61 0 106 14.5t92 47.5q-27 33 -44 82 t-17 104q0 145 85 224t224 79q57 0 91 -6t71 -22q20 -8 27.5 -17.5t1.5 -23.5l-15 -35q-8 -23 -22 -23q-12 0 -19 5q-61 29 -131 28q-94 0 -150.5 -51t-56.5 -160q0 -117 69 -163t208 -46h143q47 0 47 -45v-14q0 -23 -11 -32t-36 -9h-149q-154 0 -246 61q-104 -92 -268 -92 q-191 0 -287 128t-96 337z" />
<glyph unicode="&#xe55;" horiz-adv-x="1335" d="M113 434q0 233 116.5 375.5t356.5 161.5q-27 20 -41.5 54t-14.5 69q0 18 6.5 25t24.5 7h45q25 0 35 -6t10 -22q0 -51 23.5 -85t70.5 -34q139 0 224.5 20.5t165.5 100.5q10 10 17 12t15 -4l41 -37q12 -6 13 -18q0 -10 -9 -19q-72 -70 -138 -101.5t-147 -40.5t-229 -9 q-256 0 -365.5 -113t-109.5 -336q0 -176 72 -273.5t201 -97.5q61 0 106 14.5t92 47.5q-27 33 -44 82t-17 104q0 145 85 224t224 79q57 0 91 -6t71 -22q20 -8 27.5 -17.5t1.5 -23.5l-15 -35q-8 -23 -22 -23q-12 0 -19 5q-61 29 -131 28q-94 0 -150.5 -51t-56.5 -160 q0 -117 69 -163t208 -46h143q47 0 47 -45v-14q0 -23 -11 -32t-36 -9h-149q-154 0 -246 61q-104 -92 -268 -92q-191 0 -287 128t-96 337z" />
<glyph unicode="&#xe56;" horiz-adv-x="1280" d="M72 1143q0 14 18 14h74q10 0 14 -3t8 -13l117 -297q66 66 168 102.5t215 36.5q244 0 362.5 -137t118.5 -375q0 -150 -60 -262.5t-179 -176t-285 -63.5q-108 0 -209.5 22.5t-146.5 49.5q-20 12 -28.5 20.5t-0.5 20.5l21 33q14 25 24 24q8 0 16 -6q135 -70 320 -70 q207 0 314.5 103.5t107.5 306.5q0 205 -93.5 310.5t-281.5 105.5q-225 0 -338 -144q-2 -4 -11 -15t-21.5 -17t-28.5 -6q-37 0 -51 32l-162 398z" />
<glyph unicode="&#xe57;" horiz-adv-x="1656" d="M113 473q0 283 84 412t247 129q63 0 112.5 -26.5t74.5 -72.5q72 98 211 99q131 0 200.5 -71t69.5 -204v-645q106 0 165.5 20.5t87.5 72t28 149.5v702q0 47 47 47h16q47 0 47 -47v-688q0 -350 -348 -350h-106q-47 0 -48 47v692q0 92 -39.5 136.5t-132.5 44.5 q-78 0 -110.5 -36t-32.5 -93v-236q0 -47 -47 -47h-16q-47 0 -48 47v233q0 131 -124 132q-127 0 -179.5 -102.5t-52.5 -342.5q0 -412 301 -412q47 0 93 8.5t75 20.5l17 4q16 0 24 -22l14 -35q2 -4 2 -12q0 -18 -30 -29q-78 -29 -199 -29q-207 0 -305 135.5t-98 368.5z" />
<glyph unicode="&#xe58;" horiz-adv-x="1259" d="M113 254v281q0 229 124.5 338.5t426.5 109.5q141 0 205.5 5t117.5 29.5t113 82.5q10 10 17 12t16 -4l41 -37q12 -6 12 -18q0 -10 -8 -19q-72 -70 -138.5 -101.5t-147.5 -40.5t-228 -9q-176 0 -270.5 -34t-132.5 -107.5t-38 -206.5v-281q0 -94 50.5 -142.5t146.5 -48.5 q80 0 128 38t48 92v112q0 47 47 47h16q47 0 48 -47v-110q0 -53 39.5 -92.5t111.5 -39.5q117 0 169 59.5t52 201.5q0 121 -28.5 171t-108.5 50q-55 0 -111 -21l-16 -4q-16 0 -24 23l-15 35q-2 4 -2 12q0 18 31 28q59 20 141 21q127 0 183.5 -73.5t56.5 -239.5 q0 -188 -84 -272.5t-238 -84.5q-66 0 -127 28t-86 71q-33 -45 -100.5 -72t-142.5 -27q-132 0 -213.5 78t-81.5 207z" />
<glyph unicode="&#xe59;" horiz-adv-x="1302" d="M113 473q0 541 342 541q76 0 123 -24.5t77.5 -71t65.5 -127.5l133 -316q106 43 163.5 89t80 105.5t22.5 147.5v221q0 47 47 47h17q47 0 47 -47v-207q0 -119 -33 -198.5t-105.5 -138t-199.5 -111.5l149 -350l5 -17q0 -16 -25 -16h-45q-23 0 -30 6t-15 27l-322 755 q-29 68 -61.5 100t-95.5 32q-123 0 -178.5 -104.5t-55.5 -340.5q0 -199 71.5 -305.5t213.5 -106.5q47 0 93 8.5t75 20.5l16 4q16 0 25 -22l14 -35q2 -4 2 -12q0 -18 -31 -29q-78 -29 -198 -29q-195 0 -291 136.5t-96 367.5z" />
<glyph unicode="&#xe5a;" horiz-adv-x="1556" d="M72 831q0 119 77.5 197t194.5 78q49 0 80 -6t63 -21q23 -10 29 -18t0 -23l-14 -32q-8 -23 -23 -23q-12 0 -18 4q-29 14 -56.5 19.5t-66.5 5.5q-74 0 -120 -45t-46 -136q0 -106 66.5 -165.5t197.5 -59.5q162 0 275 82v340q0 47 47 47h16q47 0 47 -47v-201q0 -98 65.5 -149 t151.5 -51q160 0 254 71v330q0 47 47 47h17q47 0 47 -47v-981q0 -47 -47 -47h-17q-47 0 -47 47v551q-111 -66 -254 -66q-57 0 -119.5 21.5t-97.5 64.5v-571q0 -47 -47 -47h-16q-47 0 -47 47v541q-51 -33 -123 -54.5t-152 -21.5q-166 0 -265 85t-99 234z" />
<glyph unicode="&#xe5b;" horiz-adv-x="2424" d="M113 492q0 248 116.5 385t335.5 137q209 0 308.5 -109.5t99.5 -288.5q0 -84 -35 -180q-12 -39 -41 -28l-41 16q-23 8 -22 22l4 19q29 70 28 147q0 135 -63.5 221.5t-237.5 86.5q-178 0 -262 -112t-84 -316q0 -215 109.5 -322t314.5 -107q238 0 364 104.5t126 328.5v67 q0 121 56 186.5t171 65.5q100 0 156.5 -60.5t56.5 -170.5v-88q0 -76 20.5 -109t79.5 -33q53 0 71.5 35t18.5 94v76q0 109 46 157t137 48q94 0 138 -51t44 -154v-59h178q47 0 47 -45v-15q0 -23 -11 -32t-36 -9h-242q-25 0 -36 9.5t-11 31.5v113q0 72 -16 94.5t-55 22.5 t-55.5 -28t-16.5 -99v-60q0 -106 -52.5 -164.5t-148.5 -58.5q-109 0 -160 59.5t-51 174.5v90q0 137 -102 137q-63 0 -90 -38t-27 -122v-61q0 -256 -153.5 -393.5t-444.5 -137.5q-256 0 -394 132t-138 391z" />
<glyph unicode="&#x1e0c;" horiz-adv-x="1388" d="M156 47v1299q0 47 47 47h368q338 0 521.5 -163t183.5 -534t-183.5 -533.5t-521.5 -162.5h-368q-47 0 -47 47zM266 100h318q287 0 436 136.5t149 459.5q0 324 -149.5 460t-435.5 136h-318v-1192zM502 -231q0 29 19.5 50t47.5 21h29q29 0 48.5 -21.5t19.5 -49.5v-27 q0 -31 -18.5 -51.5t-49.5 -20.5h-29q-28 0 -47.5 21.5t-19.5 50.5v27z" />
<glyph unicode="&#x1e0d;" horiz-adv-x="1253" d="M113 492q0 154 61.5 272.5t171 184t252.5 65.5q141 0 237.5 -33t153.5 -102v467q0 47 47 47h17q47 0 47 -47v-1254q-68 -53 -188.5 -88t-245.5 -35q-281 0 -417 129t-136 394zM219 479q0 -219 110.5 -317.5t336.5 -98.5q92 0 182 21.5t141 56.5v506q0 131 -103.5 201 t-252.5 70q-207 0 -310.5 -116t-103.5 -323zM586 -231q0 29 19.5 50t47.5 21h29q29 0 48.5 -21.5t19.5 -49.5v-27q0 -31 -18.5 -51.5t-49.5 -20.5h-29q-28 0 -47.5 21.5t-19.5 50.5v27z" />
<glyph unicode="&#x1e0e;" horiz-adv-x="1386" d="M154 47v1299q0 47 47 47h368q338 0 521.5 -163t183.5 -534t-183.5 -533.5t-521.5 -162.5h-368q-47 0 -47 47zM242 -219q0 45 47 45h569q47 0 47 -45v-14q0 -23 -11 -32t-36 -9h-569q-25 0 -36 9t-11 32v14zM264 100h318q287 0 436 136.5t149 459.5q0 324 -149.5 460 t-435.5 136h-318v-1192z" />
<glyph unicode="&#x1e0f;" horiz-adv-x="1253" d="M113 492q0 154 61.5 272.5t171 184t252.5 65.5q141 0 237.5 -33t153.5 -102v467q0 47 47 47h17q47 0 47 -47v-1254q-68 -53 -188.5 -88t-245.5 -35q-281 0 -417 129t-136 394zM219 479q0 -219 110.5 -317.5t336.5 -98.5q92 0 182 21.5t141 56.5v506q0 131 -103.5 201 t-252.5 70q-207 0 -310.5 -116t-103.5 -323zM315 -219q0 45 47 45h570q47 0 47 -45v-14q0 -23 -11.5 -32t-35.5 -9h-570q-24 0 -35.5 9t-11.5 32v14z" />
<glyph unicode="&#x1e20;" horiz-adv-x="1425" d="M113 696q0 344 180 535.5t512 191.5q123 0 233.5 -24.5t186.5 -73.5q12 -8 14 -14t-4 -19l-27 -45q-6 -12 -14 -12q-4 0 -14 6q-61 41 -157.5 64.5t-215.5 23.5q-272 0 -430 -155.5t-158 -477.5q0 -319 161 -476t427 -157q115 0 220.5 19.5t174.5 54.5v510h-364 q-47 0 -47 45v15q0 23 11 32t36 9h428q47 0 47 -48v-579q0 -18 -3 -29.5t-16 -17.5q-203 -104 -489 -105q-332 0 -512 191.5t-180 535.5zM457 1657v14q0 45 47 45h569q47 0 47 -45v-14q0 -23 -11 -32t-36 -9h-569q-25 0 -36 9t-11 32z" />
<glyph unicode="&#x1e21;" horiz-adv-x="1253" d="M113 453q0 264 150.5 412.5t420.5 148.5q115 0 231.5 -30t184.5 -75v-764q0 -244 -104.5 -368.5t-333.5 -124.5q-230 0 -388 76q-23 12 -10 32l31 54q6 12 14 12q6 0 15 -6q61 -33 148 -53.5t183 -20.5q176 0 255 90t79 309q-74 -92 -171 -134t-232 -42q-215 0 -344 128 t-129 356zM219 465q0 -399 402 -399q94 0 178 37.5t137 108.5t53 165v483q-51 27 -134 43.5t-171 16.5q-221 0 -343 -116t-122 -339zM330 1231v14q0 45 47 45h569q47 0 47 -45v-14q0 -23 -11 -32t-36 -9h-569q-25 0 -36 9t-11 32z" />
<glyph unicode="&#x1e24;" horiz-adv-x="1404" d="M154 47v1299q0 47 47 47h16q47 0 47 -47v-590h877v590q0 47 47 47h16q47 0 47 -47v-1299q0 -47 -47 -47h-16q-47 0 -47 47v608h-877v-608q0 -47 -47 -47h-16q-47 0 -47 47zM618 -231q0 29 19.5 50t48.5 21h29q29 0 48 -21.5t19 -49.5v-27q0 -31 -18.5 -51.5t-48.5 -20.5 h-29q-29 0 -48.5 21.5t-19.5 50.5v27z" />
<glyph unicode="&#x1e25;" horiz-adv-x="1204" d="M154 47v1299q0 25 8 36t31 11h32q23 0 31 -11.5t8 -35.5v-508q162 176 430 176q168 0 267.5 -85t99.5 -259v-623q0 -47 -47 -47h-17q-47 0 -47 47v617q0 139 -70.5 197.5t-211.5 58.5q-94 0 -187.5 -38t-155 -106.5t-61.5 -152.5v-576q0 -47 -47 -47h-16q-47 0 -47 47z M545 -231q0 29 19.5 50t47.5 21h29q29 0 48.5 -21.5t19.5 -49.5v-27q0 -31 -18.5 -51.5t-49.5 -20.5h-29q-28 0 -47.5 21.5t-19.5 50.5v27z" />
<glyph unicode="&#x1e2a;" horiz-adv-x="1404" d="M154 47v1299q0 47 47 47h16q47 0 47 -47v-590h877v590q0 47 47 47h16q47 0 47 -47v-1299q0 -47 -47 -47h-16q-47 0 -47 47v608h-877v-608q0 -47 -47 -47h-16q-47 0 -47 47zM418 -113q0 16 9 26.5t24 10.5h49q20 0 27.5 -9t7.5 -30q0 -100 35.5 -153.5t136.5 -53.5 q100 0 136 53.5t36 153.5q0 20 7 29.5t27 9.5h50q14 0 23 -10t9 -27q0 -143 -72.5 -228t-215.5 -85q-144 0 -216.5 85t-72.5 228z" />
<glyph unicode="&#x1e2b;" horiz-adv-x="1204" d="M154 47v1299q0 25 8 36t31 11h32q23 0 31 -11.5t8 -35.5v-508q162 176 430 176q168 0 267.5 -85t99.5 -259v-623q0 -47 -47 -47h-17q-47 0 -47 47v617q0 139 -70.5 197.5t-211.5 58.5q-94 0 -187.5 -38t-155 -106.5t-61.5 -152.5v-576q0 -47 -47 -47h-16q-47 0 -47 47z M330 -113q0 16 9 26.5t23 10.5h50q20 0 27 -9t7 -30q0 -100 36 -153.5t136 -53.5t136.5 53.5t36.5 153.5q0 20 7 29.5t27 9.5h49q14 0 23.5 -10t9.5 -27q0 -143 -72.5 -228t-216.5 -85q-143 0 -215.5 85t-72.5 228z" />
<glyph unicode="&#x1e36;" horiz-adv-x="1110" d="M154 47v1299q0 47 47 47h16q47 0 47 -47v-1246h727q47 0 47 -45v-14q0 -23 -11 -32t-36 -9h-790q-47 0 -47 47zM514 -231q0 29 19.5 50t48.5 21h28q29 0 48.5 -21.5t19.5 -49.5v-27q0 -31 -18.5 -51.5t-49.5 -20.5h-28q-29 0 -48.5 21.5t-19.5 50.5v27z" />
</font>
</defs>
</svg>
